<?xml version="1.0" encoding="utf-8"?>
<!-- Generator: Adobe Illustrator 22.0.0, SVG Export Plug-In . SVG Version: 6.00 Build 0)  -->
<svg version="1.1" id="Layer_1" xmlns="http://www.w3.org/2000/svg" xmlns:xlink="http://www.w3.org/1999/xlink" x="0px" y="0px"
	 viewBox="0 0 1000 1000" style="enable-background:new 0 0 1000 1000;" xml:space="preserve">
<style type="text/css">
	.st0{fill:#EF4748;}
	.st1{fill:#FFFFFF;}
	.st2{fill:#F7BB22;}
	.st3{fill:#ED302B;}
	.st4{fill:#623412;}
	.st5{opacity:7.000000e-02;}
	.st6{fill:#070808;}
	.st7{fill:#020202;}
	.st8{fill:none;stroke:#020202;stroke-miterlimit:10;}
	.st9{fill:none;stroke:#000000;stroke-miterlimit:10;}
	.st10{fill:none;stroke:#020202;stroke-width:2;stroke-miterlimit:10;}
	.st11{fill:url(#);}
	.st12{fill:url(#SVGID_1_);}
	.st13{fill:#161C3A;}
	.st14{fill:url(#SVGID_2_);}
	.st15{fill:#402312;}
	.st16{fill:#FAAF3A;}
	.st17{fill:#F4EB48;}
	.st18{fill:#848133;}
	.st19{fill:#BFAF78;}
	.st20{fill:#8F783F;}
	.st21{fill:#F6E6BE;}
	.st22{fill:#E2C920;}
	.st23{fill:#EC1C29;}
	.st24{fill:#B92025;}
	.st25{fill:#F48A80;}
	.st26{fill:#2E4925;}
</style>
<rect class="st0" width="1000" height="1000"/>
<g>
	<path class="st1" d="M273.2,479.9l8.8-6.3c3.2,5.6,9.1,8.7,15.9,8.7c8,0,14-3.8,14-9.3c0-6.6-9.4-10.5-17.6-14.1
		c-8.3-3.7-17.6-8-17.6-19.2c0-11.6,10.1-19.8,22.9-19.8c10.1,0,17.7,4.9,20.6,12.7l-8.3,5.7c-2.2-4.8-7.1-7.5-12.3-7.5
		c-6.5,0-11.7,4.1-11.7,9.1c0,5.6,6.6,7.5,15.2,11.2c11.2,4.9,20,10.4,20,21.6c0,12.6-10.9,20.7-25.4,20.7
		C286.1,493.6,277.3,488.1,273.2,479.9z"/>
	<path class="st1" d="M377.3,432.3h-19.1v60h-11.2v-60H328v-11.1h49.3V432.3z"/>
	<path class="st1" d="M379.3,456.9c0-20.3,16.5-36.9,36.7-36.9c20.2,0,36.8,16.6,36.8,36.9c0,20.1-16.6,36.6-36.8,36.6
		C395.8,493.5,379.3,477,379.3,456.9z M441.5,456.8c0-14.1-11.5-25.5-25.5-25.5s-25.5,11.5-25.5,25.5c0,14,11.4,25.4,25.5,25.4
		S441.5,470.8,441.5,456.8z"/>
	<path class="st1" d="M459.6,456.9c0-20,16.7-36.8,36.7-36.8c9.2,0.1,17.7,4.1,24.7,10.9l-6.5,8.8c-5-5-11.5-8.3-18.4-8.3
		c-12.9,0-25.2,11.3-25.2,25.5c0,14.3,12.5,25.4,25.2,25.4c7.3,0,13.5-3.6,18.4-8.5l6.4,9c-6.1,6-13.9,10.7-24.5,10.7
		C476.3,493.5,459.6,476.9,459.6,456.9z"/>
	<path class="st1" d="M567.3,492.3L541,457.9v34.4h-11.1v-71.1H541v34.1l24.4-34.1h13l-25.2,34.9l27.7,36.2H567.3z"/>
	<path class="st1" d="M584.4,479.9l8.8-6.3c3.2,5.6,9.1,8.7,15.9,8.7c8,0,14-3.8,14-9.3c0-6.6-9.4-10.5-17.6-14.1
		c-8.3-3.7-17.6-8-17.6-19.2c0-11.6,10.1-19.8,22.9-19.8c10.1,0,17.7,4.9,20.6,12.7l-8.3,5.7c-2.2-4.8-7.1-7.5-12.3-7.5
		c-6.5,0-11.7,4.1-11.7,9.1c0,5.6,6.6,7.5,15.2,11.2c11.2,4.9,20,10.4,20,21.6c0,12.6-10.9,20.7-25.4,20.7
		C597.3,493.6,588.4,488.1,584.4,479.9z"/>
	<path class="st1" d="M664.7,491c-5.4-2.4-9.5-5.6-12.2-9.5c-2.7-4-4.1-8.3-4.1-12.9c0-5.1,1.7-9.3,5.2-12.4
		c3.4-3.2,7.2-5.5,11.3-7.1c0.8-0.4,1.3-0.7,1.3-0.9c0-0.4-0.4-0.7-1.2-1.2c-4.1-2.5-6.1-6-6.1-10.5c0-2.8,0.8-5.5,2.4-8.2
		c1.6-2.7,4.1-4.9,7.7-6.6c3.5-1.8,8.1-2.6,13.6-2.6c4.1,0,7.9,0.7,11.2,2.1c3.3,1.4,6,3.3,7.9,5.6s2.8,4.8,2.8,7.5
		c0,1.7-0.5,3.1-1.6,4.4c-1.1,1.2-2.6,1.8-4.7,1.8c-1.6,0-3-0.5-4.2-1.4c-1.2-0.9-2.4-2.8-3.7-5.7c-0.8-1.7-1.7-2.9-2.7-3.7
		c-1-0.8-2.4-1.2-4.1-1.2c-5,0-7.5,2.4-7.5,7.1c0,1.8,0.4,3.3,1.1,4.7c0.7,1.4,1.6,2.4,2.7,3.2c1.1,0.7,2.2,1,3.2,0.9
		c0.4-0.1,0.8-0.1,1.3-0.1c1,0,1.7,0.2,2.1,0.6c0.4,0.4,0.5,1.1,0.5,2.1c-0.1,1.2-0.4,2.1-0.9,2.8c-0.5,0.7-1.4,1.3-2.8,1.8
		c-3.8,1.3-6.7,3.2-8.7,5.9c-2,2.7-3.1,6.3-3.1,10.9c0,3,0.7,5.8,1.9,8.3c1.3,2.5,3.2,4.5,5.6,6c2.4,1.5,5.2,2.2,8.4,2.2
		c6.2,0,10.5-1.9,13.1-5.8c2.5-3.9,3.8-8.4,3.8-13.5c0-1.9-0.4-3.3-1.1-4.2c-0.7-0.9-2-1.4-3.9-1.4c-3.4,0-5.4,1.4-6,4.3
		c-0.4,1.8-1.6,2.6-3.7,2.6c-0.8,0-1.4-0.3-1.7-0.9c-0.3-0.6-0.5-1.6-0.5-2.9c0-4.4,1-8.4,3-11.9c2-3.5,5.5-5.3,10.4-5.3
		c1.1,0,2.4,0.1,3.7,0.2c1.4,0.1,2.3,0.2,2.9,0.3c3.1,0.4,5.6,0.6,7.5,0.6c1.5,0,2.8-0.3,3.7-1c0.9-0.7,1.5-1.5,1.9-2.5
		c0.8-2.4,2.1-3.6,3.8-3.6c0.8,0,1.5,0.5,1.9,1.4c0.5,0.9,0.7,2.2,0.7,3.8c-0.1,7.2-3,11.3-8.7,12.4c-0.4,0.1-0.8,0.2-1.1,0.4
		c-0.3,0.2-0.4,0.4-0.2,0.6c1.8,2.1,2.6,5.1,2.6,9.1c0,4.4-1.4,8.7-4.1,12.9c-2.7,4.1-6.7,7.5-12,10.2c-5.3,2.6-11.5,4-18.8,4
		C676.7,494.6,670.1,493.4,664.7,491z"/>
	<path class="st1" d="M343,507.2v72.7h-11.2v-39.4l-23.6,38.2h-0.1l-23.6-38.3v39.5h-11.2v-72.7h0.8l34,51.7l34-51.7H343z"/>
	<path class="st1" d="M353.3,544.4c0-20.3,16.5-36.9,36.7-36.9c20.2,0,36.8,16.6,36.8,36.9c0,20.1-16.6,36.6-36.8,36.6
		C369.8,581,353.3,564.6,353.3,544.4z M415.5,544.3c0-14.1-11.5-25.5-25.5-25.5s-25.5,11.5-25.5,25.5c0,14,11.4,25.4,25.5,25.4
		S415.5,558.3,415.5,544.3z"/>
	<path class="st1" d="M476.1,579.9L457,552.4h-8.7v27.5h-11.2l0-71.1h22.1c13.2,0,24.1,10.2,24.1,22.9c0,9.2-5.9,17.2-14.1,19.8
		l20.7,28.5H476.1z M459.4,543.1c6.7,0,12.3-5.4,12.3-11.7c0-6.6-5.7-11.5-12.3-11.5h-11.2v23.2H459.4z"/>
	<path class="st1" d="M508.5,519.8V538h26.9v11.1h-26.9v19.7h31.2v11.1h-42.3v-71.1h42.3v11H508.5z"/>
</g>
</svg>
