<?xml version="1.0" encoding="utf-8"?>
<!-- Generator: Adobe Illustrator 22.0.0, SVG Export Plug-In . SVG Version: 6.00 Build 0)  -->
<svg version="1.1" id="Layer_1" xmlns="http://www.w3.org/2000/svg" xmlns:xlink="http://www.w3.org/1999/xlink" x="0px" y="0px"
	 viewBox="0 0 1000 1000" style="enable-background:new 0 0 1000 1000;" xml:space="preserve">
<style type="text/css">
	.st0{fill:#EF4748;}
	.st1{fill:#FFFFFF;}
	.st2{fill:#F7BB22;}
	.st3{fill:#ED302B;}
	.st4{fill:#623412;}
	.st5{opacity:7.000000e-02;}
	.st6{fill:#070808;}
	.st7{fill:#020202;}
	.st8{fill:none;stroke:#020202;stroke-miterlimit:10;}
	.st9{fill:none;stroke:#000000;stroke-miterlimit:10;}
	.st10{fill:none;stroke:#020202;stroke-width:2;stroke-miterlimit:10;}
	.st11{fill:url(#);}
	.st12{fill:url(#SVGID_1_);}
	.st13{fill:#161C3A;}
	.st14{fill:url(#SVGID_2_);}
	.st15{fill:#402312;}
	.st16{fill:#FAAF3A;}
	.st17{fill:#F4EB48;}
	.st18{fill:#848133;}
	.st19{fill:#BFAF78;}
	.st20{fill:#8F783F;}
	.st21{fill:#F6E6BE;}
	.st22{fill:#E2C920;}
	.st23{fill:#EC1C29;}
	.st24{fill:#B92025;}
	.st25{fill:#F48A80;}
	.st26{fill:#2E4925;}
</style>
<rect class="st2" width="1000" height="1000"/>
<g>
	<g>
		<g>
			<path class="st3" d="M387.2,496.4l-56,19.4c0,0-25.6,22.5-5,68.5l168.7,1.1c0,0,17.6-46.1-6.8-70.2l-53.7-18.4L387.2,496.4z"/>
		</g>
		<g>
			<path class="st2" d="M387.2,478.5l4.3,26.5c0,0,28,5.7,39.5,0l4.3-26.5H387.2z"/>
		</g>
		<g>
			<path class="st2" d="M373.2,439.2c0,0,2-18.6,1-24.5s11.8-20.6,11.8-20.6s45.1-3.9,51,1c0,0,11.8,4.9,10.8,23.5
				c0,0,1,16.7,2,19.6l-1,5.9l-1,19.6c0,0-11.8,22.5-33.3,24.5c-21.6,2-40.2-25.5-40.2-25.5v-18.6L373.2,439.2z"/>
		</g>
		<g>
			<path class="st2" d="M374.2,429.4c0,0-10.8-17.6-11.8-1c-1,16.7,12.7,19.6,12.7,19.6L374.2,429.4z"/>
		</g>
		<g>
			<path class="st2" d="M447.7,428.5c0,0,7.8-12.7,11.8-4.9c3.9,7.8-4.9,23.5-11.8,24.5V428.5z"/>
		</g>
		<g>
			<path class="st4" d="M374.6,428.9c0,0-10.8-15.7-5.9-26.5c4.9-10.8,17.6-8.8,17.6-8.8s-8.8-8.8-2.9-11.8c5.9-2.9,49,5.9,49,5.9
				l2.9,2.9v2l6.9,2c0,0,17.8,1.5,12.7,17.6c-4.5,14.5-6.9,12.7-6.9,12.7s2-19.9-13.7-30.4l-45.6-0.7c0,0-10.3,3.7-12.3,11.5
				C374.6,413.3,374.6,428.9,374.6,428.9z"/>
		</g>
		<g>
			<path class="st1" d="M395.7,463.7c0,0,4.7,9.8,16.1,9.8s14.2-10.8,14.2-10.8S411.9,470,395.7,463.7z"/>
		</g>
		<g>
			<path class="st3" d="M380.5,432.9c0,0,0-8.8,7.8-9.8l13.7,4.9l4.9-2.9v2l2.9-1l4.9,2V425l3.9,2l16.7-3.9c0,0,4.9,0,6.9,7.8
				l-9.8,2c0,0,1,8.8-7.8,3.9l1,2.9c0,0,6.9,2.9,13.7-3.9c0,0,0,7.8-3.9,10.8c-3.9,2.9-10.8-3.9-10.8-3.9l-2.9,1l7.8,11.8l-1,3.9
				c0,0,6.9,2,2,6.9l-3.9-5.9h-7.8c0,0-9.8,4.9-15.7,0h-7.8l-2.9,5.9c0,0-2.9-2.9,1-7.8c3.9-4.9,7.8-14.7,7.8-14.7l-2.9-1
				c0,0-11.8,11.8-14.7-5.9c0,0,4.9,7.8,12.7,2.9l1-2c0,0-3.9,1-6.9-2L380.5,432.9z"/>
		</g>
		<g>
			<path class="st3" d="M385.9,395.1c0,0-6.9,43.1-9.8,44.1c0,0,6.9,7.8,4.9,20.6l-2-1l-1,2.9c0,0,11.8,19.6,17.6,21.6
				c0,0-14.7-7.8-20.6-21.6l-1-18.6l-2-3.9l2.9-20.6C375.1,418.7,370.2,404,385.9,395.1z"/>
		</g>
		<g>
			<path class="st3" d="M435.9,395.1c0,0,6.9,43.1,9.8,44.1c0,0-6.9,7.8-4.9,20.6l2-1l1,2.9c0,0-11.8,19.6-17.6,21.6
				c0,0,14.7-7.8,20.6-21.6l1-18.6l2-3.9l-2.9-20.6C446.7,418.7,451.6,404,435.9,395.1z"/>
		</g>
		<g>
			<path class="st3" d="M391.8,411.8c0,0,21.6,14.7,40.2,0C432,411.8,416.3,421.6,391.8,411.8z"/>
		</g>
		<g class="st5">
			<path class="st6" d="M405.5,476.5c0,0,4.9,8.8,11.8,0C417.3,476.5,411.4,479.4,405.5,476.5z"/>
		</g>
		<g>
			<path class="st3" d="M401.6,486.4c0,0,11.5,6.5,20.8,0l-4.3,20.8h-11.5L401.6,486.4z"/>
		</g>
		<g>
			<path class="st2" d="M404.5,435.3c0,0,5.9-2.9,12.7,0c0,0-2,9.8,3.9,13.7l-1,2l-2-1c0,0-6.9,5.9-15.7,0l-1.5,0.5v-1
				C401.1,449.5,408,441.7,404.5,435.3z"/>
		</g>
		<g>
			<path class="st2" d="M328.4,583.9l10-4.3l7.2-1.4l24,4.7l62.4-12.2l2.2-10.8l5.7-4.3l1.4-4.3v-5l12.2,2.2l-4.3,2.9H473l2.2,2.9
				v5.7l2.2,5.7l-4.3,5l2.2,3.6l-2.2,5l-1.4,5.7c0,0-5.7,7.2-22.2,3.6L374,618.7l-15.8-2.2l-9.3,2.2L328.4,583.9z"/>
		</g>
		<g>
			
				<rect x="421.1" y="489.3" transform="matrix(0.1646 -0.9864 0.9864 0.1646 -121.5468 836.5654)" class="st4" width="23.9" height="1.4"/>
		</g>
		<g>
			
				<rect x="388.7" y="477.4" transform="matrix(0.9879 -0.1551 0.1551 0.9879 -71.1972 66.3458)" class="st4" width="1.4" height="23.9"/>
		</g>
		<g>
			<polygon class="st3" points="328.4,585.4 357.8,614.8 349.2,619.1 			"/>
		</g>
		<g>
			<path class="st4" d="M369.7,582.9c10.4-2.5,20.8-4.7,31.2-6.8c5.2-1,10.4-2.1,15.7-3.1c5.2-1,10.5-2,15.7-3l-0.8,1
				c0.2-2.4,0.6-4.7,1.2-7c0.3-1.1,0.7-2.3,1.2-3.4c0.5-1.1,1.1-2.2,2-3.2c0.4-0.5,0.9-0.9,1.5-1.3c0.7-0.4,1.1-0.5,1.5-0.8
				c0.8-0.5,1.4-1.4,1.8-2.3c0.8-1.9,0.9-4.3,0.7-6.4l-0.1-0.8l0.7,0.2l6.1,1.3c2,0.4,4,0.9,6,1.4c-2.1-0.2-4.1-0.5-6.2-0.8
				l-6.1-0.8l0.6-0.6c0.2,1.2,0.3,2.4,0.3,3.6c0,1.2-0.2,2.4-0.7,3.6c-0.4,1.2-1.2,2.3-2.3,3.1c-0.5,0.4-1.2,0.7-1.5,0.9
				c-0.4,0.2-0.7,0.6-1.1,1c-1.3,1.6-2,3.7-2.6,5.9c-0.5,2.1-0.8,4.4-1,6.6l-0.1,0.8l-0.8,0.2c-5.2,1-10.5,2-15.7,3
				c-5.2,1-10.5,1.9-15.7,2.8C390.7,579.6,380.2,581.4,369.7,582.9z"/>
		</g>
		<g>
			<path class="st4" d="M449.3,551.3c3.7-0.1,7.4-0.2,11.1-0.3l11.1-0.2l0.2,0l0.1,0.1l3.6,2.8l0.2,0.2l0,0.3l0.1,5.7l0-0.2l2.2,5.7
				l0.2,0.4l-0.3,0.3l-4.2,5.1l0.1-0.9l2.2,5l0.2,0.4l-0.2,0.4l-2.8,5.8l0.1-0.3l-0.7,5l-0.1,0.5l-0.4,0.2c-1.8,1-3.6,1.7-5.5,2.4
				c-1.9,0.7-3.8,1.2-5.8,1.6c-2,0.3-4,0.5-6.1,0.3c-2.1-0.2-4.2-0.9-5.9-2.2l1,0.1l-19.4,7.5l-19.4,7.4c-6.5,2.5-13,4.9-19.5,7.3
				l-9.7,3.6l-9.8,3.6l-0.1,0l-0.1,0l-6.8-1.2l-6.8-1.3l6.8,0.9l6.8,0.9l-0.2,0l9.6-4l9.6-3.9c6.4-2.6,12.8-5.2,19.3-7.8l19.3-7.6
				l19.4-7.6l0.5-0.2l0.5,0.3c1.4,1,3.1,1.6,4.9,1.8c1.8,0.2,3.7,0.1,5.5-0.2c1.8-0.3,3.7-0.8,5.5-1.5c1.8-0.6,3.6-1.4,5.2-2.2
				l-0.5,0.7l0.8-5l0-0.2l0.1-0.1l2.9-5.7l0,0.7l-2.1-5l-0.2-0.5l0.3-0.4l4.4-5l-0.1,0.7l-2.1-5.8l0-0.1l0-0.1l0.1-5.7l0.2,0.5
				l-3.5-2.9l0.3,0.1l-11.1-0.2C456.7,551.5,453,551.4,449.3,551.3z"/>
		</g>
		<g>
			<path class="st4" d="M368.9,612.3c-3,1.4-6.1,2.6-9.1,3.8c-1.5,0.6-3.1,1.2-4.6,1.8c-1.5,0.6-3.1,1.2-4.6,1.7l-0.7,0.3l-0.4-0.6
				c-1.9-2.8-3.7-5.6-5.5-8.4c-1.8-2.8-3.6-5.6-5.3-8.5c-1.7-2.8-3.4-5.7-5.1-8.6c-1.7-2.9-3.3-5.8-4.8-8.8c2,2.6,4,5.3,5.9,8.1
				c1.9,2.7,3.8,5.5,5.7,8.3c1.9,2.8,3.7,5.6,5.5,8.4c1.8,2.8,3.6,5.6,5.3,8.5l-1.1-0.4c1.6-0.5,3.1-1,4.7-1.5
				c1.6-0.5,3.1-1,4.7-1.4C362.6,614,365.7,613.1,368.9,612.3z"/>
		</g>
		<g>
			<path class="st7" d="M455.7,560.6c0,0,23.7-2.9,7.2,1.4L455.7,560.6z"/>
		</g>
		<g>
			<path class="st7" d="M457.2,569.2c0,0,21.5-2.9,6.5,1.4L457.2,569.2z"/>
		</g>
		<g>
			<path class="st7" d="M456.5,577.8c0,0,21.5-2.9,6.5,1.4L456.5,577.8z"/>
		</g>
		<g>
			<path class="st2" d="M493,585l-10.4-6.8l-17.2-7.2l-13.6-1.4l-4.3,12.9l-57.7-11.8l-2.2-10.8l-5.7-4.3l-1.4-4.3v-5l-12.2,2.2
				l-8.7,1.8l-10.7,1l-2.2,2.9v5.7l-2.2,5.7l4.3,5l-2.2,3.6l2.2,5l1.4,5.7c0,0,5.7,7.2,22.2,3.6l75.3,30.1l15.8-2.2l9.3,2.2L493,585
				z"/>
		</g>
		<g>
			<path class="st4" d="M452.2,582.9c-2.6-0.4-5.3-0.8-7.9-1.2c-2.6-0.4-5.3-0.8-7.9-1.2c-5.3-0.8-10.5-1.7-15.8-2.6
				c-5.2-0.9-10.5-1.8-15.7-2.8c-5.2-1-10.5-2-15.7-3l-0.8-0.2l-0.1-0.8c-0.2-2.2-0.5-4.4-1-6.6c-0.5-2.1-1.3-4.3-2.6-5.9
				c-0.3-0.4-0.7-0.7-1.1-1c-0.3-0.2-1-0.5-1.5-0.9c-1.1-0.8-1.8-1.9-2.3-3.1c-0.4-1.2-0.6-2.4-0.7-3.6c0-1.2,0-2.4,0.3-3.6l0.6,0.6
				l-10.3,1.6c-3.4,0.5-6.9,1-10.3,1.5c3.4-0.7,6.8-1.4,10.2-2.1l10.2-2.1l0.7-0.1l-0.1,0.8c-0.2,2.2-0.1,4.5,0.7,6.4
				c0.4,1,1,1.8,1.8,2.3c0.4,0.3,0.8,0.4,1.5,0.8c0.6,0.3,1.1,0.8,1.5,1.3c0.9,1,1.5,2.1,2,3.2c0.5,1.1,0.9,2.2,1.2,3.4
				c0.6,2.3,1,4.6,1.2,7l-0.8-1c5.2,1,10.5,1.9,15.7,3c5.2,1,10.4,2,15.7,3.1c5.2,1.1,10.4,2.1,15.6,3.3c2.6,0.5,5.2,1.2,7.8,1.7
				C447,581.6,449.6,582.2,452.2,582.9z"/>
		</g>
		<g>
			<path class="st3" d="M478.8,600.4l-93.7-25.8c0,0,0.7-19.4-23-20.8l-15.4,1.8l0.4,3.9l-2.2,5l3.6,5.7l-1.4,5l2.2,6.5l-0.7,4.3
				c0,0,14.3,7.9,23.7,2.2c2.2-1.3-1.4,0.4,12.2,5.5c21.7,8.2,65.3,25.4,65.3,25.4l11.5-2.9l10.4,2.5L478.8,600.4z"/>
		</g>
		<g>
			<path class="st4" d="M372.5,551.3c-3.7,0.1-7.4,0.2-11.1,0.3l-11.1,0.2l0.3-0.1l-3.5,2.9l0.2-0.5l0.1,5.7l0,0.1l0,0.1l-2.1,5.8
				l-0.1-0.7l4.4,5l0.3,0.4l-0.2,0.5l-2.1,5l0-0.7l2.9,5.7l0.1,0.1l0,0.2l0.8,5l-0.5-0.7c1.6,0.9,3.4,1.6,5.2,2.2
				c1.8,0.6,3.6,1.1,5.5,1.5c1.8,0.3,3.7,0.5,5.5,0.2c1.8-0.2,3.5-0.8,4.9-1.8l0.5-0.3l0.5,0.2l19.4,7.6l19.3,7.6
				c6.4,2.6,12.9,5.2,19.3,7.8l9.6,3.9l9.6,4l-0.2,0l6.8-0.9l6.8-0.9l-6.8,1.3l-6.8,1.2l-0.1,0l-0.1,0l-9.8-3.6l-9.7-3.6
				c-6.5-2.4-13-4.8-19.5-7.3l-19.4-7.4l-19.4-7.5l1-0.1c-1.8,1.3-3.9,2-5.9,2.2c-2.1,0.2-4.1,0.1-6.1-0.3c-2-0.4-3.9-0.9-5.8-1.6
				c-1.9-0.7-3.7-1.5-5.5-2.4l-0.4-0.2l-0.1-0.5l-0.7-5l0.1,0.3l-2.8-5.8l-0.2-0.4l0.2-0.4l2.2-5l0.1,0.9l-4.2-5.1l-0.3-0.3l0.2-0.4
				l2.2-5.7l0,0.2l0.1-5.7l0-0.3l0.2-0.2l3.6-2.8l0.1-0.1l0.2,0l11.1,0.2C365.1,551.1,368.8,551.2,372.5,551.3z"/>
		</g>
		<g>
			<polygon class="st3" points="374.1,612.2 409.2,602.5 371.4,619.1 359.4,616.8 			"/>
		</g>
		<g>
			<path class="st7" d="M452.9,612.3c3.2,0.8,6.4,1.7,9.5,2.6c1.6,0.5,3.2,0.9,4.7,1.4c1.6,0.5,3.1,1,4.7,1.5l-1.1,0.4
				c1.7-2.9,3.5-5.7,5.3-8.5c1.8-2.8,3.6-5.6,5.5-8.4c1.8-2.8,3.7-5.5,5.7-8.3c1.9-2.7,3.9-5.4,5.9-8.1c-1.5,3-3.2,5.9-4.8,8.8
				c-1.7,2.9-3.4,5.8-5.1,8.6c-1.7,2.9-3.5,5.7-5.3,8.5c-1.8,2.8-3.6,5.6-5.5,8.4l-0.4,0.6l-0.7-0.3c-1.5-0.6-3.1-1.1-4.6-1.7
				c-1.5-0.6-3.1-1.2-4.6-1.8C458.9,614.9,455.9,613.6,452.9,612.3z"/>
		</g>
		<g>
			<path class="st4" d="M366.1,560.6c0,0-23.7-2.9-7.2,1.4L366.1,560.6z"/>
		</g>
		<g>
			<path class="st4" d="M364.6,569.2c0,0-21.5-2.9-6.5,1.4L364.6,569.2z"/>
		</g>
		<g>
			<path class="st4" d="M365.4,577.8c0,0-21.5-2.9-6.5,1.4L365.4,577.8z"/>
		</g>
		<g>
			<path class="st4" d="M388.1,497.1c-0.4,0.5-0.7,1.1-0.9,1.7c-0.2,0.6-0.3,1.2-0.3,1.8c0.1,0.6,0.3,1.1,0.6,1.5
				c0.3,0.4,0.8,0.8,1.3,1.1c1,0.6,2.1,1,3.3,1.3c0.6,0.2,1.2,0.3,1.8,0.4c0.6,0.1,1.2,0.2,1.8,0.3c2.5,0.3,5,0.5,7.5,0.5
				c2.5,0.1,5.1,0.1,7.6,0c2.5,0,5.1-0.1,7.6-0.2c2.5-0.1,5.1-0.3,7.6-0.5l1.9-0.2c0.6-0.1,1.2-0.2,1.9-0.3c1.2-0.2,2.4-0.5,3.6-0.9
				c1.1-0.4,2.3-0.9,2.8-1.9c0.2-0.5,0.2-1.1,0-1.6c-0.2-0.6-0.6-1.1-1-1.6c0.6,0.3,1,0.8,1.4,1.4c0.4,0.6,0.6,1.3,0.4,2.1
				c-0.2,0.7-0.7,1.3-1.2,1.8c-0.5,0.4-1.1,0.8-1.7,1.1c-2.4,1.2-5,1.8-7.6,2.3c-5.1,1-10.3,1.2-15.5,1.4c-2.6,0-5.2,0-7.8-0.2
				c-2.6-0.2-5.2-0.5-7.8-1c-1.3-0.3-2.6-0.6-3.8-1.1c-1.2-0.5-2.5-1.1-3.6-2c-0.5-0.5-1-1-1.4-1.7c-0.3-0.7-0.5-1.4-0.4-2.1
				C386.3,499.1,387.2,498,388.1,497.1z"/>
		</g>
		<g>
			<path class="st3" d="M328.4,583.9l18.7-2.2l1.4,7.9c0,0,17.2,7.2,26.5,3.6l26.5,13.9l6.7-2.6l-36.2-16.3c0,0-6.5,5.7-22.2-2.2
				l-1.4-4.3l-1.4-3.6C347.1,578.2,339.2,576,328.4,583.9z"/>
		</g>
		<g>
			<polygon class="st3" points="452.2,569.2 457.2,569.2 452.2,580.7 447.8,581.4 			"/>
		</g>
		<g>
			<polygon class="st3" points="454.6,612.9 471.2,612.6 490.5,581.8 492.7,585.4 472.6,619.1 			"/>
		</g>
		<g>
			<path class="st4" d="M374.3,443.2l0.3,4.7l0.2,4.7l0.2,4.7c0.1,1.6,0.2,3.1,0.2,4.7l-0.1-0.4c1.7,3.4,4,6.7,6.5,9.7
				c2.5,3,5.4,5.7,8.4,8c1.5,1.2,3.1,2.3,4.8,3.2c1.7,1,3.4,1.8,5.1,2.6c1.8,0.7,3.6,1.4,5.4,1.9c0.5,0.1,0.9,0.2,1.4,0.3
				c0.5,0.1,0.9,0.2,1.4,0.3c0.9,0.1,1.8,0.3,2.7,0.3c0.9,0.1,1.8,0.1,2.8,0.1c0.5,0,0.9-0.1,1.4-0.1c0.2,0,0.5,0,0.7-0.1l0.7-0.1
				c1.8-0.3,3.6-0.8,5.4-1.5c3.5-1.4,6.8-3.4,9.8-5.8c6-4.9,11.3-10.9,15.5-17.5l-0.1,0.5c0.1-1.7,0.1-3.4,0.2-5.1l0.2-5.1l0.2-5.1
				c0.1-1.7,0.2-3.4,0.3-5.1h0.2l0,20.6l0,0l0,0c-2,3.5-4.4,6.7-6.9,9.8c-2.6,3.1-5.4,6-8.5,8.5c-3.1,2.5-6.5,4.7-10.3,6.2
				c-1.9,0.7-3.8,1.3-5.8,1.7l-0.7,0.1c-0.2,0-0.5,0.1-0.8,0.1c-0.5,0-1,0.1-1.5,0.1c-1,0-2,0.1-3,0c-2-0.1-4-0.6-5.9-1.1
				c-1.9-0.5-3.8-1.2-5.7-2c-1.8-0.8-3.6-1.7-5.3-2.8c-1.7-1.1-3.4-2.2-4.9-3.5c-3.1-2.5-6-5.4-8.5-8.5c-2.5-3.2-4.7-6.5-6.4-10.2
				l0,0l0,0l0-18.6H374.3z"/>
		</g>
		<g>
			<path class="st4" d="M378.5,452.5c-0.4-1.2-0.8-2.4-1.3-3.5c-0.5-1.2-1-2.3-1.5-3.4c-0.5-1.1-1.1-2.2-1.7-3.3
				c-0.6-1.1-1.3-2.1-1.9-3.1l-0.2-0.4l0.2-0.5c0.7-1.4,1.1-3.2,1.4-5c0.2-1.8,0.5-3.6,0.6-5.4c0.1-1.8,0.2-3.6,0.3-5.4
				c0-1.8,0.1-3.6,0-5.4l0,0.4c-0.2-0.7-0.2-1.2-0.3-1.8c-0.1-0.6-0.1-1.2-0.1-1.7c0-1.2,0.1-2.3,0.4-3.4c0.4-2.2,1.2-4.4,2.3-6.4
				c1.1-2,2.4-3.8,3.9-5.5c1.5-1.7,3.1-3.2,4.8-4.6l0.4-0.3l0.6,0c4.1-0.3,8.2-0.4,12.3-0.6c4.1-0.2,8.2-0.3,12.3-0.4
				c4.1,0,8.2-0.1,12.3,0c4.1,0.1,8.2,0.2,12.5,1l0.2,0l0.2,0.1c0.4,0.2,0.6,0.3,0.8,0.4c0.2,0.1,0.5,0.3,0.7,0.4
				c0.5,0.3,0.9,0.6,1.4,0.9c0.9,0.6,1.7,1.4,2.5,2.1c1.5,1.5,2.8,3.3,3.9,5.1c2.1,3.8,3,8,3.2,12.1c0,1,0,2.1,0,3.1c0,1,0,2,0,3
				c0,2,0.1,3.9,0.2,5.9c0.1,2,0.3,3.9,0.6,5.9c0.3,1.9,0.6,3.9,1.4,5.5l0.2,0.4l-0.2,0.3c-0.7,1-1.3,2-1.9,3.1
				c-0.6,1.1-1.2,2.2-1.7,3.3c-0.5,1.1-1,2.3-1.5,3.4c-0.5,1.2-0.9,2.3-1.2,3.5l-0.2-0.1c0.6-2.4,1.4-4.8,2.4-7.1
				c1-2.3,2.1-4.5,3.5-6.7l0,0.1c-1-1.8-1.4-3.8-1.8-5.7c-0.4-2-0.6-4-0.8-5.9c-0.2-2-0.3-4-0.4-6c-0.1-2-0.1-4-0.2-6
				c-0.2-4-1.2-7.9-3.2-11.3c-2-3.4-4.9-6.4-8.4-8.1l0,0c-2-0.3-4-0.5-6.1-0.6c-2-0.1-4.1-0.2-6.1-0.2c-4.1-0.1-8.2,0-12.3,0
				c-8.2,0.1-16.3,0.4-24.5,0.8l0.1,0c-1.7,1.3-3.2,2.7-4.6,4.3c-1.4,1.6-2.7,3.2-3.7,5.1c-1,1.8-1.8,3.8-2.3,5.8
				c-0.4,2-0.6,4.2-0.2,6.2l0,0l0,0c0,3.7-0.2,7.3-0.6,11c-0.2,1.8-0.4,3.6-0.8,5.4c-0.4,1.8-0.8,3.6-1.7,5.2l0-0.1
				c1.3,2.1,2.5,4.4,3.5,6.7c1,2.3,1.8,4.7,2.4,7.1L378.5,452.5z"/>
		</g>
		<g>
			<path class="st4" d="M401.6,453c1.3,1.1,2.8,2.1,4.2,2.9c1.5,0.7,3.1,1.3,4.7,1.3c0.8,0,1.6-0.1,2.4-0.3c0.8-0.2,1.5-0.5,2.3-0.9
				c1.5-0.8,2.8-1.9,4.1-3c-0.8,1.5-2,2.9-3.5,4c-1.5,1.1-3.4,1.7-5.3,1.6c-1.9-0.1-3.7-0.8-5.2-1.8
				C403.8,455.8,402.5,454.5,401.6,453z"/>
		</g>
		<g>
			<path class="st4" d="M403.1,441.7c-0.2,1.6-0.6,3.2-1.4,4.8c-0.4,0.8-0.8,1.5-1.4,2.2c-0.6,0.7-1.3,1.3-2.3,1.5
				c-0.2,0.1-0.5,0.1-0.7,0.1c-0.2,0-0.3,0-0.4,0.1c-0.1,0-0.1,0-0.1,0c0,0,0,0,0,0c0,0,0,0,0,0.1c0,0.2,0.1,0.6,0.3,0.9
				c0.2,0.3,0.4,0.7,0.6,1c0.4,0.7,0.9,1.3,1.4,1.9c0.5,0.6,1,1.3,1.5,1.9L400,456c1.4-0.2,2.8-0.4,4.2-0.5c-1.3,0.5-2.7,1-4,1.4
				l-0.2,0.1l-0.2-0.2c-1.2-1.1-2.4-2.3-3.4-3.7c-0.2-0.4-0.5-0.7-0.7-1.1c-0.2-0.4-0.4-0.8-0.5-1.4c0-0.3,0-0.7,0.3-1
				c0.1-0.2,0.3-0.3,0.4-0.4c0.1-0.1,0.3-0.2,0.5-0.2c0.3-0.1,0.6-0.1,0.8-0.1c0.2,0,0.3,0,0.5,0c0.6-0.1,1.2-0.5,1.7-1
				c0.5-0.5,1-1.1,1.4-1.8C401.7,444.6,402.4,443.2,403.1,441.7z"/>
		</g>
		<g>
			<path class="st4" d="M418.7,441.7c0.7,1.5,1.4,3,2.2,4.3c0.4,0.7,0.9,1.3,1.4,1.8c0.5,0.5,1.1,0.9,1.7,1c0.2,0,0.3,0,0.5,0
				c0.2,0,0.5,0,0.8,0.1c0.1,0,0.3,0.1,0.5,0.2c0.2,0.1,0.3,0.2,0.4,0.4c0.3,0.3,0.3,0.8,0.3,1c-0.1,0.6-0.3,1-0.5,1.4
				c-0.2,0.4-0.4,0.8-0.7,1.1c-1,1.4-2.1,2.5-3.4,3.7l-0.2,0.2l-0.2-0.1c-1.3-0.4-2.7-0.9-4-1.4c1.4,0.1,2.8,0.3,4.2,0.5l-0.4,0.1
				c0.5-0.6,1-1.2,1.5-1.9c0.5-0.6,1-1.3,1.4-1.9c0.2-0.3,0.4-0.6,0.6-1c0.2-0.3,0.3-0.7,0.3-0.9c0-0.1,0-0.1,0-0.1c0,0,0,0,0,0
				c0,0,0,0-0.1,0c-0.1,0-0.2,0-0.4-0.1c-0.3,0-0.5,0-0.7-0.1c-1-0.2-1.8-0.9-2.3-1.5c-0.6-0.7-1-1.4-1.4-2.2
				C419.4,444.9,418.9,443.3,418.7,441.7z"/>
		</g>
		<g>
			<path class="st4" d="M381.5,429.9c0.7-1,1.4-1.9,2.1-2.8c0.4-0.5,0.7-0.9,1.1-1.3c0.4-0.5,0.7-0.9,1.1-1.3l0.5-0.5l0.7,0.5
				c1.4,1.1,2.9,2.2,4.4,3.2c1.5,1,3,2,4.6,2.7c1.6,0.7,3.3,1.4,4.9,1.3c0.8,0,1.6-0.3,2.3-0.8c0.7-0.5,1.3-1.2,1.8-2
				c-0.2,0.9-0.6,1.9-1.2,2.6c-0.7,0.8-1.6,1.3-2.7,1.6c-1,0.2-2.1,0.2-3.1,0c-1-0.2-1.9-0.5-2.8-0.9c-1.8-0.8-3.5-1.8-5-2.9
				c-1.5-1.1-3-2.4-4.3-3.8l1.1,0c-0.4,0.4-0.9,0.8-1.3,1.1c-0.4,0.4-0.9,0.7-1.3,1.1C383.4,428.6,382.5,429.3,381.5,429.9z"/>
		</g>
		<g>
			<path class="st4" d="M441.3,429.9c-1-0.7-1.9-1.4-2.8-2.1c-0.5-0.4-0.9-0.7-1.3-1.1c-0.5-0.4-0.9-0.7-1.3-1.1l1.1,0
				c-1.3,1.4-2.8,2.6-4.3,3.8c-1.5,1.1-3.2,2.1-5,2.9c-0.9,0.4-1.9,0.7-2.8,0.9c-1,0.2-2,0.2-3.1,0c-1-0.2-2-0.8-2.7-1.6
				c-0.7-0.8-1-1.7-1.2-2.6c0.5,0.8,1.1,1.5,1.8,2c0.7,0.5,1.5,0.7,2.3,0.8c1.6,0.1,3.3-0.6,4.9-1.3c1.6-0.8,3.1-1.7,4.6-2.7
				c1.5-1,3-2.1,4.4-3.2l0.7-0.5l0.5,0.5c0.4,0.4,0.8,0.9,1.1,1.3c0.4,0.4,0.7,0.9,1.1,1.3C439.9,428,440.6,429,441.3,429.9z"/>
		</g>
		<g>
			<path class="st4" d="M397.2,467.2c2.1,1.5,4.3,2.7,6.6,3.6c2.3,0.9,4.7,1.4,7.1,1.4c1.2,0,2.4-0.1,3.6-0.4
				c0.6-0.1,1.2-0.3,1.8-0.4c0.3-0.1,0.6-0.2,0.9-0.3c0.3-0.1,0.6-0.2,0.9-0.3c2.3-0.9,4.5-2.2,6.7-3.6c-1.6,2.1-3.6,3.8-5.9,5.1
				c-1.2,0.7-2.4,1.2-3.7,1.5c-1.3,0.3-2.7,0.5-4,0.5c-2.7,0-5.4-0.8-7.8-2C400.8,471,398.7,469.3,397.2,467.2z"/>
		</g>
		<g>
			<path class="st4" d="M405,476c2.1,1.1,4.2,1.5,6.3,1.5c1.1-0.1,2.1-0.2,3.2-0.5c0.3,0,0.5-0.1,0.8-0.2l0.8-0.2
				c0.5-0.2,1.1-0.4,1.7-0.5c-0.4,0.4-0.9,0.8-1.3,1.1c-0.5,0.3-1,0.6-1.5,0.9c-1.1,0.5-2.3,0.8-3.5,0.9c-1.2,0-2.5-0.2-3.6-0.7
				C406.7,477.7,405.7,477,405,476z"/>
		</g>
		<g>
			<circle class="st4" cx="394.2" cy="433.8" r="2.9"/>
		</g>
		<g>
			<circle class="st4" cx="429" cy="434.3" r="2.9"/>
		</g>
		<g>
			<path class="st4" d="M384.4,439.7c0,0,2.9,8.8,8.8,3.9C393.3,443.7,389.3,443.7,384.4,439.7z"/>
		</g>
		<g>
			<path class="st4" d="M437.4,439.7c0,0-2.9,8.8-8.8,3.9C428.6,443.7,432.5,443.7,437.4,439.7z"/>
		</g>
		<g>
			<path class="st4" d="M395.2,463.3c2.7,0.6,5.4,1.1,8,1.4c2.7,0.4,5.4,0.6,8.1,0.6c2.7,0,5.4-0.2,8-0.6c1.3-0.2,2.6-0.6,3.9-1
				c1.3-0.4,2.5-0.9,3.8-1.5c-1.1,0.8-2.3,1.5-3.6,2.1c-1.3,0.6-2.6,1-3.9,1.4c-1.3,0.4-2.7,0.6-4.1,0.8c-1.4,0.1-2.8,0.2-4.2,0.2
				c-2.8-0.1-5.5-0.4-8.2-0.9C400.4,465.2,397.7,464.4,395.2,463.3z"/>
		</g>
		<g>
			<path class="st4" d="M447.7,448.1c1.6-0.9,3.1-2,4.3-3.3c1.4-1.1,2.6-2.5,3.6-4c1-1.5,1.8-3.1,2.5-4.8c0.6-1.7,1.1-3.5,1.3-5.2
				c0.2-1.8,0.2-3.6-0.2-5.3c-0.2-0.8-0.5-1.6-1-2.2c-0.1-0.1-0.3-0.3-0.4-0.4l-0.2-0.2l-0.3-0.1c-0.4-0.2-0.7-0.3-1.1-0.3
				c-1.5-0.1-3,1-4.1,2.4c-1.3,1.2-2.4,2.7-3.4,4.3c0.5-1.8,1.2-3.6,2.3-5.2c0.6-0.8,1.3-1.5,2.2-2c0.9-0.6,2-1,3.1-0.9
				c0.6,0,1.1,0.2,1.6,0.4l0.4,0.2l0.4,0.2c0.2,0.2,0.4,0.4,0.6,0.6c0.7,0.8,1.1,1.8,1.4,2.8c0.5,1.9,0.4,3.9,0.2,5.8
				c-0.2,1.9-0.7,3.8-1.4,5.6c-0.7,1.8-1.5,3.5-2.6,5.1c-1.1,1.6-2.3,3.1-3.8,4.3C451.3,446.9,449.5,447.7,447.7,448.1z"/>
		</g>
		<g>
			<path class="st4" d="M374,429.3c-1.1-1.6-2.3-3.2-3.7-4.5c-1.2-1.4-2.8-2.6-4.4-2.5c-0.8,0-1.6,0.4-2.2,0.9
				c-0.6,0.6-1,1.4-1.2,2.2c-0.5,1.8-0.5,3.7-0.2,5.6c0.5,3.8,2,7.4,4.2,10.5c1.1,1.5,2.4,2.9,3.9,4.1c1.4,1.3,2.9,2.5,4.7,3.4
				c-2-0.4-3.8-1.2-5.6-2.2c-1.6-1.2-3-2.7-4.2-4.4c-1.2-1.6-2.2-3.4-2.9-5.3c-0.7-1.9-1.3-3.8-1.6-5.8c-0.3-2-0.3-4.1,0.3-6.1
				c0.3-1,0.7-2,1.6-2.9c0.9-0.8,1.9-1.3,3.1-1.4c1.2-0.1,2.3,0.3,3.2,0.9c0.9,0.6,1.7,1.3,2.4,2.1
				C372.6,425.5,373.4,427.4,374,429.3z"/>
		</g>
		<g>
			<path d="M450.1,434.8c0,0,5.9-13.7,7.8-6.9c0,0-2-1-2.9,1c0,0,2.9,2,0,6.9c0,0,1-4.9-1-4.9s-3.9,15.7-3.9,15.7V434.8z"/>
		</g>
		<g>
			<path class="st3" d="M372.2,434.8c0,0-5.9-13.7-7.8-6.9c0,0,2-1,2.9,1c0,0-2.9,2,0,6.9c0,0-1-4.9,1-4.9s3.9,15.7,3.9,15.7V434.8z
				"/>
		</g>
		<g>
			<path class="st4" d="M373.7,428.9c-2.2-3.3-3.9-6.8-5.1-10.6c-1.2-3.8-2-7.8-1.7-11.9c0.2-2,0.7-4.1,1.7-6c1-1.8,2.5-3.4,4.3-4.5
				c1.8-1.1,3.7-1.8,5.7-2.1c0.5-0.1,1-0.2,1.5-0.2l1.5-0.1c1,0,2,0,2.9,0.1l-1.4,0.3c-0.5,0.1-1,0.1-1.4,0.3
				c-0.9,0.3-1.9,0.4-2.8,0.8c-0.4,0.2-0.9,0.3-1.3,0.5l-1.3,0.6c-0.4,0.2-0.8,0.5-1.2,0.7l-0.6,0.3l-0.5,0.4
				c-3,2.1-4.5,5.6-4.8,9.3c-0.2,1.8-0.1,3.7,0.1,5.6c0.2,1.9,0.6,3.7,1,5.6C371.1,421.6,372.3,425.3,373.7,428.9z"/>
		</g>
		<g>
			<path class="st4" d="M385.9,393.2c-1.1-1-2.1-2.1-2.9-3.3c-0.8-1.2-1.6-2.5-1.9-4.1c-0.1-0.8-0.1-1.6,0.3-2.4
				c0.3-0.8,1-1.4,1.7-1.8c1.4-0.8,2.9-1.1,4.4-1.3c3-0.3,6-0.1,8.9,0.2c3,0.3,5.8,0.9,8.7,1.3l17.4,2.6c1.5,0.2,2.9,0.5,4.4,0.8
				c1.5,0.3,2.9,0.6,4.4,1.1c0.7,0.2,1.5,0.5,2.2,0.9c0.7,0.4,1.5,0.9,2,1.7c0.6,0.8,0.8,1.7,0.9,2.6c0.1,0.9,0,1.7-0.1,2.4l-1-1.1
				c2,0.1,3.8,0.3,5.7,0.7c1.9,0.4,3.7,0.9,5.5,1.7c1.8,0.8,3.5,1.7,4.9,3c1.5,1.3,2.7,2.9,3.4,4.7c0.8,1.8,1,3.8,1,5.7
				c0,1.9-0.4,3.8-1,5.6c-1.1,3.6-2.8,6.9-4.8,10c1.7-3.3,3.2-6.7,4.1-10.2c0.4-1.8,0.7-3.6,0.6-5.4c0-1.8-0.4-3.6-1.1-5.1
				c-0.7-1.6-1.9-3-3.2-4.1c-1.4-1.1-2.9-2-4.6-2.6c-3.3-1.3-7-1.9-10.5-2l-1.1,0l0.1-1.1c0.2-1.4,0.1-2.7-0.5-3.5
				c-0.6-0.8-1.9-1.4-3.2-1.8c-2.7-0.8-5.6-1.2-8.5-1.7c-5.8-0.9-11.6-1.8-17.4-2.8l-4.3-0.8c-1.4-0.3-2.9-0.5-4.3-0.8
				c-2.9-0.4-5.8-0.7-8.6-0.6c-1.4,0.1-2.8,0.3-4,0.9c-0.6,0.3-1.1,0.7-1.4,1.3c-0.3,0.6-0.4,1.2-0.3,1.9c0.1,1.4,0.8,2.7,1.5,4
				C384.1,390.9,384.9,392.1,385.9,393.2z"/>
		</g>
		<g>
			<path d="M391.3,411.3c1.7,0.6,3.3,1.2,5,1.6c0.8,0.3,1.7,0.4,2.6,0.7c0.9,0.2,1.7,0.4,2.6,0.6c3.5,0.7,7,1.1,10.5,1.1
				c0.9,0,1.8,0.1,2.6,0l2.6-0.1c0.9,0,1.7-0.2,2.6-0.3c0.9-0.1,1.7-0.2,2.6-0.4l2.6-0.5l2.5-0.8l1.3-0.4l1.2-0.5l2.5-1l-2.4,1.1
				l-1.2,0.6l-1.2,0.5l-2.5,0.9l-2.6,0.6c-3.5,0.8-7,1.1-10.6,1c-3.6-0.1-7.1-0.5-10.6-1.3C397.9,413.9,394.5,412.8,391.3,411.3z"/>
		</g>
		<g>
			<path class="st4" d="M391.8,465.7c-0.3-0.6-0.3-1.3-0.3-2c0.1-0.7,0.3-1.4,0.6-2c0.4-0.6,0.9-1.1,1.6-1.4c0.3-0.2,0.6-0.3,1-0.4
				c0.3-0.1,0.7-0.1,1-0.1c-0.3,0.2-0.6,0.3-0.9,0.4c-0.3,0.2-0.6,0.3-0.8,0.5c-0.5,0.4-0.9,0.8-1.2,1.3
				C392.1,463.1,391.9,464.4,391.8,465.7z"/>
		</g>
		<g>
			<path class="st4" d="M430.9,465.7c-0.1-1.3-0.3-2.6-1-3.6c-0.3-0.5-0.7-1-1.2-1.3c-0.2-0.2-0.5-0.3-0.8-0.5
				c-0.3-0.2-0.6-0.3-0.9-0.4c0.3,0,0.7,0,1,0.1c0.3,0.1,0.7,0.2,1,0.4c0.6,0.3,1.2,0.8,1.6,1.4c0.4,0.6,0.6,1.3,0.6,2
				C431.3,464.4,431.2,465.1,430.9,465.7z"/>
		</g>
		<g>
			<path class="st3" d="M450.1,434.8c0,0,5.9-13.7,7.8-6.9c0,0-2-1-2.9,1c0,0,2.9,2,0,6.9c0,0,1-4.9-1-4.9s-3.9,15.7-3.9,15.7V434.8
				z"/>
		</g>
		<g>
			<path class="st4" d="M387.2,496.4l-14,4.8c-4.7,1.6-9.3,3.2-14,4.9c-4.7,1.6-9.3,3.3-13.9,5c-2.3,0.9-4.6,1.8-6.9,2.7
				c-2.2,0.9-4.5,1.9-6.5,3.1l0.2-0.1c-0.5,0.4-1,1-1.5,1.5c-0.5,0.6-0.9,1.1-1.4,1.7c-0.9,1.2-1.7,2.4-2.5,3.7
				c-1.5,2.6-2.7,5.3-3.7,8.1c-2,5.6-3,11.6-3.2,17.6c-0.3,6,0.4,12.1,1.5,18c0.3,1.5,0.6,3,0.9,4.5l1.1,4.4l1.3,4.4l1.5,4.3
				l-1.1-0.4c1.6-1,3.2-1.8,4.9-2.6c1.7-0.8,3.4-1.6,5.1-2.2c1.7-0.6,3.5-1.2,5.3-1.6c1.8-0.4,3.7-0.6,5.5-0.5
				c-1.8,0-3.6,0.4-5.4,0.9c-1.7,0.5-3.4,1.2-5.1,1.9c-1.7,0.7-3.3,1.6-4.9,2.5c-1.6,0.9-3.2,1.8-4.7,2.8l-0.8,0.5l-0.3-0.9
				l-1.7-4.3l-1.5-4.4l-1.3-4.5c-0.4-1.5-0.8-3-1.1-4.5c-0.3-1.5-0.7-3-0.9-4.6l-0.4-2.3l-0.3-2.3c-0.2-1.5-0.3-3.1-0.4-4.7
				c0-1.6-0.1-3.1-0.1-4.7c0-3.1,0.3-6.3,0.9-9.4c0.5-3.1,1.3-6.2,2.3-9.1c1.1-3,2.4-5.9,4-8.6c0.8-1.4,1.7-2.7,2.7-3.9
				c0.5-0.6,1-1.2,1.5-1.9c0.6-0.6,1.1-1.2,1.8-1.8l0.1-0.1l0.1,0c2.3-1.3,4.6-2.3,6.9-3.2c2.3-0.9,4.7-1.8,7-2.6
				c4.7-1.6,9.4-3.1,14.1-4.6c4.7-1.4,9.5-2.8,14.3-4.1C377.6,498.8,382.4,497.6,387.2,496.4z"/>
		</g>
		<g>
			<path class="st3" d="M453.5,543.1l45.3,5.3l-23.7,25.8c0,0-15.1-6.5-27.3-3.6L453.5,543.1z"/>
		</g>
		<g>
			<path class="st4" d="M433.3,496.4c4.8,1.2,9.6,2.5,14.3,3.9c4.8,1.4,9.5,2.7,14.2,4.2c4.7,1.5,9.5,2.9,14.1,4.6
				c2.3,0.8,4.7,1.7,7,2.6c2.3,0.9,4.6,1.8,6.9,3.2l0.1,0l0.1,0.1c1.3,1.2,2.3,2.3,3.3,3.6c1,1.3,1.9,2.6,2.7,3.9
				c1.7,2.7,3,5.6,4.1,8.5c1.1,3,1.8,6,2.4,9.1c0.6,3.1,0.9,6.2,0.9,9.4c0.1,1.6,0,3.1,0,4.7c-0.1,1.6-0.2,3.1-0.4,4.7l-0.3,2.3
				l-0.3,2.3c-0.2,1.5-0.6,3.1-0.8,4.6c-1.3,6.1-3.1,12.1-5.4,17.8l-0.6,1.6l-1.4-1.1c-3.2-2.5-6.7-4.8-10.3-6.9
				c-3.6-2-7.4-3.8-11.2-5.3c-3.9-1.4-7.9-2.6-12-3.1c-2-0.3-4.1-0.4-6.1-0.4c-2.1,0-4.1,0.2-6.1,0.5l-1.3,0.2l0.3-1.3l1.6-7.3
				l1.7-7.3l1.7-7.3c0.5-2.4,1.1-4.9,1.7-7.3c-0.4,2.5-0.7,4.9-1.2,7.4l-1.2,7.4l-1.2,7.4l-1.3,7.4l-1-1.1c2.1-0.4,4.3-0.6,6.4-0.7
				c2.2,0,4.3,0.1,6.4,0.3c4.3,0.5,8.4,1.6,12.5,3c4,1.4,7.9,3.2,11.7,5.3c3.7,2.1,7.3,4.3,10.8,7l-2,0.5c2.1-5.7,3.9-11.5,5.1-17.5
				c1.2-5.9,1.9-12,1.7-18c0-3-0.3-6-0.8-9c-0.5-3-1.2-5.9-2.2-8.7c-1-2.8-2.2-5.6-3.7-8.1c-0.7-1.3-1.6-2.5-2.5-3.7
				c-0.9-1.2-1.9-2.3-2.9-3.3l0.2,0.1c-2-1.2-4.2-2.2-6.5-3.1c-2.3-1-4.5-1.8-6.9-2.7c-4.6-1.7-9.2-3.4-13.9-5
				c-4.7-1.6-9.3-3.3-14-4.8L433.3,496.4z"/>
		</g>
		<g>
			<path class="st7" d="M447.4,582.1c0.1-1.2,0.4-2.3,0.7-3.4c0.3-1.1,0.6-2.2,1-3.3c0.4-1.1,0.8-2.1,1.3-3.2c0.5-1,1-2.1,1.7-3
				c-0.1,1.2-0.4,2.3-0.7,3.4c-0.3,1.1-0.6,2.2-1,3.3c-0.4,1.1-0.8,2.1-1.3,3.2C448.7,580.1,448.1,581.1,447.4,582.1z"/>
		</g>
		<g>
			<path class="st3" d="M423.6,576.9l13.2-2.6c0,0,0-14.2,6.7-17.6c6.7-3.3,0-7.9,0-7.9l8.7-0.3l-3.2,2.8l2.7,1.1l-4.2,18.2v1.1
				l4-1.1l-4,10.8L423.6,576.9z"/>
		</g>
		<g>
			<path class="st2" d="M332.7,520.5c0,0-20.1,21.2-4.3,61c0,0,11.1-6.5,14.7-6.1C343.1,575.3,326.3,543.4,332.7,520.5z"/>
		</g>
		<g>
			<path class="st2" d="M487.9,518.7c0,0,21.7,27.6,4.3,61c0,0-15.3-12.3-39.7-13C452.5,566.7,494.3,541.7,487.9,518.7z"/>
		</g>
		<g>
			<path class="st2" d="M384,499.9c0,0-2.3,6,3.3,7.3L335,518.7C335,518.7,353,507.3,384,499.9z"/>
		</g>
		<g>
			<path class="st2" d="M438.8,499.9c0,0,2.3,6-3.3,7.3l52.2,11.5C487.8,518.7,469.7,507.3,438.8,499.9z"/>
		</g>
		<g>
			<path class="st2" d="M449.9,539c0,0-25.3-2.8-39.8,11.3L449.9,539z"/>
		</g>
		<g>
			<path class="st2" d="M368.3,539.1c0,0,25.3-2.9,39.9,11.1L368.3,539.1z"/>
		</g>
	</g>
	<path class="st2" d="M564.9,542.3v0.3h-0.1c-4,0-8.1,0.1-12,0.2l-5.4,0.2c0.3,0,0.5,0,0.8,0L564.9,542.3z"/>
	<path class="st2" d="M546,543c-2.9,0.1-5,0.2-8.2,0.4v-0.2L546,543z"/>
	<path class="st4" d="M663.2,538.4c2.7,2.9,4.9,6.1,6.7,9.7c5,10.4,4.8,22.2-0.6,34c-4.9,10.9-12.9,18.8-22.9,23c-4.9,2-9.9,3-15,3
		c-5,0-10.2-1-15.4-3c-9.9-3.8-17.6-10.2-22.8-19.1c-1.1-1.9-2-3.8-2.8-5.7c-2.6,7.4-9.1,12-17.4,12c-1.3,0-2.7-0.1-4.2-0.3
		c-2.9-0.5-4.3-0.7-7.2-1l-11.7-1.5l0.3-3.3c-2.9,1.8-6.6,2.9-11.1,2.9c-0.3,0-0.6,0-0.9,0c-2.9-0.1-4.4-0.1-7.3-0.1H519l-0.1-3.2
		c-3,2.5-7,4-11.9,4.4c-3,0.3-4.4,0.5-7.3,0.8l-11.6,1.5l-5.6-32.6c-0.7,0.1-1.4,0.1-2.1,0.1c-8.3,0-14.9-5.1-16.8-13l-1.6-6.6
		l-0.3-0.1L447,488.3l11-4.2c10.2-3.9,15.5-5.6,26-8.7c2.7-0.8,5.5-1.2,8.2-1.2l-0.2-1.3l11.3-2.6c3.2-0.7,4.9-1.1,8.2-1.8
		c7.4-1.5,11.2-2.2,18.6-3.2c1.5-0.2,3-0.3,4.4-0.3c3.7,0,7.3,0.7,10.6,2.2c3.1-3.4,8-5.8,14.7-6.2c0.1,0,0.2,0,0.3,0
		c2.5-0.1,4.1-0.2,6.3-0.3c0.4,0,0.7,0,1.1,0l4.1-0.1c3-0.1,6.1-0.1,9.2-0.1h0.1c10.4,0,20.9,0.5,31.2,1.5c7.1,0.7,11.1,4,13.2,6.8
		c0.1,0.1,0.1,0.2,0.2,0.3c5.1-2.4,10.7-3.5,16.7-3.5c3.2,0,6.5,0.4,9.8,1.1c11.9,2.5,21,8.8,26.4,18.2c5.3,9.2,6,20.1,2.1,31.5
		C677,525.9,671.1,533.6,663.2,538.4z"/>
	<path class="st1" d="M484.9,512c0.9,3.2,1.3,4.7,2.2,7.9c0.9,3.3-0.9,5.5-5.4,6.7c-2.7,0.7-4.1,1.1-6.8,1.9
		c-4.2-12.3-8.4-24.5-12.6-36.8c9.9-3.8,14.9-5.4,25-8.4c4.4-1.3,8.3-0.9,11.8,1c3.5,1.9,5.5,4.8,6.1,8.5c0.6,3.7-0.4,7.2-2.7,10.6
		c-2.4,3.3-5.8,5.5-10.4,6.6C489.2,510.8,487.8,511.2,484.9,512z M479.8,494.1c1,3.5,1.5,5.3,2.5,8.8c1.7-0.5,2.5-0.7,4.2-1.2
		c4.1-1.2,5.9-3.2,5.1-6.2c-0.7-3-3.2-4-7.5-2.7C482.4,493.3,481.5,493.5,479.8,494.1z"/>
	<path class="st1" d="M541.1,498.1c2.9,3,4.3,4.5,7.1,7.7c1.9,1.8,2.8,3.6,2.8,5.1c0,1.6-0.8,3-2.3,4.3c-1.5,1.3-3.2,1.9-5,2
		c-1.8,0-3.6-0.9-5.7-2.7c-4.9-5.2-7.5-7.8-12.8-12.6c0.6,4.3,0.8,6.4,1.4,10.7c0.5,3.7-1.6,5.7-6.2,6.3c-2.8,0.4-4.1,0.6-6.9,1
		c-2.5-13.8-5-27.6-7.5-41.4c3.1-0.7,4.7-1.1,7.9-1.7c7.1-1.4,10.7-2.1,17.9-3.1c4.4-0.6,8.3,0.3,11.4,2.8c3.1,2.5,4.7,5.4,4.8,8.7
		C548.3,490.9,545.9,495.2,541.1,498.1z M522.9,483.9c0.5,3.9,0.8,5.9,1.3,9.8c1.7-0.3,2.6-0.4,4.3-0.6c4.2-0.6,6.2-2.5,5.9-5.8
		c-0.3-3.3-2.7-4.7-7-4.1C525.5,483.5,524.7,483.6,522.9,483.9z"/>
	<path class="st1" d="M567.8,510.7c-0.1,4-2.4,5.9-7,5.8c-2.8,0-4.2,0-6.9,0c-0.4-13.1-0.9-26.3-1.3-39.4c-0.1-3.9,2.5-6.1,7.8-6.4
		c3.2-0.2,4.8-0.3,8-0.4C568.2,483.8,568,497.3,567.8,510.7z"/>
	<path class="st1" d="M601.3,482.3c-1.4,12.3-2.2,18.5-3.6,30.8c-0.5,4.2-3,5.9-7.6,5.4c-2.7-0.3-4.1-0.5-6.9-0.7
		c0.8-12.1,1.7-24.2,2.5-36.4c-3.1-0.1-4.7-0.1-7.9-0.2c-4.2,0-6.2-1.8-6.1-5.5c0.1-2.2,0.1-3.3,0.1-5.5c12.9-0.4,26.1,0.1,38.9,1.4
		c4.3,0.4,6.2,2.6,5.6,6.5s-3,5.5-7.2,5C606,482.8,604.4,482.6,601.3,482.3z"/>
	<path class="st1" d="M509.8,540.1c1.2,11.6,1.8,17.4,3.1,29c0.4,3.9-1.9,6-7,6.5c-3.1,0.3-4.6,0.5-7.7,0.9
		c-2.3-13.4-3.5-20-5.8-33.4c-3.5,0.7-5.3,1.1-8.7,1.9c-4.7,1.1-7.4,0.1-8.1-3.2c-0.5-2-0.7-2.9-1.2-4.9c14.3-4,28.9-7,43.6-8.8
		c4.9-0.6,7.4,1,7.6,4.7c0.2,3.7-2.1,5.7-6.8,6.2C515.2,539.4,513.4,539.6,509.8,540.1z"/>
	<path class="st1" d="M668.9,509.8c-2.7,7.9-7.3,13.4-13.4,16.6c-6.1,3.3-12.5,3.7-19.5,1.7c-7-2-12.2-5.8-16-11.5
		c-3.8-5.7-5.2-12.2-3.9-19.8c1.3-7.6,4.9-13.4,11.1-17.4c6.2-3.9,13.7-5.2,22.2-3.4c8.5,1.8,14.7,6,18.3,12.3
		C671.3,494.7,671.5,501.9,668.9,509.8z M654.2,495c-1.6-3.1-4.3-5.1-8.2-6c-3.9-0.9-7.3-0.3-10.2,1.7c-2.9,2-4.7,4.9-5.5,8.6
		c-0.8,3.7-0.3,7,1.3,9.9c1.6,2.9,4.2,4.8,7.7,5.8c3.5,0.9,6.7,0.5,9.5-1.3c2.8-1.8,4.9-4.6,6-8.4C656,501.5,655.8,498.1,654.2,495z
		"/>
	<path class="st1" d="M546.3,568.4c-0.1,4.2-2.7,6.1-7.8,6c-3.1-0.1-4.6-0.1-7.6-0.1c-0.5-13.8-0.9-27.5-1.4-41.3
		c-0.1-4.1,2.8-6.4,8.9-6.8c3.7-0.2,5.5-0.3,9.1-0.4C547.1,540,546.7,554.2,546.3,568.4z"/>
	<path class="st1" d="M584.4,539.4c-2.1,13.1-3.1,19.7-5.2,32.8c-0.7,4.4-3.5,6.1-8.5,5.3c-3-0.5-4.5-0.7-7.5-1.1
		c1.3-12.9,2.5-25.7,3.8-38.6c-3.5-0.2-5.3-0.3-8.9-0.4c-4.7-0.1-7-2-6.9-5.9c0.1-2.3,0.1-3.5,0.2-5.8c14.8-0.2,29.5,0.7,44.2,2.6
		c4.9,0.7,6.9,3.1,6,7.2c-0.9,4.1-3.7,5.7-8.3,5C589.7,540,588,539.8,584.4,539.4z"/>
	<path class="st1" d="M658.2,574.6c-3.8,8.3-9.4,13.8-16.5,16.7c-7.1,2.9-14,2.8-21.4-0.1c-7.4-2.9-12.9-7.4-16.7-13.9
		c-3.8-6.5-5.1-13.6-3.2-21.7c1.8-8.1,6.1-14.2,13.4-18c7.2-3.8,15.9-4.7,25.4-2c9.5,2.7,16.2,7.9,19.8,15.2
		C662.4,558.3,662,566.3,658.2,574.6z M643.2,556.9c-1.5-3.5-4.5-6-8.7-7.3c-4.3-1.3-8.2-0.9-11.5,1c-3.4,1.9-5.6,4.9-6.7,8.9
		c-1.1,4-0.8,7.6,0.8,10.9c1.6,3.3,4.3,5.6,8.1,6.9c3.8,1.3,7.3,1.2,10.6-0.5c3.3-1.7,5.8-4.6,7.4-8.6
		C644.6,564.2,644.7,560.4,643.2,556.9z"/>
	<path class="st3" d="M457.8,492.1l3.3-1.3c9.9-3.8,15.1-5.5,25.3-8.5c2.1-0.6,4.1-0.9,6-0.9c3.1,0,5.9,0.7,8.6,2.2
		c4.4,2.4,7.1,6.3,7.9,11.1c0.7,4.6-0.4,9.1-3.4,13.3c-2.9,4-7,6.7-12.5,8.1c-1.5,0.4-2.5,0.6-3.6,0.9l1.2,4.3
		c0.8,2.9,0.1,5.1-0.6,6.4c-1.3,2.3-3.7,3.9-7.3,4.9c-2.7,0.7-4,1.1-6.7,1.9l-3.4,1L457.8,492.1z M484.8,500.8
		c0.2-0.1,0.5-0.1,0.7-0.2c2.8-0.8,2.7-1.4,2.6-1.8c-0.1-0.3-0.2-0.4-0.2-0.4c0,0,0,0,0,0c0,0-0.2,0-0.5,0c-0.4,0-1.1,0.1-2.2,0.4
		c-0.3,0.1-0.6,0.2-0.9,0.3L484.8,500.8z"/>
	<path class="st3" d="M501.8,478.1l3.4-0.8c3.1-0.7,4.8-1.1,8-1.7c7.2-1.5,10.9-2.1,18.1-3.2c1.1-0.2,2.2-0.2,3.2-0.2
		c4.2,0,7.9,1.3,11,3.8c3.8,3.1,6,7,6.2,11.3c0.3,5.5-1.5,10.1-5.1,13.6c1.4,1.5,2.6,2.8,4.3,4.8c2.5,2.5,3.8,5.1,3.8,7.7
		c0,1.8-0.6,4.6-3.6,7.1c-2.2,1.8-4.6,2.8-7.2,2.8l-0.1,0c-2.7,0-5.3-1.2-8.1-3.7l-0.1-0.1l-0.1-0.1c-2-2.2-3.6-3.8-5.2-5.4l0.1,0.6
		c0.3,2.1,0.4,9.2-9.3,10.4c-2.7,0.4-4.1,0.5-6.8,1l-3.5,0.5L501.8,478.1z M527.3,492c0.2,0,0.4-0.1,0.7-0.1
		c2.9-0.4,2.8-1.1,2.8-1.8c0-0.5-0.1-0.7-0.2-0.7c0,0-0.3-0.2-1.3-0.2c-0.4,0-0.9,0-1.4,0.1c-0.3,0-0.6,0.1-0.9,0.1L527.3,492z"/>
	<path class="st3" d="M548.9,479.7c-0.1-2.2,0.5-9.5,11.3-10.2c3.2-0.2,4.9-0.3,8.1-0.4l3.8-0.1l-0.7,44.2c-0.1,5.9-4,9.4-10.5,9.4
		l-0.3,0c-1.4,0-2.5,0-3.5,0c-1,0-2,0-3.3,0l-3.6,0L548.9,479.7z"/>
	<path class="st3" d="M591.6,524.7c-0.6,0-1.3,0-1.9-0.1c-2.7-0.3-4-0.5-6.8-0.7l-3.6-0.3l2.5-36.1c-1.2,0-2.4,0-4-0.1
		c-3.3,0-5.8-1-7.5-2.7c-1.6-1.6-2.3-3.8-2.3-6.5l0.2-8.9l3.5-0.1c3-0.1,6-0.1,9-0.1c10.2,0,20.4,0.5,30.4,1.5
		c3.3,0.3,5.7,1.5,7.3,3.5c1.5,1.9,2,4.3,1.5,7.2c-0.8,5.2-4.3,8.2-9.5,8.2c-0.5,0-1.1,0-1.7-0.1c-1.7-0.2-3-0.3-4.3-0.4l-3.2,27.3
		C600.7,521.5,597.1,524.7,591.6,524.7z"/>
	<path class="st3" d="M489.4,549.8c-1.5,0.3-2.9,0.6-5,1.1c-1.5,0.3-2.8,0.5-4,0.5c-4.4,0-7.5-2.3-8.5-6.4l-2-8.3l3.4-0.9
		c14.4-4,29.2-7,44.1-8.9c0.8-0.1,1.6-0.2,2.4-0.2c5.6,0,9.1,3.1,9.4,8.3c0.1,2.7-0.6,9-10.1,10c-2.2,0.2-3.7,0.4-5.3,0.6l2.7,25.4
		c0.3,2.7-0.3,4.9-1.8,6.7c-1.8,2.2-4.5,3.4-8.5,3.8c-3.1,0.3-4.5,0.5-7.5,0.9l-3.5,0.4L489.4,549.8z"/>
	<path class="st3" d="M644,535.4c-2.9,0-5.9-0.5-9-1.3c-7.8-2.3-13.7-6.5-18-13c-4.4-6.6-5.9-14.2-4.5-22.5
		c1.5-8.8,5.7-15.4,12.7-19.8c5-3.2,10.7-4.8,16.9-4.8c2.6,0,5.3,0.3,8.1,0.9c9.4,2,16.6,6.9,20.8,14.1c4.1,7.2,4.6,15.4,1.5,24.5
		c-2.9,8.6-8.1,14.9-15.2,18.7C653,534.3,648.5,535.4,644,535.4z M642.7,494.7c-1.8,0-3.3,0.5-4.7,1.4c-2.1,1.4-3.4,3.5-4,6.3
		c-0.6,2.8-0.3,5.2,0.9,7.4c1.2,2.1,2.9,3.3,5.5,4c0.9,0.2,1.8,0.4,2.6,0.4c1.4,0,2.7-0.4,4-1.2c2.1-1.4,3.6-3.5,4.5-6.4
		c0.9-2.9,0.7-5.4-0.4-7.6c-1.1-2.1-3-3.4-5.8-4.1C644.3,494.8,643.5,494.7,642.7,494.7z"/>
	<path class="st3" d="M538.3,580.5c-3-0.1-4.5-0.1-7.5-0.1h-3.5l-1.5-44.8c-0.1-3,0.9-9.9,12.4-10.5c3.7-0.2,5.6-0.3,9.3-0.4
		l3.9-0.1l-1.3,46.5c-0.1,2.9-1.3,9.5-10.9,9.5C538.8,580.5,538.6,580.5,538.3,580.5z"/>
	<path class="st3" d="M572.9,583.8c-0.9,0-1.8-0.1-2.8-0.2c-3-0.5-4.4-0.7-7.4-1.1l-3.5-0.5l3.7-38.3c-1.5-0.1-2.9-0.1-5-0.2
		c-3.6-0.1-6.4-1.1-8.2-3.1c-1.6-1.7-2.3-3.9-2.2-6.7l0.4-9.3l3.5,0c1.4,0,2.8,0,4.2,0c13.5,0,27.1,0.9,40.5,2.7
		c3.7,0.5,6.3,1.9,7.9,4.1c1,1.4,2,3.9,1.2,7.5c-1.1,5.1-4.7,8.1-9.9,8.1c-0.8,0-1.7-0.1-2.5-0.2c-2.2-0.3-3.7-0.5-5.3-0.8
		l-4.6,29.3C581.9,580.7,578.3,583.8,572.9,583.8z"/>
	<path class="st3" d="M631.4,599.5c-4,0-8.1-0.8-12.4-2.4c-8.2-3.1-14.3-8.2-18.5-15.4c-4.4-7.5-5.6-15.7-3.7-24.4
		c2.1-9.3,7.2-16.2,15.2-20.4c5-2.6,10.5-4,16.3-4c3.8,0,7.8,0.6,11.7,1.7c10.4,2.9,18.1,8.9,22.1,17.2c3.9,8.2,3.7,17.2-0.6,26.8
		c-4.1,9-10.3,15.3-18.4,18.6C639.3,598.7,635.3,599.5,631.4,599.5z M629.5,555c-1.8,0-3.3,0.4-4.8,1.3c-2.5,1.4-4.1,3.6-5,6.7
		c-0.9,3-0.7,5.7,0.6,8.3c1.2,2.5,3.1,4.1,6,5.1c1.3,0.5,2.5,0.7,3.7,0.7c1.4,0,2.7-0.3,4-1c2.6-1.3,4.4-3.5,5.6-6.7
		c1.2-3.2,1.3-6,0.2-8.5c-1.1-2.5-3.2-4.2-6.5-5.2C632,555.2,630.7,555,629.5,555z"/>
	<path class="st2" d="M486.1,512c0.9,3.2,1.3,4.7,2.2,7.9c0.9,3.3-0.9,5.5-5.4,6.7c-2.7,0.7-4.1,1.1-6.8,1.9
		c-4.2-12.3-8.4-24.5-12.6-36.8c9.9-3.8,14.9-5.4,25-8.4c4.4-1.3,8.3-0.9,11.8,1c3.5,1.9,5.5,4.8,6.1,8.5c0.6,3.7-0.4,7.2-2.7,10.6
		c-2.4,3.3-5.8,5.5-10.4,6.6C490.4,510.8,489,511.2,486.1,512z M481,494.1c1,3.5,1.5,5.3,2.5,8.8c1.7-0.5,2.5-0.7,4.2-1.2
		c4.1-1.2,5.9-3.2,5.1-6.2c-0.7-3-3.2-4-7.5-2.7C483.6,493.3,482.8,493.5,481,494.1z"/>
	<path class="st2" d="M542.3,498.1c2.9,3,4.3,4.5,7.1,7.7c1.9,1.8,2.8,3.6,2.8,5.1c0,1.6-0.8,3-2.3,4.3c-1.5,1.3-3.2,1.9-5,2
		c-1.8,0-3.6-0.9-5.7-2.7c-4.9-5.2-7.5-7.8-12.8-12.6c0.6,4.3,0.8,6.4,1.4,10.7c0.5,3.7-1.6,5.7-6.2,6.3c-2.8,0.4-4.1,0.6-6.9,1
		c-2.5-13.8-5-27.6-7.5-41.4c3.1-0.7,4.7-1.1,7.9-1.7c7.1-1.4,10.7-2.1,17.9-3.1c4.4-0.6,8.3,0.3,11.4,2.8c3.1,2.5,4.7,5.4,4.8,8.7
		C549.5,490.9,547.1,495.2,542.3,498.1z M524.1,483.9c0.5,3.9,0.8,5.9,1.3,9.8c1.7-0.3,2.6-0.4,4.3-0.6c4.2-0.6,6.2-2.5,5.9-5.8
		c-0.3-3.3-2.7-4.7-7-4.1C526.8,483.5,525.9,483.6,524.1,483.9z"/>
	<path class="st2" d="M569,510.7c-0.1,4-2.4,5.9-7,5.8c-2.8,0-4.2,0-6.9,0c-0.4-13.1-0.9-26.3-1.3-39.4c-0.1-3.9,2.5-6.1,7.8-6.4
		c3.2-0.2,4.8-0.3,8-0.4C569.4,483.8,569.2,497.3,569,510.7z"/>
	<path class="st2" d="M602.5,482.3c-1.4,12.3-2.2,18.5-3.6,30.8c-0.5,4.2-3,5.9-7.6,5.4c-2.7-0.3-4.1-0.5-6.9-0.7
		c0.8-12.1,1.7-24.2,2.5-36.4c-3.1-0.1-4.7-0.1-7.9-0.2c-4.2,0-6.2-1.8-6.1-5.5c0.1-2.2,0.1-3.3,0.1-5.5c12.9-0.4,26.1,0.1,38.9,1.4
		c4.3,0.4,6.2,2.6,5.6,6.5c-0.6,3.9-3,5.5-7.2,5C607.2,482.8,605.6,482.6,602.5,482.3z"/>
	<path class="st2" d="M511,540.1c1.2,11.6,1.8,17.4,3.1,29c0.4,3.9-1.9,6-7,6.5c-3.1,0.3-4.6,0.5-7.7,0.9c-2.3-13.4-3.5-20-5.8-33.4
		c-3.5,0.7-5.3,1.1-8.7,1.9c-4.7,1.1-7.4,0.1-8.1-3.2c-0.5-2-0.7-2.9-1.2-4.9c14.3-4,28.9-7,43.6-8.8c4.9-0.6,7.4,1,7.6,4.7
		c0.2,3.7-2.1,5.7-6.8,6.2C516.4,539.4,514.6,539.6,511,540.1z"/>
	<path class="st2" d="M670.1,509.8c-2.7,7.9-7.3,13.4-13.4,16.6c-6.1,3.3-12.5,3.7-19.5,1.7c-7-2-12.2-5.8-16-11.5
		c-3.8-5.7-5.2-12.2-3.9-19.8c1.3-7.6,4.9-13.4,11.1-17.4c6.2-3.9,13.7-5.2,22.2-3.4c8.5,1.8,14.7,6,18.3,12.3
		C672.5,494.7,672.8,501.9,670.1,509.8z M655.4,495c-1.6-3.1-4.3-5.1-8.2-6c-3.9-0.9-7.3-0.3-10.2,1.7c-2.9,2-4.7,4.9-5.5,8.6
		c-0.8,3.7-0.3,7,1.3,9.9c1.6,2.9,4.2,4.8,7.7,5.8c3.5,0.9,6.7,0.5,9.5-1.3c2.8-1.8,4.9-4.6,6-8.4C657.2,501.5,657,498.1,655.4,495z
		"/>
	<path class="st2" d="M547.5,568.4c-0.1,4.2-2.7,6.1-7.8,6c-3.1-0.1-4.6-0.1-7.6-0.1c-0.5-13.8-0.9-27.5-1.4-41.3
		c-0.1-4.1,2.8-6.4,8.9-6.8c3.7-0.2,5.5-0.3,9.1-0.4C548.3,540,547.9,554.2,547.5,568.4z"/>
	<path class="st2" d="M585.6,539.4c-2.1,13.1-3.1,19.7-5.2,32.8c-0.7,4.4-3.5,6.1-8.5,5.3c-3-0.5-4.5-0.7-7.5-1.1
		c1.3-12.9,2.5-25.7,3.8-38.6c-3.5-0.2-5.3-0.3-8.9-0.4c-4.7-0.1-7-2-6.9-5.9c0.1-2.3,0.1-3.5,0.2-5.8c14.8-0.2,29.5,0.7,44.2,2.6
		c4.9,0.7,6.9,3.1,6,7.2c-0.9,4.1-3.7,5.7-8.3,5C590.9,540,589.2,539.8,585.6,539.4z"/>
	<path class="st2" d="M659.4,574.6c-3.8,8.3-9.4,13.8-16.5,16.7c-7.1,2.9-14,2.8-21.4-0.1c-7.4-2.9-12.9-7.4-16.7-13.9
		c-3.8-6.5-5.1-13.6-3.2-21.7c1.8-8.1,6.1-14.2,13.4-18c7.2-3.8,15.9-4.7,25.4-2c9.5,2.7,16.2,7.9,19.8,15.2
		C663.6,558.3,663.2,566.3,659.4,574.6z M644.4,556.9c-1.5-3.5-4.5-6-8.7-7.3c-4.3-1.3-8.2-0.9-11.5,1c-3.4,1.9-5.6,4.9-6.7,8.9
		c-1.1,4-0.8,7.6,0.8,10.9c1.6,3.3,4.3,5.6,8.1,6.9c3.8,1.3,7.3,1.2,10.6-0.5c3.3-1.7,5.8-4.6,7.4-8.6
		C645.8,564.2,645.9,560.4,644.4,556.9z"/>
</g>
</svg>
