<?xml version="1.0" encoding="utf-8"?>
<!-- Generator: Adobe Illustrator 22.0.0, SVG Export Plug-In . SVG Version: 6.00 Build 0)  -->
<svg version="1.1" id="Layer_1" xmlns="http://www.w3.org/2000/svg" xmlns:xlink="http://www.w3.org/1999/xlink" x="0px" y="0px"
	 viewBox="0 0 1000 1000" style="enable-background:new 0 0 1000 1000;" xml:space="preserve">
<style type="text/css">
	.st0{fill:#EF4748;}
	.st1{fill:#FFFFFF;}
	.st2{fill:#F7BB22;}
	.st3{fill:#ED302B;}
	.st4{fill:#623412;}
	.st5{opacity:7.000000e-02;}
	.st6{fill:#070808;}
	.st7{fill:#020202;}
	.st8{fill:none;stroke:#020202;stroke-miterlimit:10;}
	.st9{fill:none;stroke:#000000;stroke-miterlimit:10;}
	.st10{fill:none;stroke:#020202;stroke-width:2;stroke-miterlimit:10;}
	.st11{fill:url(#);}
	.st12{fill:url(#SVGID_1_);}
	.st13{fill:#161C3A;}
	.st14{fill:url(#SVGID_2_);}
	.st15{fill:#402312;}
	.st16{fill:#FAAF3A;}
	.st17{fill:#F4EB48;}
	.st18{fill:#848133;}
	.st19{fill:#BFAF78;}
	.st20{fill:#8F783F;}
	.st21{fill:#F6E6BE;}
	.st22{fill:#E2C920;}
	.st23{fill:#EC1C29;}
	.st24{fill:#B92025;}
	.st25{fill:#F48A80;}
	.st26{fill:#2E4925;}
</style>
<rect x="0" class="st13" width="1000" height="1000"/>
<linearGradient id="SVGID_1_" gradientUnits="userSpaceOnUse" x1="353" y1="500" x2="647" y2="500">
	<stop  offset="0" style="stop-color:#FCF0AA"/>
	<stop  offset="1" style="stop-color:#A87745"/>
</linearGradient>
<path class="st12" d="M512.9,630.5c-0.5,0-0.9-0.1-1.4-0.4c-0.8-0.6-1.2-1.7-0.8-2.7c6.5-16.1,9-33.6,7.3-50.7
	c-1.8-17.4-7.9-34.5-17.8-49.5c-0.5-0.8-0.5-1.9,0.1-2.7c0.6-0.8,1.7-1.1,2.6-0.7c7.1,2.6,24.5,10.7,33,28.9
	c2.8,6.1,4.3,12.9,4.4,19.7c4.9-4.1,12.6-12.6,12.8-24.9c0.1-10.8-5.4-21.1-14.5-27c-6.4-4.2-13-5-19.9-5.8
	c-9.1-1.1-18.4-0.5-27.5,1.8c-0.9,0.2-1.8-0.1-2.4-0.8c-0.6-0.7-0.6-1.7-0.2-2.5l7.5-13.3l-71.9-34.1c-1.1-0.5-1.6-1.9-1.1-3
	c0.5-1.1,1.9-1.6,3-1.1l74.1,35.1c0.6,0.3,1,0.8,1.2,1.4c0.2,0.6,0.1,1.3-0.2,1.8l-6.2,10.9c8-1.5,16-1.8,24-0.8
	c7.1,0.9,14.5,1.8,21.9,6.5c10.4,6.7,16.7,18.6,16.5,30.9c-0.2,19.4-16.7,30.3-18.6,31.5c-0.7,0.5-1.7,0.5-2.4,0
	c-0.7-0.5-1.2-1.3-1.1-2.2c0.7-7.7-0.7-15.4-3.8-22.3c-5.7-12.4-16.1-19.7-23.8-23.6c8,14,13.1,29.5,14.7,45.3
	c1.5,14.9-0.1,30.1-4.6,44.5c4.6-4.3,8.8-8.8,12.6-13.6c5-6.3,9.5-13,13.2-20c0.3-0.6,0.9-1.1,1.6-1.2c2.9-0.5,5.6-1.3,8.3-2.3
	c2.7-1.1,5.3-2.5,7.6-4.1c1-0.7,2.5-0.5,3.2,0.6c0.7,1,0.5,2.5-0.6,3.2c-2.6,1.8-5.5,3.3-8.5,4.6c-2.6,1-5.3,1.8-8.1,2.4
	c-3.8,6.9-8.2,13.5-13.2,19.7c-5.8,7.3-12.5,14-19.9,20.1C514,630.3,513.5,630.5,512.9,630.5z M443.1,447.9
	c-15.5-1.2-27.1,4.7-31.2,7.1c-0.3,0.2-0.6,0.2-0.9,0c-15-8.3-33.9-17-50-25.3c-1-0.5-2,0.9-1,1.6c7.7,5.9,18.8,12.6,29.3,18.4
	c9.5,5.3,18.5,8.7,25.9,11c0.3,0.1,0.5,0,0.8-0.1c4.1-2.5,10.3-5.6,18.5-7.2c9.7-1.9,18.3-1.1,24.7,0.4c1.1,0.3,1.7-1.4,0.6-1.8
	C455.3,450.2,449.7,448.5,443.1,447.9z M525.2,486.9c1-0.1,1.9-0.8,2.1-1.9c0.9-4.6,7.5-13.4,12.9-20.4c1.8-2.4,3.5-4.7,5-6.7
	l1.9,15.2c0.2,1.3,1.3,2.2,2.6,2c1.3-0.2,2.1-1.3,2-2.6l-2.7-21.6c-0.1-1-0.9-1.8-1.9-2c-1-0.2-2,0.4-2.4,1.3
	c-1.1,2.4-4.5,6.8-8,11.5c-4.3,5.6-8.7,11.4-11.3,16.3c-4.7-12-13.5-26.8-29.5-37.7c-7.9-5.4-20.4-11.5-53.5-15.8
	c-24.2-3.2-49.2-4-74.4-2.5c13.3-5.7,27.1-10.1,41.3-13c58.3-12.2,109.5,1.6,142.2,15.3c1.2,0.5,2.5-0.1,3-1.2
	c0.5-1.2-0.1-2.5-1.2-3c-33.3-14-85.4-28-144.9-15.5c-18.6,3.9-36.7,10.2-53.8,18.7c-1,0.5-1.5,1.6-1.2,2.7c0.3,1.1,1.3,1.8,2.4,1.7
	c29.2-2.6,58.1-2.1,86.1,1.5c32.2,4.2,44.1,10,51.6,15c17.6,12,25.9,28.9,29.8,41c0.3,1,1.2,1.6,2.2,1.6
	C525.1,486.9,525.2,486.9,525.2,486.9z M606.5,473.6c1.1-0.7,1.3-2.1,0.6-3.2c-7.3-11-14.5-22.2-21.5-33.2
	c-13.2-20.7-15.7-25.7-17.2-33.1c-2-10.1-0.9-20.6,3.3-31.4c0.3-0.9,0.1-1.8-0.5-2.5c-0.7-0.6-1.6-0.8-2.5-0.5
	c-8.4,3.4-16.3,7.9-23.4,13.2c-8.4,6.3-15.5,13.7-21.4,22.1c-0.7,1-0.5,2.5,0.6,3.2c1,0.7,2.5,0.5,3.2-0.6
	c5.6-8,12.4-15.1,20.4-21.1c5.4-4.1,11.4-7.6,17.7-10.6c-3,9.9-3.6,19.6-1.7,28.9c1.7,8.6,5.1,14.6,17.8,34.7
	c7,11.1,14.3,22.3,21.6,33.3c0.4,0.7,1.2,1,1.9,1C605.7,473.9,606.1,473.8,606.5,473.6z M614.2,495.2c6.6-1.9,11.2-3.2,15.6-4.4
	c4.4-1.3,8.9-2.6,15.5-4.4c1-0.3,1.7-1.3,1.7-2.3c-0.1-1.1-0.9-2-1.9-2.1c-27.7-4.5-55.2-4.2-81.7,0.7c-7.2,1.3-14.4,3.1-21.5,5.1
	c-1.2,0.3-1.9,1.6-1.6,2.8c0.3,1.2,1.6,1.9,2.8,1.6c6.9-2,14-3.7,21.1-5c22.6-4.2,45.9-4.9,69.4-2.2c-1.8,0.5-3.4,1-5.1,1.5
	c-4.4,1.3-8.9,2.6-15.5,4.4c-1.2,0.3-1.9,1.6-1.6,2.8c0.3,1,1.2,1.7,2.2,1.7C613.8,495.3,614,495.3,614.2,495.2z M560.8,512.7
	 M541.2,484 M440.5,428.4l7,7.1c1.2,1.2,3.2,0.3,3.1-1.4l-0.3-6.3c0-0.9-0.7-1.6-1.6-1.7l-6.7-0.8
	C440.3,425.1,439.3,427.1,440.5,428.4z M595.8,576.5c0-1.3-0.9-2.3-2.2-2.4l-13.9-0.5c10.2-11.2,14.5-26.4,10.9-40.1
	c-5.5-20.9-27.2-34.6-50.5-31.7c-1.3,0.2-2.1,1.3-2,2.6c0.2,1.3,1.3,2.2,2.6,2c20.7-2.6,40.7,9.8,45.5,28.3
	c3.6,13.6-1.7,29.1-13.4,39.3c-0.7,0.6-1,1.6-0.6,2.5c0.3,0.9,1.1,1.5,2.1,1.5l19.2,0.8c0,0,0.1,0,0.1,0
	C594.7,578.7,595.7,577.7,595.8,576.5z M602,567.2c2.9-6.6,5.1-13.6,6.5-20.6c3.6-17.1,3-34.7-1.9-52.4c-0.2-0.6-0.6-1.1-1.1-1.4
	c-0.5-0.3-1.2-0.4-1.8-0.2c-2.4,0.8-3.5,1.1-4.5,1.4c-1.1,0.3-2.2,0.6-4.6,1.4c-1.2,0.4-1.9,1.7-1.5,2.9c0.4,1.2,1.7,1.9,2.9,1.5
	c2.4-0.8,3.5-1.1,4.5-1.4c0.7-0.2,1.3-0.4,2.3-0.7c4.1,16.1,4.5,32.3,1.2,47.9c-1.4,6.7-3.5,13.3-6.3,19.7c-0.5,1.2,0,2.5,1.2,3
	c0.3,0.1,0.6,0.2,0.9,0.2C600.8,568.6,601.6,568.1,602,567.2z"/>
</svg>
