<?xml version="1.0" encoding="utf-8"?>
<!-- Generator: Adobe Illustrator 22.0.0, SVG Export Plug-In . SVG Version: 6.00 Build 0)  -->
<svg version="1.1" id="Layer_1" xmlns="http://www.w3.org/2000/svg" xmlns:xlink="http://www.w3.org/1999/xlink" x="0px" y="0px"
	 viewBox="0 0 1000 1000" style="enable-background:new 0 0 1000 1000;" xml:space="preserve">
<style type="text/css">
	.st0{fill:none;}
	.st1{fill:#589943;}
	.st2{fill:#EF4748;}
	.st3{fill:#FFFFFF;}
	.st4{fill:#F7BB22;}
	.st5{fill:#ED302B;}
	.st6{fill:#623412;}
	.st7{opacity:7.000000e-02;}
	.st8{fill:#070808;}
	.st9{fill:#020202;}
	.st10{fill:none;stroke:#020202;stroke-miterlimit:10;}
	.st11{fill:none;stroke:#000000;stroke-miterlimit:10;}
	.st12{fill:none;stroke:#020202;stroke-width:2;stroke-miterlimit:10;}
	.st13{fill:url(#SVGID_1_);}
	.st14{fill:url(#SVGID_2_);}
	.st15{fill:#161C3A;}
	.st16{fill:url(#SVGID_3_);}
	.st17{fill:#402312;}
	.st18{fill:#FAAF3A;}
	.st19{fill:#F4EB48;}
	.st20{fill:#848133;}
	.st21{fill:#BFAF78;}
	.st22{fill:#8F783F;}
	.st23{fill:#F6E6BE;}
	.st24{fill:#E2C920;}
	.st25{fill:#EC1C29;}
	.st26{fill:#B92025;}
	.st27{fill:#F48A80;}
	.st28{fill:#2E4925;}
</style>
<pattern  x="-2148" width="60.4" height="60.4" patternUnits="userSpaceOnUse" id="New_Pattern_Swatch_3" viewBox="0 -60.4 60.4 60.4" style="overflow:visible;">
	<g>
		<rect y="-60.4" class="st0" width="60.4" height="60.4"/>
		<g>
			<rect y="-60.4" class="st1" width="60.4" height="60.4"/>
		</g>
	</g>
</pattern>
<pattern  id="SVGID_1_" xlink:href="#New_Pattern_Swatch_3" patternTransform="matrix(1 0 0 1 445.8926 99.3971)">
</pattern>
<rect class="st13" width="1000" height="1000"/>
<g>
	<g>
		<path class="st3" d="M299.5,534.2L299.5,534.2c-0.7,0-1.3-0.6-1.3-1.3l0-24.7c-0.1-0.9-0.3-10.8,12.1-15.8
			c2.3-0.9,5.1-2.7,5.1-5.5c0-3.3-3.6-6.8-7.1-8.3c-3.7-1.5-7.4-1.4-9.9,0.3c-2.8,2-4.2,6.1-4,11.9c0,0.7-0.5,1.3-1.2,1.3
			c-0.7,0-1.3-0.5-1.3-1.2c-0.4-8.5,2.6-12.4,5.1-14.1c3.2-2.2,7.8-2.5,12.3-0.6c4.2,1.7,8.7,6.1,8.6,10.6c0,2.3-1.2,5.6-6.7,7.8
			c-11,4.4-10.6,13-10.5,13.3l0,0.1l0,24.7C300.8,533.6,300.2,534.2,299.5,534.2z"/>
	</g>
	<g>
		<path class="st3" d="M295.2,535.2c-19.1,0-34.8-15.3-35.1-34.5c-0.4-19.4,15.1-35.5,34.4-35.9c19.4-0.4,35.5,15.1,35.9,34.4l0,0
			c0.4,19.4-15.1,35.5-34.4,35.9C295.7,535.2,295.5,535.2,295.2,535.2z M295.2,468.7c-0.2,0-0.4,0-0.6,0c-17.3,0.3-31,14.7-30.7,32
			c0.3,17.3,14.7,31,32,30.7c17.3-0.3,31-14.7,30.7-32l0,0C326.2,482.3,312.2,468.7,295.2,468.7z"/>
	</g>
	<g>
		<path class="st3" d="M295,518.6c-0.5,0-1-0.3-1.2-0.8c0-0.1-2.7-5.8-14.4-8.1c-6.4-1.3-10.8-4.5-11.6-8.6c-0.6-3,0.8-6,3.8-8
			c3.8-2.6,10.5-3.9,15.8-1.5c3.1,1.4,7.1,4.6,8.3,12.2c0.1,0.7-0.4,1.4-1.1,1.5c-0.7,0.1-1.4-0.4-1.5-1.1
			c-0.8-5.2-3.1-8.6-6.8-10.2c-4.5-2-10.1-0.8-13.4,1.3c-2.1,1.4-3.1,3.3-2.7,5.3c0.6,3.1,4.2,5.6,9.6,6.6
			c13.3,2.6,16.2,9.3,16.3,9.6c0.3,0.7,0,1.4-0.7,1.7C295.3,518.6,295.1,518.6,295,518.6z"/>
	</g>
	<g>
		<path class="st3" d="M293.3,509.4c-0.2,0-0.4-0.1-0.5-0.3c-7.8-11.4-17.4-9.4-17.8-9.3c-0.3,0.1-0.7-0.1-0.8-0.5
			c-0.1-0.3,0.1-0.7,0.5-0.8c0.1,0,10.8-2.3,19.1,9.9c0.2,0.3,0.1,0.7-0.2,0.9C293.5,509.3,293.4,509.4,293.3,509.4z"/>
	</g>
	<g>
		<path class="st3" d="M297.4,500.6C297.4,500.6,297.4,500.6,297.4,500.6c-0.4-0.1-0.7-0.4-0.6-0.7c0.1-0.7,2.5-16.7,10.1-18.2
			c0.3-0.1,0.7,0.2,0.8,0.5c0.1,0.3-0.2,0.7-0.5,0.8c-6.7,1.4-9.1,17-9.1,17.2C298,500.4,297.7,500.6,297.4,500.6z"/>
	</g>
	<g>
		<path class="st3" d="M352.7,532.1c-0.8,0-1.5-0.3-2.2-0.9c-0.6-0.6-0.9-1.3-0.9-2.2v-29.2c0-5.1,1.8-9.4,5.4-12.9
			c3.6-3.6,7.9-5.3,12.9-5.3s9.4,1.8,13,5.4s5.4,7.9,5.4,13s-1.8,9.4-5.4,13s-7.9,5.4-13,5.4c-4.6,0-8.7-1.5-12.1-4.6v15.4
			c0,0.8-0.3,1.5-0.9,2.2c-0.6,0.6-1.3,0.9-2.2,0.9H352.7z M376.5,508.5c2.4-2.4,3.6-5.2,3.6-8.6c0-3.4-1.2-6.2-3.6-8.6
			c-2.4-2.4-5.2-3.5-8.6-3.5s-6.2,1.2-8.6,3.5c-2.4,2.4-3.5,5.2-3.5,8.6c0,3.3,1.2,6.2,3.5,8.6c2.4,2.4,5.2,3.6,8.6,3.6
			S374.2,510.9,376.5,508.5z"/>
		<path class="st3" d="M403.4,467.9c0.8,0,1.5,0.3,2.2,0.9c0.6,0.6,0.9,1.3,0.9,2.2v44.4c0,0.9-0.3,1.6-0.9,2.2
			c-0.6,0.6-1.3,0.9-2.2,0.9h-0.1c-0.8,0-1.5-0.3-2.2-0.9c-0.6-0.6-0.9-1.3-0.9-2.2v-44.4c0-0.9,0.3-1.6,0.9-2.2
			c0.6-0.6,1.3-0.9,2.2-0.9H403.4z"/>
		<path class="st3" d="M452.7,487c3.6,3.6,5.4,7.9,5.4,13v15.3c0,0.9-0.3,1.6-0.9,2.2c-0.6,0.6-1.3,0.9-2.2,0.9h-0.1
			c-0.8,0-1.5-0.3-2.2-0.9c-0.6-0.6-0.9-1.3-0.9-2.2v-1.5c-3.5,3.1-7.5,4.6-12.1,4.6c-5.1,0-9.4-1.8-13-5.4s-5.4-7.9-5.4-13
			s1.8-9.4,5.4-13s7.9-5.4,13-5.4S449.1,483.4,452.7,487z M431.1,491.4c-2.4,2.4-3.5,5.2-3.5,8.6c0,3.4,1.2,6.2,3.5,8.6
			c2.4,2.4,5.2,3.5,8.6,3.5c3.4,0,6.2-1.2,8.6-3.5c2.4-2.4,3.6-5.2,3.6-8.6c0-3.3-1.2-6.2-3.6-8.6c-2.4-2.4-5.2-3.6-8.6-3.6
			C436.4,487.9,433.5,489,431.1,491.4z"/>
		<path class="st3" d="M477.9,515.3c0,0.9-0.3,1.6-0.9,2.2c-0.6,0.6-1.3,0.9-2.2,0.9h-0.1c-0.8,0-1.5-0.3-2.2-0.9
			c-0.6-0.6-0.9-1.3-0.9-2.2v-18.4c0-4.2,1.5-7.8,4.5-10.8s6.6-4.5,10.8-4.5c4.2,0,7.8,1.5,10.8,4.5s4.5,6.6,4.5,10.8v18.4
			c0,0.9-0.3,1.6-0.9,2.2c-0.6,0.6-1.3,0.9-2.2,0.9H499c-0.9,0-1.6-0.3-2.2-0.9c-0.6-0.6-0.9-1.3-0.9-2.2v-18.4
			c0-2.5-0.9-4.6-2.6-6.4c-1.8-1.8-3.9-2.7-6.4-2.7c-2.5,0-4.6,0.9-6.4,2.7c-1.7,1.8-2.6,3.9-2.6,6.4V515.3z"/>
		<path class="st3" d="M518.9,467.9c0.8,0,1.5,0.3,2.2,0.9c0.6,0.6,0.9,1.3,0.9,2.2v10.7h6c0.8,0,1.5,0.3,2.2,0.9
			c0.6,0.6,0.9,1.3,0.9,2.2v0.1c0,0.9-0.3,1.6-0.9,2.2c-0.6,0.6-1.3,0.9-2.2,0.9h-6v20.9c0,0.9,0.3,1.7,1,2.4c0.6,0.6,1.4,1,2.4,1
			h2.7c0.8,0,1.5,0.3,2.2,0.9c0.6,0.6,0.9,1.3,0.9,2.2v0.1c0,0.9-0.3,1.6-0.9,2.2c-0.6,0.6-1.3,0.9-2.2,0.9h-2.7
			c-2.6,0-4.9-0.9-6.8-2.8c-1.9-1.9-2.8-4.1-2.8-6.8v-37.9c0-0.9,0.3-1.6,0.9-2.2c0.6-0.6,1.3-0.9,2.2-0.9H518.9z"/>
		<path class="st3" d="M545.7,532.1c-0.8,0-1.5-0.3-2.2-0.9c-0.6-0.6-0.9-1.3-0.9-2.2v-29.2c0-5.1,1.8-9.4,5.4-12.9
			c3.6-3.6,7.9-5.3,12.9-5.3s9.4,1.8,13,5.4s5.4,7.9,5.4,13s-1.8,9.4-5.4,13s-7.9,5.4-13,5.4c-4.6,0-8.7-1.5-12.1-4.6v15.4
			c0,0.8-0.3,1.5-0.9,2.2c-0.6,0.6-1.3,0.9-2.2,0.9H545.7z M569.6,508.5c2.4-2.4,3.6-5.2,3.6-8.6c0-3.4-1.2-6.2-3.6-8.6
			c-2.4-2.4-5.2-3.5-8.6-3.5s-6.2,1.2-8.6,3.5c-2.4,2.4-3.5,5.2-3.5,8.6c0,3.3,1.2,6.2,3.5,8.6c2.4,2.4,5.2,3.6,8.6,3.6
			S567.2,510.9,569.6,508.5z"/>
		<path class="st3" d="M595.1,467.9c0.8,0,1.5,0.3,2.2,0.9c0.6,0.6,0.9,1.3,0.9,2.2v13.7c2.7-2,5.7-3,9-3c4.2,0,7.8,1.5,10.8,4.5
			c3,3,4.5,6.6,4.5,10.8v18.4c0,0.9-0.3,1.6-0.9,2.2c-0.6,0.6-1.3,0.9-2.2,0.9h-0.1c-0.9,0-1.6-0.3-2.2-0.9
			c-0.6-0.6-0.9-1.3-0.9-2.2v-18.4c0-2.5-0.9-4.6-2.6-6.4c-1.8-1.8-3.9-2.7-6.4-2.7c-2.5,0-4.6,0.9-6.4,2.7
			c-1.7,1.8-2.6,3.9-2.6,6.4v18.4c0,0.9-0.3,1.6-0.9,2.2c-0.6,0.6-1.3,0.9-2.2,0.9H595c-0.8,0-1.5-0.3-2.2-0.9
			c-0.6-0.6-0.9-1.3-0.9-2.2v-44.4c0-0.9,0.3-1.6,0.9-2.2c0.6-0.6,1.3-0.9,2.2-0.9H595.1z"/>
		<path class="st3" d="M640.4,475.3c-1,0-1.9-0.4-2.6-1.1s-1.1-1.6-1.1-2.6c0-1,0.4-1.9,1.1-2.6s1.6-1.1,2.6-1.1
			c1,0,1.9,0.4,2.6,1.1c0.7,0.7,1.1,1.6,1.1,2.6c0,1-0.4,1.9-1.1,2.6C642.3,474.9,641.4,475.3,640.4,475.3z M640.4,481.6
			c0.9,0,1.6,0.3,2.2,0.9c0.6,0.6,0.9,1.3,0.9,2.2v30.5c0,0.9-0.3,1.6-0.9,2.2c-0.6,0.6-1.3,0.9-2.2,0.9h-0.1
			c-0.9,0-1.6-0.3-2.2-0.9c-0.6-0.6-0.9-1.3-0.9-2.2v-30.5c0-0.9,0.3-1.6,0.9-2.2C638.8,481.9,639.5,481.6,640.4,481.6L640.4,481.6z
			"/>
		<path class="st3" d="M662.9,467.9c0.8,0,1.5,0.3,2.2,0.9c0.6,0.6,0.9,1.3,0.9,2.2v44.4c0,0.9-0.3,1.6-0.9,2.2
			c-0.6,0.6-1.3,0.9-2.2,0.9h-0.1c-0.8,0-1.5-0.3-2.2-0.9c-0.6-0.6-0.9-1.3-0.9-2.2v-44.4c0-0.9,0.3-1.6,0.9-2.2
			c0.6-0.6,1.3-0.9,2.2-0.9H662.9z"/>
		<path class="st3" d="M685.3,475.3c-1,0-1.9-0.4-2.6-1.1s-1.1-1.6-1.1-2.6c0-1,0.4-1.9,1.1-2.6s1.6-1.1,2.6-1.1
			c1,0,1.9,0.4,2.6,1.1c0.7,0.7,1.1,1.6,1.1,2.6c0,1-0.4,1.9-1.1,2.6C687.1,474.9,686.3,475.3,685.3,475.3z M685.3,481.6
			c0.9,0,1.6,0.3,2.2,0.9c0.6,0.6,0.9,1.3,0.9,2.2v30.5c0,0.9-0.3,1.6-0.9,2.2c-0.6,0.6-1.3,0.9-2.2,0.9h-0.1
			c-0.9,0-1.6-0.3-2.2-0.9c-0.6-0.6-0.9-1.3-0.9-2.2v-30.5c0-0.9,0.3-1.6,0.9-2.2C683.6,481.9,684.4,481.6,685.3,481.6L685.3,481.6z
			"/>
		<path class="st3" d="M734.5,487c3.6,3.6,5.4,7.9,5.4,13v15.3c0,0.9-0.3,1.6-0.9,2.2c-0.6,0.6-1.3,0.9-2.2,0.9h-0.1
			c-0.8,0-1.5-0.3-2.2-0.9c-0.6-0.6-0.9-1.3-0.9-2.2v-1.5c-3.5,3.1-7.5,4.6-12.1,4.6c-5.1,0-9.4-1.8-13-5.4s-5.4-7.9-5.4-13
			s1.8-9.4,5.4-13s7.9-5.4,13-5.4S731,483.4,734.5,487z M713,491.4c-2.4,2.4-3.5,5.2-3.5,8.6c0,3.4,1.2,6.2,3.5,8.6
			c2.4,2.4,5.2,3.5,8.6,3.5s6.2-1.2,8.6-3.5c2.4-2.4,3.6-5.2,3.6-8.6c0-3.3-1.2-6.2-3.6-8.6c-2.4-2.4-5.2-3.6-8.6-3.6
			S715.3,489,713,491.4z"/>
	</g>
</g>
</svg>
