<?xml version="1.0" encoding="utf-8"?>
<!-- Generator: Adobe Illustrator 22.0.0, SVG Export Plug-In . SVG Version: 6.00 Build 0)  -->
<svg version="1.1" id="Layer_1" xmlns="http://www.w3.org/2000/svg" xmlns:xlink="http://www.w3.org/1999/xlink" x="0px" y="0px"
	 viewBox="0 0 1000 1000" style="enable-background:new 0 0 1000 1000;" xml:space="preserve">
<style type="text/css">
	.st0{fill:#EF4748;}
	.st1{fill:#FFFFFF;}
	.st2{fill:#F7BB22;}
	.st3{fill:#ED302B;}
	.st4{fill:#623412;}
	.st5{opacity:7.000000e-02;}
	.st6{fill:#070808;}
	.st7{fill:#020202;}
	.st8{fill:none;stroke:#020202;stroke-miterlimit:10;}
	.st9{fill:none;stroke:#000000;stroke-miterlimit:10;}
	.st10{fill:none;stroke:#020202;stroke-width:2;stroke-miterlimit:10;}
	.st11{fill:url(#);}
	.st12{fill:url(#SVGID_1_);}
	.st13{fill:#161C3A;}
	.st14{fill:url(#SVGID_2_);}
	.st15{fill:#402312;}
	.st16{fill:#FAAF3A;}
	.st17{fill:#F4EB48;}
	.st18{fill:#848133;}
	.st19{fill:#BFAF78;}
	.st20{fill:#8F783F;}
	.st21{fill:#F6E6BE;}
	.st22{fill:#E2C920;}
	.st23{fill:#EC1C29;}
	.st24{fill:#B92025;}
	.st25{fill:#F48A80;}
	.st26{fill:#2E4925;}
</style>
<linearGradient id="SVGID_1_" gradientUnits="userSpaceOnUse" x1="0" y1="500" x2="1000" y2="500">
	<stop  offset="0" style="stop-color:#1AA7EC"/>
	<stop  offset="1" style="stop-color:#4ADEDE"/>
</linearGradient>
<rect class="st12" width="1000" height="1000"/>
<g>
	<path class="st1" d="M564.6,391.7c34.8,2.3,53.9,27.8,56.3,31.3c-9.2,24.8-33.2,41-59.3,40.1c-27.3-1-50.9-20.5-57.2-47.6
		C507.4,412.4,529.7,389.4,564.6,391.7z M575.5,483.1c-32.3,4.2-57.4-11.7-65.1-16.7c-35-22.9-30.3-49.6-59.7-60.5
		c-18.4-6.8-42.8-4.7-58.8,9.2c-17.1,14.9-20.9,40.2-17.5,57.6c11.1,56.5,113.9,111.4,186.5,75.1c47.2-23.6,62.4-76.1,65.9-90.1
		C619.7,464.5,601.9,479.6,575.5,483.1z M490,599.1c12.3,13.1,33.3,12.3,44.5-1.7c7.1-8.9,14.2-17.8,21.3-26.7
		c-8.4,4.2-23.4,10.2-43,11.3c-20.8,1.1-37-4-45.9-7.5C474.7,582.7,482.3,590.9,490,599.1z"/>
</g>
</svg>
