<?xml version="1.0" encoding="utf-8"?>
<!-- Generator: Adobe Illustrator 22.0.0, SVG Export Plug-In . SVG Version: 6.00 Build 0)  -->
<svg version="1.1" id="Layer_1" xmlns="http://www.w3.org/2000/svg" xmlns:xlink="http://www.w3.org/1999/xlink" x="0px" y="0px"
	 viewBox="0 0 1000 1000" style="enable-background:new 0 0 1000 1000;" xml:space="preserve">
<style type="text/css">
	.st0{fill:#EF4748;}
	.st1{fill:#FFFFFF;}
	.st2{fill:#F7BB22;}
	.st3{fill:#ED302B;}
	.st4{fill:#623412;}
	.st5{opacity:7.000000e-02;}
	.st6{fill:#070808;}
	.st7{fill:#020202;}
	.st8{fill:none;stroke:#020202;stroke-miterlimit:10;}
	.st9{fill:none;stroke:#000000;stroke-miterlimit:10;}
	.st10{fill:none;stroke:#020202;stroke-width:2;stroke-miterlimit:10;}
	.st11{fill:url(#);}
	.st12{fill:url(#SVGID_1_);}
	.st13{fill:#161C3A;}
	.st14{fill:#402312;}
	.st15{fill:url(#SVGID_2_);}
	.st16{fill:#FAAF3A;}
	.st17{fill:#F4EB48;}
	.st18{fill:#848133;}
	.st19{fill:#BFAF78;}
	.st20{fill:#8F783F;}
	.st21{fill:#F6E6BE;}
	.st22{fill:#E2C920;}
	.st23{fill:#EC1C29;}
	.st24{fill:#B92025;}
	.st25{fill:#F48A80;}
	.st26{fill:#2E4925;}
</style>
<rect x="0" y="0" class="st14" width="1000" height="1000"/>
<g>
	<polyline class="st14" points="402.1,458.5 402.1,351.5 605.7,351.5 605.7,458.5 404.9,457.1 	"/>
	<path class="st16" d="M601.1,644.7H406.7V457.4c21.3-7.5,54.4-16.3,95.5-16.5c42.9-0.3,77.2,8.9,99,16.5
		C601.1,519.8,601.1,582.2,601.1,644.7z"/>
	<g>
		<g>
			<path class="st1" d="M438.3,404.7c-3.5,4.7-7.7,10.3-12.8,12.3c-4.8,1.9-12.9-1.2-13.7-4.6c0,0,3.1-6.8,5.7-8.4
				c3.3,4.6,9.6,5.9,15,4.6c0.8-0.2,1.6-0.7,2.4-1.3c-0.4,0.3-0.7,0.4-1.1,0.7c4.7-9.6-15.1-19.5-19.6-25c-4-4.9,0.6-11.6,5.6-14.5
				c0,0,0,0,0.1,0c2.1-1.9,4.9-4.2,5.8-4.4c5.1-1.1,15.4-0.2,14.3,7.5c-0.3,2.1-5.9,7-5.9,7c2.4-4.5-3.2-8.3-10-8.1
				c-1.1,0-2.2,0.1-3,0.2c-1.4,2-2,5,2.8,9.5c5.7,5.3,17.3,11.3,18,18.9C442.1,401,440.2,403.2,438.3,404.7z"/>
			<path class="st1" d="M473.8,371.2c-0.1,8.5-0.2,17-0.3,25.5c0,4.7-6.1,7.3-9.7,9.4c-1.6,1.3-3.2,2.5-4.3,2.7
				c-7.4,1.2-14.9-1.5-14.9-10.2c0.1-11.2,0.3-22.3,0.4-33.5c0-0.7-1-1.6-1-1.6c5.9,2.6,9.2,4.8,9.2,7.2c-0.1,8-0.2,16.1-0.3,24.1
				c-0.1,6.7,5.4,10.6,11.7,8.5c0.3-0.8,0.3-1.6,0.4-2.6c0.1-11.9,0.3-23.8,0.4-35.7c0-0.6-0.9-1.4-0.9-1.4
				C470.5,366.2,473.8,368.9,473.8,371.2z"/>
			<path class="st1" d="M510.4,400.3c-0.5,2.5-3.6,4.3-6.7,4.5c-1.9,0.1-3.9-0.5-5.1-2.1c-3.5-5.5-5.2-8.2-8.7-13.6
				c-0.8-1-1.6-1.6-2.4-2c-0.7,0.1-1,0.1-1.6,0.2c0,4.4,0,6.7-0.1,11.1c0,4.6-7.1,6.9-10.7,9c1.6-1.3,2.3-3,2.3-5.1
				c0.1-10.3,0.2-20.7,0.3-31c0-2.3,3.5-4.9,9.3-7.7c0,0-1,0.8-1,1.5c0,6-0.1,12-0.1,18.1c3.4-5.2,6.9-10.4,10.4-15.5
				c2-2.4,5.7-3.9,12.5-4.1c0,0-1.3,0.3-1.8,0.8c-4.2,6.2-8.4,12.4-12.6,18.6c0.5,0.4,0.9,0.8,1.2,1.2c3.1,5,6.3,9.9,9.5,14.9
				C507,401.6,510.4,400.3,510.4,400.3z"/>
			<path class="st1" d="M533.9,404.2c-1.4,0.9-2.8,1.3-4.6,1.1c-5.1-0.5-7.7-0.7-12.8-0.9c-1.1-0.1-2.4,0.7-2.4,0.7
				c0.1-0.1,0.1-0.1,0.2-0.2c-0.7,0.4-1.6,0.7-2.4,1.1c0,0,1-0.7,1-1.4c0-10.4-0.1-20.8-0.1-31.2c0-2.2,3.6-5.2,9.2-7.7
				c-0.2,0.1-0.2,0.2-0.4,0.4c1.1-0.7,1.6-1.1,2.7-1.9c4.3,0,6.4,0,10.7,0c2.7,0,9.8,0.6,9.7,5.3c-0.2,6-7.3,9.5-11.8,12.2
				c6.3,0.5,13.4,4.7,13.4,11.3C546.4,399.2,539.6,402.7,533.9,404.2z M538.2,397.1c0-8.8-9.5-11.3-16.5-11.3
				c-0.2,0-0.2,0.1-0.4,0.1c0,5.3,0.1,7.9,0.1,13.2c0,0.3-0.1,0.6-0.2,0.9c0.8-0.2,1.6-0.3,2.6-0.2c4.9,0.3,7.4,0.5,12.2,1.1
				C537.4,399.9,538.2,398.8,538.2,397.1z M521.2,368.6c0,5.9,0.1,8.9,0.1,14.8c5.1-2.1,14.9-5.1,15.5-11c0.2-2.6-4-3.7-7.4-3.7
				C529.3,368.7,524.9,368.4,521.2,368.6z"/>
			<path class="st1" d="M582.5,417.6c-6-5.6-9.3-9-9.3-12.7c-0.1-5.3-0.1-7.9-0.1-13.2c-1.5,1.1-3,1.6-4.6,1.4
				c-3.7-0.6-5.6-0.8-9.3-1.3c0.1,4.2,0.1,6.3,0.1,10.5c0.1,5.7-7.7,6.3-11,7.3c1.9-1,2.6-3,2.5-5.5c-0.1-9-0.2-18-0.3-27
				c0-2.2,2.5-4.8,7.1-7.5c1.6-1.7,5.8-5.9,8.2-5.9c8.1,0.1,16.1,5.8,15.4,14.8c0.1,12.3,0.2,24.6,0.3,36.9
				C581.5,416.3,582.5,417.6,582.5,417.6z M559.2,369.1c-0.2,0.3-0.3,0.5-0.3,0.8c0.1,5.5,0.1,11,0.2,16.5c1.4-0.8,2.6-1.3,3.9-1.1
				c4,0.4,6,0.6,10,1.1c0-2.3,0-3.5-0.1-5.8C573.1,372.8,566.8,366.9,559.2,369.1z"/>
			<path class="st1" d="M584.1,418.6c1.8-1,2.4-3.3,2.4-6.1c-0.1-13.4-0.1-26.8-0.2-40.2c0-2.9,3.3-5.7,9.2-8.5c0,0-1,1-1,1.8
				c0,15,0,30,0,45C594.5,417.5,587.3,418.9,584.1,418.6z"/>
		</g>
	</g>
	<path class="st17" d="M503.9,478.1v-34.2c0,0-47.9-0.9-56.6,5.9l44.7-0.5l-32.9,4.1l36.5,0.9l-30.6,4.1l32,0.9l-20.1,3.2l21,0.9
		l-13.7,2.3l13.7,1.4l-11,1.4l11.9,1.8l-3.7,1.8L503.9,478.1z"/>
	<path class="st14" d="M603.6,615.8v28.4c0,0-64.3-0.9-75.6-6.6l60.1,2.1l-43-3.4l47.8-0.8l-40.1-3.4l41.9-0.8l-26.3-2.7l27.5-0.8
		l-17.9-1.9l17.9-1.1l-14.3-1.1l15.5-1.5l-4.8-1.5L603.6,615.8z"/>
	<path class="st17" d="M503.6,478.1v-34.2c0,0,47.9-0.9,56.6,5.9l-44.7-0.5l32.9,4.1l-36.5,0.9l30.6,4.1l-32,0.9l20.1,3.2l-21,0.9
		l13.7,2.3l-13.7,1.4l11,1.4l-11.9,1.8l3.7,1.8L503.6,478.1z"/>
	<g>
		<g>
			<path class="st16" d="M414.1,443.9c1-1,1.5-1.6,2.6-2.6c0.7,0.9,1.7,1.2,3.1,0.8c1.5-0.4,2.5-1.3,2.5-2.2c0-1.2-1.9-1.6-3.6-2
				c-1.8-0.4-3.8-0.8-3.8-3.4c0-2.8,2.3-5.4,5.3-6.2c2.2-0.6,4-0.2,4.7,1.6c-1,0.9-1.4,1.4-2.4,2.3c-0.5-0.8-1.4-1-2.3-0.7
				c-1.2,0.3-2.1,1.3-2.1,2.1c0,1,1.2,0.9,3,1.3c2.6,0.5,4.3,1.5,4.3,4c0,3-2.4,5.5-5.8,6.5C417.1,446.1,415.2,445.6,414.1,443.9z"
				/>
			<path class="st16" d="M431.4,435.9c0-4.1,0-6.2,0-10.3c1.3-0.3,2-0.5,3.3-0.8c0,4.1,0,6.2,0,10.3c0,1.8,1.4,2.7,3,2.4
				c1.6-0.3,3-2,3-3.7c0-4.1,0-6.2,0-10.3c1.3-0.3,2-0.4,3.3-0.7c0,4.1,0,6.2,0,10.3c0,3.7-2.8,6.9-6.2,7.7
				C434.2,441.6,431.4,439.6,431.4,435.9z"/>
			<path class="st16" d="M458.9,436.5c-2-2.6-3-3.8-5-6.3c0,2.9,0,4.3,0,7.1c-1.3,0.2-2,0.3-3.3,0.6c0-6.5,0-9.8,0-16.3
				c1.3-0.2,2-0.3,3.3-0.6c0,2.8,0,4.2,0,7c1.8-3.1,2.7-4.7,4.6-7.8c1.5-0.2,2.3-0.3,3.8-0.6c-2.1,3.5-3.1,5.2-5.2,8.7
				c2.3,3,3.5,4.5,5.8,7.5C461.3,436.1,460.5,436.2,458.9,436.5z"/>
			<path class="st16" d="M478.6,431.9c-2.6,0.2-3.9,0.4-6.6,0.6c-0.4,1-0.6,1.4-1,2.4c-1.4,0.2-2.1,0.2-3.6,0.4
				c3.1-7.1,4.7-10.6,7.8-17.5c0,0,0.1,0,0.1,0c3.1,6.4,4.7,9.6,7.9,16c-1.4,0.1-2.1,0.2-3.6,0.3C479.2,433.2,479,432.8,478.6,431.9
				z M477.3,429.2c-0.8-1.7-1.2-2.5-2-4.2c-0.8,1.8-1.2,2.7-2,4.6C474.9,429.4,475.7,429.4,477.3,429.2z"/>
			<path class="st16" d="M509.7,420c-1.6,0-2.4,0-4,0c0,5.2,0,7.8,0,13c-1.3,0-2,0-3.3,0c0-5.2,0-7.8,0-13c-1.6,0-2.4,0-4.1,0.1
				c0-1.3,0-1.9,0-3.2c4.6-0.1,6.9-0.1,11.4,0C509.7,418.1,509.7,418.7,509.7,420z"/>
			<path class="st16" d="M523.7,431.3c-2.6-0.2-3.9-0.2-6.6-0.3c-0.4,0.9-0.6,1.3-1.1,2.2c-1.4-0.1-2.1-0.1-3.6-0.1
				c3.1-6.6,4.7-9.9,7.9-16.4c0,0,0.1,0,0.1,0c3.1,6.8,4.7,10.3,7.9,17.2c-1.4-0.1-2.1-0.2-3.6-0.3
				C524.3,432.7,524.1,432.3,523.7,431.3z M522.4,428.5c-0.8-1.8-1.2-2.7-2-4.5c-0.8,1.7-1.2,2.6-2,4.3
				C520,428.3,520.8,428.4,522.4,428.5z"/>
			<path class="st16" d="M555.7,432.3c0,2.4-1.7,4.6-5.1,4.1c-2.5-0.4-3.7-0.5-6.2-0.9c0-6.5,0-9.8,0-16.3c1.8,0.2,2.7,0.4,4.5,0.6
				c2.9,0.4,4.7,2.8,4.7,5c0,1.7-1.1,2.6-1.5,2.6C553.6,427.7,555.7,429.7,555.7,432.3z M547.7,422.9c0,1.3,0,1.9,0,3.2
				c0.5,0.1,0.8,0.1,1.3,0.2c0.8,0.1,1.5-0.4,1.5-1.4c0-0.9-0.7-1.7-1.5-1.8C548.5,423,548.2,423,547.7,422.9z M552.5,431.6
				c0-0.9-0.6-2-2.2-2.2c-1-0.2-1.6-0.2-2.6-0.4c0,1.5,0,2.3,0,3.9c1,0.1,1.6,0.2,2.6,0.4C551.3,433.4,552.5,432.8,552.5,431.6z"/>
			<path class="st16" d="M571.2,438c-2.6-0.6-3.9-0.8-6.5-1.4c-0.4,0.8-0.6,1.2-1,2.1c-1.4-0.3-2.1-0.4-3.5-0.7
				c3.1-6.1,4.7-9.1,7.8-15.2c0,0,0.1,0,0.1,0c3.1,7.3,4.6,11,7.7,18.4c-1.4-0.3-2.1-0.5-3.5-0.8C571.8,439.5,571.6,439,571.2,438z
				 M569.9,434.9c-0.8-1.9-1.2-2.9-2-4.8c-0.8,1.6-1.2,2.4-2,3.9C567.5,434.4,568.3,434.6,569.9,434.9z"/>
			<path class="st16" d="M581.4,426.4c1.3,0.3,1.9,0.5,3.2,0.8c0,6.5,0,9.8,0,16.3c-1.3-0.3-1.9-0.5-3.2-0.8
				C581.4,436.2,581.4,432.9,581.4,426.4z"/>
			<path class="st16" d="M591.5,443.9c0-1.1,0.9-1.8,2-1.4c1.1,0.3,2.1,1.6,2.1,2.7c0,1.1-0.9,1.8-2,1.4
				C592.4,446.2,591.5,445,591.5,443.9z M591.6,429.2c1.5,0.4,2.2,0.7,3.7,1.1c-0.2,4.2-0.3,6.3-0.5,10.5c-1.1-0.3-1.6-0.5-2.7-0.8
				C592,435.7,591.8,433.5,591.6,429.2z"/>
		</g>
	</g>
	<g>
		<g>
			<polygon class="st19" points="445.8,646.9 470.9,633.7 472.4,597.4 479,568.9 492.8,530.8 502,511.4 504.8,503.7 497.7,508.6 
				490.6,513.6 475.7,536.3 467.2,564.9 451,612 			"/>
			<path class="st20" d="M470.2,632.9c-0.1-0.7-0.2-1.3-0.2-1.9c-0.1-0.6-0.1-1.5-0.1-2.2c0-1.5-0.1-3,0-4.5c0-3,0.2-6.1,0.4-9.1
				c0.4-6,1.2-12,2.2-17.8c1.9-11.7,4.8-22.9,8-33.7c3.2-10.8,6.9-21.3,10.9-31.4c4-10.1,8.3-19.8,13.1-29.1l0,0l0.5,1.1
				c-8.6,4.9-16,14.1-22.1,24.7c-6.1,10.8-11.2,23-15.7,35.8c-4.4,12.8-8.2,26.2-11.7,39.9c-1.7,6.8-3.4,13.7-4.9,20.6
				c-0.8,3.5-1.6,6.9-2.3,10.4c-0.7,3.5-1.5,7-2.1,10.5l0,0l-0.6-0.8L470.2,632.9z M470.9,633.7l-25.1,13.2l-0.8,0.4l0.2-1.2l0,0
				c1.8-14.6,4.4-28.9,7.6-42.9c3.2-14,7.1-27.6,11.7-40.6c4.6-13,10-25.4,16.6-36.1c3.3-5.3,6.8-10.3,10.8-14.3
				c3.9-4,8.2-7.3,12.7-9.2l1.3-0.6l-0.9,1.7l0,0c-4.1,9.9-8,20-11.6,30.3c-3.7,10.3-7.1,20.8-10.2,31.5c-1.6,5.3-3,10.8-4.3,16.3
				c-1.4,5.5-2.6,11-3.7,16.6c-0.5,2.8-1,5.6-1.5,8.5c-0.5,2.8-0.9,5.7-1.3,8.6c-0.4,2.9-0.7,5.8-0.9,8.7c-0.1,1.5-0.2,2.9-0.3,4.4
				c0,0.8-0.1,1.4-0.1,2.3C471.1,632.1,471,632.9,470.9,633.7z"/>
			<path class="st20" d="M449.9,622.6c1.2-3.9,2.6-7.5,4.2-11c1.6-3.5,3.4-6.8,5.3-9.8c2-2.9,4.2-5.8,7-7.4c1.4-0.8,3-1.1,4.5-0.6
				c1.5,0.5,2.9,2,3.7,3.8l-0.7,0.7l0,0c-1.2-5.2-2.5-10.3-4.4-14.7c-0.5-1.1-1-2.1-1.5-3.1c-0.5-1-1.1-1.9-1.7-2.7
				c-0.6-0.8-1.3-1.5-2-2.1c-0.7-0.6-1.5-1-2.3-1.5l-0.9-0.5l0.6-0.7l0,0c1.3-2.6,2.8-5,4.4-7.1c1.6-2.1,3.3-4.1,5.3-5.6
				c1.9-1.5,4.1-2.7,6.4-2.4c1.1,0.2,2.3,0.7,3.3,1.8c1,1,1.7,2.5,2.2,4l-0.8,0.4l0,0c0.1-2.3,0.1-4.7,0-7c-0.1-2.3-0.3-4.7-0.6-6.9
				c-0.3-2.3-0.8-4.5-1.5-6.4c-0.7-1.9-1.8-3.4-3.1-3.8l-1.1-0.4l1-0.9c1.1-1.1,2.2-2,3.4-2.8c1.2-0.8,2.4-1.6,3.6-2.1
				c1.2-0.5,2.6-0.8,3.9-0.3c0.7,0.3,1.3,0.8,1.8,1.7c0.5,0.9,0.8,2,0.9,3l-0.9,0.3c-0.1-0.9-0.4-1.7-0.7-2.4
				c-0.4-0.6-0.8-1.1-1.4-1.3c-1.1-0.4-2.3-0.1-3.5,0.3c-1.2,0.5-2.3,1.2-3.5,2c-1.1,0.8-2.2,1.7-3.3,2.8l-0.1-1.3
				c1.6,0.5,2.9,2.4,3.7,4.5c0.8,2.1,1.3,4.5,1.6,6.8c0.3,2.4,0.5,4.8,0.6,7.2c0.1,2.4,0.1,4.8,0,7.2l0,0l0.1,1.7l-0.9-1.4
				c-0.7-1.1-1.4-2-2.3-2.6c-0.8-0.6-1.7-0.8-2.6-0.8c-1.8,0-3.6,1.1-5.4,2.3c-1.7,1.3-3.4,3-5.1,4.8c-1.6,1.8-3.3,3.8-4.9,5.8l0,0
				l-0.3-1.2c0.9-0.1,1.9,0,2.8,0.4c0.9,0.4,1.8,1.1,2.6,1.9c1.6,1.7,2.8,4,3.8,6.5c1,2.5,1.8,5.2,2.4,7.9c0.6,2.8,1,5.5,1.2,8.4
				l0,0l0.5,1.8l-1.2-1.1c-1.1-1-2.2-1.5-3.3-1.5c-1.1,0-2.2,0.6-3.2,1.4c-2.1,1.6-4.2,4-6.1,6.7c-1.9,2.7-3.7,5.6-5.5,8.7
				c-1.8,3-3.5,6.2-5.2,9.4L449.9,622.6z"/>
			<polygon class="st21" points="456.3,604.4 464.2,576.9 465.2,578.2 458.2,602.8 			"/>
			<polygon class="st21" points="465.8,570.9 467.8,569.3 466.8,572.8 465.2,572.8 			"/>
		</g>
		<polygon class="st21" points="477.8,541.2 469.7,560.4 471.2,559 478.6,542.4 		"/>
	</g>
	<g>
		<g>
			<path class="st22" d="M457.2,596.1l1.8-5.3c0,0,3.2-3,3.4-3c0.2-0.1,5.7-1,5.7-1l0.8-0.2l1.3-4.9c0,0,1.2-0.3,1.4-0.1
				c0.1,0.2,1.1,4.3,1.1,4.3l-0.3,2.2l2.1-0.2l5.6,4l1.8,5.8l-0.6,6.4l-1.4-0.1l-2.2-2.7c0,0-1.3-1-1.5-0.9c-0.2,0-1.1,0.7-1.3,0.8
				c-0.2,0-1.8,1.8-1.8,1.8s-1.5-0.8-1.5-1c0-0.2-0.1-0.5-0.2-0.9s-0.7-1.1-0.7-1.1l-1.5-1.3l-1.8,1.1l-1.9,0.8c0,0-0.5-1.2-0.5-1.4
				s-0.4-1.4-0.5-1.6c-0.1-0.2-1.2-1.1-1.2-1.1l-2.1-0.3l-1.7,0.7l-1.9,0.5L457.2,596.1z"/>
			<polygon class="st23" points="415.5,633.8 428.6,640.5 450.3,640.4 460.5,634.8 473.5,618.5 481,604 476.7,601.9 475.5,600.7 
				474.7,602.2 471.4,603.3 470.6,599.9 468.6,599.3 466.7,599.9 465.2,601.5 464,597.1 462.2,595.9 458.9,595.9 457.8,597.8 
				456.5,601.4 455.9,606.8 452.3,615 448.3,619.7 443.1,625.8 435.4,630.7 430,632.6 421,632.6 			"/>
			<path class="st24" d="M458.5,597.5c-1.3,6.1-3.4,12-6.3,17.5c-1.5,2.8-3.1,5.4-5.1,7.9c-1.9,2.5-4.2,4.7-6.9,6.5
				c-2.6,1.8-5.6,3.2-8.7,4c-0.8,0.2-1.6,0.3-2.4,0.4c-0.8,0.1-1.6,0.2-2.4,0.2c-0.8,0.1-1.6,0-2.4,0l-1.2-0.1l-1.1-0.1
				c-1.5-0.1-3-0.1-4.3,0.1c-0.3,0.1-0.6,0.1-0.8,0.2c-0.1,0-0.2,0.1-0.2,0.1c0,0,0,0,0,0c0.1,0,0.1-0.1,0.1-0.2
				c0-0.1,0-0.2,0.1-0.2c0,0,0-0.1,0-0.1c0,0,0,0,0,0c0,0,0,0,0,0c0,0,0,0,0.1,0.1c0.1,0.1,0.3,0.3,0.6,0.5c1,0.8,2.4,1.4,3.7,2
				c1.4,0.6,2.8,1,4.2,1.4c5.7,1.6,11.8,2.2,17.7,1.7c5.9-0.5,11.7-2.4,16-6.2c1.1-0.9,2.1-2,3-3.1l2.9-3.5c1-1.2,1.9-2.4,2.9-3.6
				l2.8-3.6c1.9-2.4,3.7-4.9,5.3-7.4c0.8-1.3,1.7-2.5,2.4-3.9c0.2-0.3,0.4-0.7,0.5-1c0.2-0.3,0.3-0.7,0.5-1c0.2-0.3,0.3-0.7,0.4-1
				l0.1-0.5c0-0.1,0.1-0.4,0.1-0.4l0.8-0.2c0.1,0.6,0,0.9,0,1.4c-0.1,0.4-0.1,0.8-0.2,1.2c-0.1,0.4-0.2,0.8-0.3,1.2
				c-0.1,0.4-0.3,0.8-0.4,1.1c-0.6,1.5-1.3,2.9-2,4.3c-1.5,2.8-3.1,5.4-4.9,8l-2.7,3.8c-0.9,1.2-1.9,2.5-2.8,3.7l-2.9,3.6
				c-1,1.2-2.2,2.4-3.4,3.5c-2.5,2.1-5.4,3.7-8.5,4.8c-3,1.1-6.2,1.7-9.4,2c-6.3,0.5-12.7-0.2-18.8-1.9c-1.5-0.4-3-0.9-4.5-1.6
				c-1.5-0.6-2.9-1.3-4.4-2.4c-0.4-0.3-0.7-0.6-1.1-1.1c-0.1-0.1-0.2-0.2-0.3-0.4c-0.1-0.1-0.2-0.3-0.2-0.5c0-0.1-0.1-0.2-0.1-0.3
				c0-0.1,0-0.3,0-0.4c0-0.3,0-0.5,0.1-0.8c0.1-0.3,0.2-0.5,0.4-0.7c0.2-0.2,0.3-0.3,0.5-0.4c0.3-0.2,0.6-0.3,0.8-0.4
				c0.5-0.2,1-0.3,1.4-0.3c1.7-0.2,3.3-0.1,4.9,0l1.2,0.1l1.1,0.1c0.7,0.1,1.5,0.1,2.2,0.1c0.7,0,1.5,0,2.2-0.1
				c0.7-0.1,1.4-0.2,2.2-0.4c2.8-0.6,5.6-1.8,8-3.4c2.5-1.6,4.6-3.7,6.6-6c1.9-2.3,3.7-4.8,5.2-7.4c1.5-2.6,2.8-5.4,3.9-8.2
				c1.1-2.8,2.2-5.7,2.9-8.7L458.5,597.5z"/>
			<path class="st18" d="M466.9,590.5c0.6-1.7,1.1-3.4,1.6-5.1c0.2-0.9,0.4-1.7,0.5-2.6c0.1-0.4,0.1-0.9,0.2-1.3l0-0.3
				c0-0.3,0.1-0.6,0.3-0.8c0.4-0.5,1.1-0.7,1.6-0.6c0.3,0.1,0.6,0.2,0.8,0.5c0.1,0.1,0.2,0.3,0.3,0.4c0,0.1,0.1,0.1,0.1,0.2l0,0.1
				c0.1,0.2,0.2,0.5,0.2,0.7c0.1,0.5,0.3,0.9,0.4,1.4c0.2,0.9,0.4,1.9,0.4,2.9c0,2-0.7,4.1-2.3,5.4l-0.7-0.5
				c0.7-1.6,0.9-3.2,0.9-4.8c0-0.8-0.1-1.7-0.3-2.5c-0.1-0.4-0.2-0.8-0.3-1.2l-0.2-0.6l0-0.1c0,0,0,0,0,0c0,0,0,0.1,0.1,0.1
				c0.1,0.1,0.2,0.1,0.2,0.1c0.2,0,0.3,0,0.4-0.2c0.1-0.1,0.1-0.2,0.1-0.2l-0.1,0.4c-0.1,0.5-0.2,0.9-0.3,1.4
				c-0.2,0.9-0.5,1.8-0.8,2.7c-0.6,1.8-1.4,3.4-2.4,5L466.9,590.5z"/>
			<path class="st18" d="M468.5,587.3c-1.5,0.3-2.9,0.6-4.3,1c-1.3,0.4-2.6,1-3.4,1.8c-0.9,1-1.7,2.3-2.2,3.6
				c-0.5,1.3-0.9,2.8-0.8,4.1l-0.7-0.2l0,0c0.7-0.9,1.5-1.6,2.4-2.1c0.5-0.3,1-0.5,1.6-0.6c0.6-0.1,1.3-0.1,2,0.3
				c0.2,0.1,0.3,0.2,0.5,0.3c0.1,0.1,0.2,0.2,0.3,0.3c0.2,0.2,0.4,0.5,0.5,0.7c0.3,0.5,0.5,1.1,0.6,1.6c0.2,1.1,0.2,2.2,0.1,3.2l0,0
				l-0.8-0.3c0.5-0.8,1.2-1.5,2-2.1c0.4-0.3,0.9-0.5,1.4-0.7c0.5-0.2,1.2-0.3,1.8-0.1c0.3,0.1,0.7,0.3,0.9,0.5
				c0.3,0.2,0.5,0.5,0.6,0.7c0.3,0.4,0.5,0.9,0.7,1.3c0.4,0.9,0.6,2,0.2,3.1l0,0l-0.7-0.4c0.6-1,1.4-1.8,2.4-2.5
				c0.5-0.3,1-0.7,1.7-0.9c0.3-0.1,0.7-0.2,1.2-0.1c0.2,0,0.5,0.1,0.7,0.3c0.2,0.1,0.2,0.2,0.4,0.3c0.9,0.7,1.8,1.5,2.4,2.5
				c0.7,1,1,2.3,0.7,3.5l0,0l-0.9-0.2c0.2-1.9,0.3-3.8,0.3-5.6c0-1.8-0.2-3.7-0.7-5.4c-0.2-0.8-0.5-1.7-0.9-2.4
				c-0.4-0.7-0.9-1.4-1.5-2c-1.1-1.2-2.6-2.1-4.3-3l0.2-0.9c2-0.2,4.2,0.5,5.9,2c1.7,1.5,2.6,3.6,3.1,5.6c0.5,2.1,0.5,4.1,0.2,6.1
				c-0.3,2-0.7,3.9-1.5,5.8l-1.6,3.8l0.7-4l0,0c0-1-0.4-1.9-1-2.6c-0.6-0.8-1.4-1.4-2.2-2c-0.1-0.1-0.2-0.2-0.3-0.2c0,0,0,0-0.1,0
				c-0.1,0-0.2,0-0.4,0c-0.4,0.1-0.8,0.3-1.2,0.6c-0.9,0.5-1.7,1.1-2.6,1.7l-0.7-0.4h0c-0.1-0.7-0.4-1.5-0.8-2.2
				c-0.2-0.3-0.4-0.7-0.7-1c-0.3-0.3-0.4-0.4-0.6-0.4c-0.4-0.1-1.2,0.1-1.9,0.5c-0.7,0.4-1.5,0.9-2.2,1.3l-1.1,0.7l0.3-1l0,0
				c-0.1-0.9-0.3-1.9-0.6-2.8c-0.1-0.4-0.3-0.8-0.6-1.2c-0.1-0.2-0.2-0.3-0.4-0.5c-0.2-0.1-0.3-0.2-0.4-0.3c-0.4-0.2-1.3,0-2.1,0.3
				c-0.8,0.4-1.7,0.8-2.6,1.3l0,0l-0.4,0.5l-0.3-0.7c-0.3-0.8-0.4-1.7-0.4-2.5c0-0.8,0.2-1.6,0.4-2.4c0.4-1.6,1.2-3.1,2.3-4.4
				c1.2-1.5,2.9-2.1,4.5-2.4c1.6-0.3,3.2-0.3,4.8,0.1L468.5,587.3z"/>
			<path class="st25" d="M459.9,599.9l0.9,13.5l-2.1-5.3l-3.4,14.4l-0.2-5l-8.7,14.9l0.7-5.1l-7.4,7.3l2-3.8l-8.2,3.9
				c3.7-2,8.4-5.1,12.9-9.9C455.5,615.6,458.7,605.3,459.9,599.9z"/>
		</g>
		<g>
			<path class="st22" d="M490.2,593.7l-1.2-5.4c0,0-2.9-3.3-3.1-3.4s-5.6-1.6-5.6-1.6l-0.7-0.3l-0.7-5c0,0-1.2-0.4-1.3-0.2
				c-0.1,0.2-1.5,4.1-1.5,4.1l0.1,2.2l-2.1-0.5l-6,3.4l-2.5,5.5l-0.1,6.4l1.4,0.1l2.5-2.5c0,0,1.4-0.8,1.6-0.8
				c0.2,0.1,1,0.9,1.2,0.9c0.2,0.1,1.6,2,1.6,2s1.6-0.6,1.6-0.8s0.2-0.5,0.3-0.8c0.1-0.3,0.8-1,0.8-1l1.7-1.2l1.7,1.3l1.8,1
				c0,0,0.6-1.1,0.7-1.3c0.1-0.2,0.6-1.3,0.7-1.5c0.1-0.2,1.3-1,1.3-1l2.2,0l1.6,0.9l1.8,0.7L490.2,593.7z"/>
			<polygon class="st23" points="527.3,635.8 513.6,641 492.1,638.5 482.5,631.8 471.5,614.2 465.6,598.9 470.1,597.3 471.4,596.3 
				472.1,597.8 475.2,599.3 476.4,596 478.4,595.6 480.3,596.4 481.6,598.1 483.3,593.9 485.2,592.9 488.5,593.3 489.3,595.4 
				490.3,599 490.3,604.5 492.9,613 496.4,618.2 500.9,624.7 507.9,630.5 513.1,632.9 522.1,633.9 			"/>
			<path class="st24" d="M488.7,594.9c0.6,6.2,2,12.3,4.3,18.1c1.1,2.9,2.5,5.7,4.2,8.4c1.7,2.7,3.7,5.2,6.1,7.3
				c2.4,2.1,5.2,3.8,8.2,4.9c0.8,0.3,1.5,0.5,2.3,0.7c0.8,0.2,1.6,0.3,2.4,0.5c0.8,0.2,1.6,0.2,2.4,0.3l1.2,0.1l1.1,0
				c1.5,0.1,3,0.2,4.3,0.6c0.3,0.1,0.6,0.2,0.8,0.3c0.1,0.1,0.2,0.1,0.2,0.1c0,0,0,0,0,0c-0.1,0,0-0.1-0.1-0.2c0-0.1,0-0.2,0-0.3
				c0,0,0-0.1,0-0.1c0,0,0,0,0,0c0,0,0,0,0,0c0,0,0,0-0.1,0.1c-0.1,0.1-0.4,0.3-0.6,0.5c-1.1,0.6-2.5,1.1-3.9,1.5
				c-1.4,0.4-2.9,0.7-4.3,1c-5.9,0.9-12,0.9-17.8-0.3c-5.8-1.2-11.3-3.7-15.3-7.9c-1-1.1-1.8-2.2-2.6-3.4l-2.5-3.8
				c-0.8-1.3-1.6-2.6-2.4-3.9l-2.4-3.9c-1.6-2.6-3.1-5.2-4.5-7.9c-0.7-1.4-1.4-2.7-1.9-4.1c-0.2-0.3-0.3-0.7-0.4-1
				c-0.1-0.3-0.3-0.7-0.4-1.1c-0.1-0.4-0.2-0.7-0.3-1.1l-0.1-0.5c0-0.1,0-0.4,0-0.4l-0.8-0.3c-0.2,0.6-0.1,0.9-0.2,1.4
				c0,0.4,0,0.8,0.1,1.2c0,0.4,0.1,0.8,0.2,1.2c0.1,0.4,0.2,0.8,0.3,1.2c0.4,1.5,0.9,3,1.5,4.5c1.1,2.9,2.5,5.7,4,8.5l2.3,4.1
				c0.8,1.3,1.6,2.7,2.4,4l2.5,3.9c0.9,1.3,1.9,2.7,3,3.8c2.3,2.4,5,4.3,7.9,5.7c2.9,1.4,6,2.4,9.1,3c6.2,1.2,12.6,1.2,18.9,0.1
				c1.6-0.3,3.1-0.6,4.6-1.1c1.5-0.5,3.1-1,4.6-1.9c0.4-0.3,0.8-0.5,1.2-0.9c0.1-0.1,0.2-0.2,0.3-0.4c0.1-0.1,0.2-0.3,0.3-0.5
				c0-0.1,0.1-0.2,0.1-0.3c0-0.1,0.1-0.3,0.1-0.4c0-0.3,0-0.5-0.1-0.8c-0.1-0.3-0.2-0.5-0.3-0.7c-0.1-0.2-0.3-0.3-0.4-0.5
				c-0.3-0.2-0.5-0.4-0.8-0.5c-0.5-0.2-0.9-0.4-1.4-0.5c-1.7-0.4-3.3-0.5-4.9-0.5l-1.2,0l-1.1,0c-0.7,0-1.5-0.1-2.2-0.2
				c-0.7-0.1-1.4-0.2-2.1-0.4c-0.7-0.2-1.4-0.3-2.1-0.6c-2.8-0.9-5.3-2.4-7.6-4.3c-2.3-1.9-4.2-4.2-5.9-6.7
				c-1.7-2.5-3.1-5.2-4.3-7.9c-1.2-2.8-2.2-5.7-3-8.6c-0.8-2.9-1.5-5.9-1.9-8.9L488.7,594.9z"/>
			<path class="st18" d="M481.2,587.1c-0.4-1.7-0.7-3.5-1-5.3c-0.1-0.9-0.2-1.8-0.2-2.6c0-0.4,0-0.9,0-1.3l0-0.3
				c0-0.3-0.1-0.6-0.2-0.9c-0.3-0.6-1-0.8-1.6-0.8c-0.3,0-0.6,0.2-0.9,0.4c-0.1,0.1-0.2,0.2-0.3,0.4c0,0.1-0.1,0.1-0.1,0.2l0,0.1
				c-0.1,0.2-0.2,0.4-0.3,0.7c-0.2,0.4-0.4,0.9-0.5,1.3c-0.3,0.9-0.6,1.9-0.7,2.9c-0.2,2,0.3,4.2,1.7,5.6l0.7-0.5
				c-0.5-1.7-0.6-3.3-0.3-4.9c0.1-0.8,0.3-1.6,0.6-2.4c0.1-0.4,0.3-0.8,0.5-1.2l0.3-0.6l0-0.1c0,0,0,0,0,0c0,0-0.1,0.1-0.1,0.1
				c-0.1,0.1-0.2,0.1-0.3,0.1c-0.2,0-0.3,0-0.4-0.2c-0.1-0.1-0.1-0.2-0.1-0.2l0,0.4c0,0.5,0.1,1,0.1,1.4c0.1,0.9,0.3,1.9,0.5,2.8
				c0.4,1.8,1,3.6,1.8,5.3L481.2,587.1z"/>
			<path class="st18" d="M479.9,583.7c1.4,0.5,2.8,0.9,4.1,1.5c1.3,0.6,2.5,1.2,3.2,2.2c0.8,1.1,1.4,2.4,1.8,3.8
				c0.4,1.4,0.6,2.8,0.4,4.2l0.7-0.1l0,0c-0.6-0.9-1.3-1.7-2.2-2.4c-0.5-0.3-1-0.6-1.6-0.8c-0.6-0.2-1.3-0.2-2,0
				c-0.2,0.1-0.3,0.2-0.5,0.3c-0.1,0.1-0.2,0.2-0.4,0.3c-0.2,0.2-0.4,0.4-0.6,0.7c-0.4,0.5-0.6,1-0.8,1.5c-0.4,1.1-0.5,2.1-0.4,3.2
				l0,0l0.8-0.3c-0.4-0.9-1-1.6-1.8-2.3c-0.4-0.3-0.8-0.6-1.3-0.9c-0.5-0.2-1.1-0.4-1.8-0.3c-0.3,0.1-0.7,0.2-1,0.4
				c-0.3,0.2-0.6,0.4-0.7,0.6c-0.3,0.4-0.6,0.8-0.9,1.2c-0.5,0.9-0.8,1.9-0.6,3l0,0l0.8-0.3c-0.5-1-1.2-1.9-2.1-2.7
				c-0.4-0.4-0.9-0.8-1.6-1c-0.3-0.1-0.7-0.2-1.2-0.2c-0.2,0-0.5,0.1-0.7,0.2c-0.2,0.1-0.3,0.2-0.4,0.2c-1,0.6-1.9,1.3-2.7,2.3
				c-0.8,0.9-1.2,2.2-1.1,3.4l0,0l0.9-0.1c0-1.9,0.1-3.8,0.3-5.6c0.2-1.8,0.6-3.6,1.3-5.3c0.3-0.8,0.7-1.6,1.2-2.3
				c0.5-0.7,1.1-1.3,1.7-1.8c1.2-1.1,2.8-1.8,4.6-2.5l-0.1-0.9c-2-0.4-4.3,0.1-6.1,1.4c-1.8,1.3-3,3.3-3.7,5.2c-0.7,2-0.9,4-0.9,6
				c0,2,0.3,4,0.9,5.9l1.2,3.9l-0.3-4l0,0c0.2-1,0.6-1.8,1.3-2.5c0.7-0.7,1.5-1.2,2.4-1.8c0.1-0.1,0.3-0.2,0.3-0.2c0,0,0.1,0,0.1,0
				c0.1,0,0.2,0,0.4,0.1c0.4,0.1,0.8,0.4,1.2,0.7c0.8,0.6,1.6,1.3,2.4,2l0.8-0.3h0c0.2-0.7,0.6-1.4,1.1-2.1c0.3-0.3,0.5-0.6,0.8-0.9
				c0.3-0.3,0.4-0.3,0.6-0.4c0.4-0.1,1.2,0.3,1.8,0.7c0.7,0.5,1.4,1,2.1,1.6l1,0.8l-0.2-1l0,0c0.2-0.9,0.5-1.9,0.9-2.7
				c0.2-0.4,0.4-0.8,0.7-1.1c0.1-0.2,0.3-0.3,0.4-0.4c0.2-0.1,0.3-0.2,0.4-0.2c0.5-0.2,1.3,0.1,2.1,0.6c0.8,0.4,1.6,1,2.4,1.5l0,0
				l0.4,0.6l0.4-0.7c0.4-0.8,0.6-1.6,0.7-2.4c0.1-0.8,0-1.6-0.1-2.5c-0.3-1.6-0.9-3.2-1.8-4.6c-1.1-1.6-2.7-2.4-4.2-2.9
				c-1.6-0.5-3.2-0.7-4.8-0.5L479.9,583.7z"/>
			<path class="st25" d="M487,597.2l-2.4,13.3l2.7-5.1l1.8,14.7l0.7-5l7,15.8l-0.2-5.1l6.5,8.1l-1.6-4l7.7,4.8
				c-3.4-2.4-7.8-6-11.8-11.2C489.7,613.3,487.6,602.6,487,597.2z"/>
		</g>
		<g>
			<path class="st22" d="M487.7,616.8l5.3-1.6c0,0,4.3,0.9,4.5,1c0.2,0.1,4.2,4,4.2,4l0.6,0.5l4.7-1.8c0,0,0.9,0.8,0.9,1.1
				s-2.8,3.4-2.8,3.4l-1.9,1l1.4,1.6l0,6.9l-3.6,4.9l-5.5,3.3l-0.8-1.2l0.9-3.4c0,0,0-1.6-0.1-1.7s-1.2-0.5-1.4-0.6
				s-2.5-0.4-2.5-0.4s-0.2-1.7-0.1-1.8s0.4-0.4,0.6-0.7c0.2-0.3,0.5-1.2,0.5-1.2l0.2-2l-2-0.8l-1.8-1.1c0,0,0.7-1.1,0.8-1.3
				c0.1-0.2,0.9-1.1,1-1.3c0.1-0.2,0.2-1.6,0.2-1.6l-1-1.9l-1.6-1l-1.5-1.2L487.7,616.8z"/>
			<polygon class="st23" points="432.8,605.2 435.1,619.7 447.9,637.3 458.4,642.3 479.1,643.2 495.2,640.8 494.5,636 494.7,634.4 
				493,634.6 490.2,632.6 492.5,629.9 491.8,628 490.2,626.7 488,626.5 490.9,622.9 490.8,620.8 488.8,618.1 486.6,618.3 483,619.3 
				478.3,622 469.5,623.9 463.4,623.5 455.4,622.8 446.9,619.5 442.3,616.2 437,608.9 			"/>
			<path class="st24" d="M487.3,618.7c-5.7,2.5-11.7,4.3-17.8,5.2c-3.1,0.4-6.2,0.7-9.4,0.5c-3.1-0.1-6.3-0.7-9.3-1.7
				c-3-1-5.9-2.6-8.3-4.8c-0.6-0.5-1.2-1.1-1.8-1.7c-0.6-0.6-1.1-1.2-1.6-1.8c-0.5-0.6-1-1.3-1.4-2l-0.7-1l-0.6-1
				c-0.8-1.2-1.7-2.5-2.6-3.4c-0.2-0.2-0.5-0.4-0.7-0.6c-0.1-0.1-0.2-0.1-0.2-0.1c0,0,0,0,0,0c0.1,0,0.1,0,0.2,0
				c0.1,0,0.2-0.1,0.2-0.1c0,0,0.1-0.1,0.1-0.1c0,0,0,0,0,0c0,0,0,0,0,0c0,0,0,0,0,0.1c-0.1,0.2-0.1,0.5-0.1,0.8
				c0,1.3,0.3,2.8,0.6,4.2c0.3,1.4,0.8,2.8,1.3,4.2c2.1,5.6,5.1,10.9,9,15.4c3.9,4.4,8.8,8,14.4,9.4c1.4,0.3,2.8,0.5,4.3,0.6
				l4.6,0.3c1.5,0.1,3,0.1,4.6,0.2l4.6,0.2c3,0.1,6.1,0.1,9.1,0c1.5-0.1,3-0.1,4.5-0.3c0.4,0,0.7-0.1,1.1-0.2
				c0.4-0.1,0.7-0.1,1.1-0.2c0.4-0.1,0.7-0.2,1.1-0.3l0.5-0.2c0.1-0.1,0.3-0.2,0.4-0.2l0.7,0.6c-0.4,0.4-0.7,0.6-1.1,0.8
				c-0.4,0.2-0.7,0.4-1.1,0.5c-0.4,0.2-0.8,0.3-1.1,0.4c-0.4,0.1-0.8,0.2-1.1,0.3c-1.5,0.4-3.1,0.7-4.6,0.9
				c-3.1,0.4-6.2,0.6-9.3,0.7l-4.6,0c-1.5,0-3.1-0.1-4.6-0.1l-4.6-0.2c-1.6-0.1-3.3-0.3-4.8-0.7c-3.2-0.8-6.2-2.2-8.8-4
				c-2.7-1.8-5-4-7.1-6.4c-4.1-4.8-7.3-10.4-9.4-16.4c-0.5-1.5-1-3-1.4-4.6c-0.4-1.6-0.7-3.1-0.6-4.9c0-0.5,0.1-0.9,0.2-1.5
				c0-0.1,0.1-0.3,0.2-0.4c0.1-0.2,0.1-0.3,0.3-0.5c0.1-0.1,0.1-0.2,0.2-0.3c0.1-0.1,0.2-0.2,0.3-0.3c0.2-0.2,0.5-0.3,0.7-0.4
				c0.3-0.1,0.5-0.1,0.8-0.1c0.2,0,0.4,0.1,0.6,0.1c0.3,0.1,0.6,0.3,0.8,0.4c0.5,0.3,0.8,0.6,1.1,0.9c1.2,1.3,2,2.6,2.9,4l0.6,1
				l0.6,0.9c0.4,0.6,0.8,1.2,1.2,1.8c0.4,0.6,0.9,1.2,1.4,1.7c0.5,0.5,1,1.1,1.5,1.5c2.2,2,4.7,3.5,7.5,4.5c2.8,1.1,5.7,1.6,8.7,1.8
				c3,0.2,6,0.1,9-0.2c3-0.3,6-0.9,9-1.6c2.9-0.8,5.9-1.6,8.7-2.7L487.3,618.7z"/>
			<path class="st18" d="M497.9,621.4c1.7-0.5,3.4-1.1,5.1-1.7c0.8-0.3,1.6-0.7,2.4-1.1c0.4-0.2,0.8-0.4,1.1-0.6l0.3-0.2
				c0.2-0.1,0.6-0.2,0.9-0.2c0.7,0,1.2,0.4,1.4,1c0.1,0.3,0.2,0.6,0.1,0.9c0,0.2-0.1,0.3-0.2,0.4c0,0.1-0.1,0.1-0.1,0.2l-0.1,0.1
				c-0.1,0.2-0.3,0.4-0.4,0.6c-0.3,0.4-0.6,0.8-0.9,1.1c-0.6,0.7-1.3,1.4-2.2,2c-1.6,1.2-3.8,1.8-5.7,1.3l0-0.9
				c1.7-0.4,3.1-1.1,4.4-2.1c0.6-0.5,1.3-1.1,1.8-1.7c0.3-0.3,0.6-0.6,0.8-1l0.4-0.5l0-0.1c0,0,0,0,0,0c0,0,0,0.1,0,0.1
				c0,0.1,0,0.2,0,0.3c0.1,0.1,0.2,0.2,0.4,0.2c0.1,0,0.2,0,0.2-0.1l-0.3,0.2c-0.4,0.2-0.9,0.4-1.3,0.6c-0.9,0.4-1.8,0.7-2.7,0.9
				c-1.8,0.5-3.6,0.9-5.5,1L497.9,621.4z"/>
			<path class="st18" d="M501.4,620.9c-1.1-1-2.2-2-3.3-2.9c-1.1-0.8-2.3-1.6-3.5-1.7c-1.4-0.1-2.8,0-4.2,0.3
				c-1.4,0.3-2.8,0.9-3.8,1.7l-0.3-0.7l0,0c1.1,0,2.1,0.3,3.1,0.7c0.5,0.2,1,0.5,1.4,1c0.4,0.4,0.9,1,1,1.8c0,0.2,0,0.4,0,0.6
				c0,0.2-0.1,0.3-0.1,0.5c-0.1,0.3-0.2,0.6-0.3,0.9c-0.2,0.6-0.6,1-0.9,1.4c-0.7,0.8-1.6,1.5-2.6,1.9l0,0l-0.2-0.8
				c1-0.1,1.9,0.1,2.9,0.4c0.5,0.2,0.9,0.4,1.4,0.7c0.4,0.3,0.9,0.8,1.2,1.4c0.1,0.3,0.2,0.7,0.2,1c0,0.3-0.1,0.7-0.2,0.9
				c-0.2,0.5-0.4,0.9-0.7,1.4c-0.5,0.9-1.2,1.7-2.4,2l0,0l-0.1-0.8c1.1,0,2.3,0.1,3.4,0.5c0.6,0.2,1.1,0.4,1.7,0.9
				c0.3,0.2,0.6,0.5,0.7,0.9c0.1,0.2,0.2,0.5,0.2,0.7c0,0.2,0,0.3,0,0.5c0,1.1-0.2,2.3-0.6,3.4c-0.4,1.1-1.3,2.2-2.4,2.7l0,0
				l-0.4-0.8c1.6-0.9,3.2-1.9,4.7-3c1.5-1.1,2.9-2.3,3.9-3.7c0.5-0.7,1-1.4,1.4-2.2c0.3-0.8,0.6-1.5,0.7-2.3
				c0.3-1.6,0.2-3.3-0.1-5.2l0.8-0.4c1.3,1.6,2.1,3.8,1.8,6c-0.2,2.2-1.4,4.2-2.7,5.8c-1.4,1.6-3,2.8-4.8,3.8
				c-1.8,1-3.6,1.7-5.5,2.2l-4,0.9l3.6-1.7l0,0c0.8-0.6,1.3-1.5,1.5-2.4c0.3-0.9,0.3-1.9,0.3-3c0-0.1,0-0.3,0-0.3c0,0,0-0.1,0-0.1
				c0-0.1-0.1-0.2-0.3-0.3c-0.3-0.2-0.7-0.5-1.2-0.7c-0.9-0.4-1.9-0.7-2.9-1.1l-0.1-0.8l0,0c0.5-0.5,1-1.2,1.3-1.9
				c0.1-0.4,0.3-0.8,0.4-1.2c0.1-0.4,0.1-0.5,0-0.7c-0.1-0.4-0.8-0.9-1.5-1.3c-0.7-0.4-1.6-0.7-2.4-1l-1.2-0.5l1-0.3h0
				c0.7-0.6,1.4-1.4,1.9-2.1c0.3-0.4,0.5-0.8,0.6-1.2c0.1-0.2,0.1-0.4,0.2-0.6c0-0.2,0-0.4,0-0.5c-0.1-0.5-0.7-1.1-1.5-1.5
				c-0.8-0.5-1.7-0.9-2.5-1.4l0,0l-0.7,0l0.4-0.7c0.5-0.8,1.1-1.3,1.8-1.8c0.7-0.5,1.4-0.8,2.2-1.1c1.5-0.6,3.2-0.8,4.9-0.7
				c1.9,0.2,3.4,1.1,4.6,2.2c1.2,1.1,2.1,2.4,2.8,3.9L501.4,620.9z"/>
			<path class="st25" d="M486.2,621.3l-10.4,8.7l3.1-4.8l-13.6,5.7l4-3.1l-17.2,1.6l4.5-2.4l-10.3-1.7l4.3-0.6l-8-4.4
				c3.8,1.8,9,3.8,15.5,4.7C470.9,626.9,481.2,623.4,486.2,621.3z"/>
		</g>
	</g>
	<path class="st14" d="M605.7,648.5H402.1V454.8l2.8-1c31.3-11,64-16.6,97.2-16.8c34.4-0.2,68.3,5.5,100.8,16.8l2.8,1V648.5z
		 M411.2,640.9h185.3v-181c-29.9-10.1-61.1-15.3-92.6-15.3c-0.6,0-1.1,0-1.7,0c-31,0.2-61.6,5.3-90.9,15.3V640.9z"/>
	<g>
		<ellipse transform="matrix(0.2133 -0.977 0.977 0.2133 -129.6325 910.128)" class="st26" cx="500.3" cy="535.6" rx="12" ry="11"/>
		<g>
			<path class="st26" d="M511.4,533.3c0.5,3.3,0,6.8-1.7,9.8c-1.6,3-4.5,5-7.5,5.4c-3,0.4-6-0.6-8.4-2.4c-2.4-1.8-4.4-4.6-5.1-8
				c-0.4-1.7-0.4-3.6-0.1-5.3c0.3-1.8,1-3.4,2-4.8c1.9-2.9,4.7-4.8,7.7-5.4c3-0.6,6.2,0.2,8.6,2.4
				C509.4,526.9,510.9,530,511.4,533.3z M511.1,533.3c-0.3-1.6-0.9-3.1-1.8-4.3c-0.9-1.2-2-2.1-3.2-2.7c-2.4-1.2-4.9-1.5-7.4-1
				c-2.4,0.5-4.7,1.9-6.4,4.1c-1.6,2.2-2.6,5.1-2.4,8.2c0.1,1.5,0.5,3,1.3,4.3c0.7,1.3,1.8,2.4,2.9,3.2c2.4,1.6,5.2,1.6,7.6,0.9
				c2.5-0.7,4.7-2.1,6.6-4.2c0.9-1.1,1.7-2.3,2.2-3.8C511.2,536.6,511.3,534.9,511.1,533.3z"/>
		</g>
		<path class="st18" d="M468.1,474.6l-15.8-1.3h-13.1l-13.1,4.2l-13.1,7.1l-9.6,12.7l-7.2,12.7l-8.4,24.1l-1.2,12.7l15.9-2.6
			l13.9-3.1l9-2.8l5.1-2.2l2.3-1.3l-17.6-0.7h-4.8l9.6-1.4l13.1-2.8l9.6-0.3l4.7-2.6l-6-4.2l-2.9-2.3l1.7-0.6l13.9,2.1l1.8-1.9
			l-7.3-3.1l-2.5-1.2l9.7,1.2l5.3-1.8l-6.5-3.9l-2.2-2.1l11.6,2.5l3.5,0.4l7.8-1.7l23.5-3.8l6-1l0.8,0.7l-3.3,5.3l-4.2,15.7
			l-0.4,16.5l3.8-11.2l4.1-6.7l-2,14.1l-1.9,16.8l3.8-11.1l3.6-11.4l-2.9,17.6l-2.4,16.1l-1.2,17.4l1.4,6.3l1.6-10.9l3.5-14.3l3-9.5
			l2.4-4.1l-2.6,20.1v14.6l1.7-5l1.6-8.5l2.1-4.6l-0.8,12.6l1.2,10.3l1.9,1.5l5.8-10.4l4.3,9.2l1.5-1.2v-5.8l2.7,4.2l1.8-1.2
			l0.6-3.7l1.2-0.3l5,3.5l1.9-8.8l-0.5-3.6l2.1,1.3l-0.1-16l7.3,10.2l-8.7-19.2l5,4.3l5.6,7.3l-0.6-7l-5-17.8l6.3,11.2l-1-10.3
			l5.5,7.4c0,0-1-13.3-7.4-18.7l-0.4-0.8l7.8,2.4l3.2,1.3l-4.5-7.3l-4.3-3.9l2.4,0.2l9.5,4.5l-8.8-12.6c0,0-2.8-6.5,4-3.3
			c6.8,3.2,0,0,0,0l3,3.8l5.3,5.7l-3.9-13.3l3.1,0.8l5.4,2.8l5.8,6.6l2.3,4l-2-11.1l1.7,1.8l9.1,13l0.9,0.9l-1.6-8.7l5.8,7.4l3.2,6
			l-0.9-10.3l3.8,5.9l2.6,7.2l1.3-5.6l-0.1-6.2l0.2-1.3l3.5,8.5l1.1-1.5l-0.4-8.4l2.8,1.8l-8.1-25.5l-11.5-15.2l-17.3-7.1l-15.7-1.7
			h-5l-10.8,2.7l-8.4,2.6l-13.5,5.7l-3.9-14.4l-4.6-8.4l-5.8-7.3l-4.7-4.2l-2.5-1.1l0,0l2.9,3.8l-7.6,0.9l-6.7,0.9l-9,4.1l8.7,1.4
			l4.2,1.1l3.1,2.3l4.6,2.8l3.2,3.3l3.5,6.5l1.8,7.2l1,10.9l-5.8-10.1l-6.5-8.8l-9.6-6.4l-5.2-1.2l-5.4-0.1l-0.9,1l-9.1-3.4
			l-2.7-0.2l5.9,4.5l-8.9-2l-9.2,0.8l-1.6,0.4l7.8,2.8l5.6,4.1L468.1,474.6z"/>
		<g>
			<path class="st26" d="M507.2,504.8c0.1,0.2,0.1,0.6-0.1,0.8l-0.1,0.1l0,0.1l-0.1,0.1l-0.2,0.2l-0.3,0.5c-0.2,0.3-0.5,0.7-0.7,1
				c-0.4,0.7-0.8,1.4-1.2,2.1c-0.8,1.5-1.4,3-2,4.5c-1.2,3.1-2.1,6.4-2.6,9.8c-0.6,3.4-0.9,6.8-1.1,10.3c-0.1,3.5-0.1,6.9,0.1,10.4
				l0,0l-1.2-0.1c0.6-3.8,1.5-7.4,2.8-11c0.6-1.8,1.4-3.5,2.3-5.1c0.9-1.6,2-3.1,3.5-4.2l0,0l1.2-1.2l-0.3,2c-1,6.1-2.2,12.1-3,18.1
				c-0.4,3-0.8,6.1-1.1,9.2c-0.3,3.1-0.5,6.2-0.7,9.3l0,0l-1.2-0.2c1-5,2.1-9.9,3.3-14.8c0.6-2.4,1.2-4.9,2-7.3
				c0.4-1.2,0.7-2.4,1.2-3.6c0.2-0.6,0.5-1.2,0.8-1.8c0.2-0.3,0.3-0.6,0.6-0.9c0.1-0.1,0.3-0.3,0.5-0.4c0.2-0.1,0.6-0.2,0.9,0l0,0
				l0.4,0.2l-0.1,0.6l-2.5,14.8c-0.8,4.9-1.6,9.8-2.3,14.8c-0.7,4.9-1.3,9.9-1.6,14.8c-0.2,2.5-0.3,4.9-0.2,7.4
				c0,2.5,0.2,4.9,0.7,7.3l0,0l-1.2,0.2c0.4-3.9,0.9-7.7,1.5-11.6c0.6-3.8,1.4-7.6,2.3-11.4c1.9-7.5,4.3-14.9,8.2-21.3l0,0l1.9-3.4
				l-0.8,4c-1.5,7.1-2.7,14.4-3.3,21.6c-0.3,3.6-0.5,7.3-0.6,10.9c-0.1,3.6,0.1,7.3,0.4,11l0,0l-1.2,0.1c0.3-4.5,0.8-8.9,1.7-13.4
				c0.4-2.2,0.9-4.4,1.6-6.5c0.7-2.1,1.5-4.3,2.9-6l0,0l1.2-1.8l-0.2,2.5c-0.2,2.2-0.4,4.5-0.5,6.7c-0.2,2.2-0.3,4.5-0.4,6.7
				c-0.1,2.2-0.1,4.4,0.1,6.6c0.1,2.2,0.3,4.3,0.8,6.3l0,0l-0.8-0.2c0.6-1.1,1.3-2,1.9-3c0.6-1,1.3-1.9,1.9-2.9c0.6-1,1.1-2,1.6-3
				c0.5-1,0.9-2.2,1.5-3.3l0,0l0.3-1.9l0.8,1.8c0.9,1.9,1.6,3.9,2.4,5.9c0.4,1,0.7,2,1.1,2.9c0.2,0.5,0.4,0.9,0.6,1.3
				c0.1,0.2,0.2,0.4,0.3,0.4c0,0,0,0-0.1,0c-0.1,0-0.2-0.1-0.4,0c-0.2,0.1-0.3,0.2-0.4,0.2l-0.1,0.2c0.2-0.4,0.5-1.1,0.7-1.7
				c0.2-0.6,0.3-1.3,0.3-1.9c0-0.6,0-1.3-0.1-1.9c-0.1-0.7-0.3-1.3-0.6-1.9l0,0l-2.1-4.6l3.1,3.7c0.7,0.9,1.4,1.8,2,2.8
				c0.6,1,1.2,2,1.7,3.1l0,0l-0.5-0.4c0.2-0.1,0.5-0.4,0.7-0.7c0.2-0.3,0.4-0.7,0.5-1.2c0.3-0.9,0.4-2,0.6-3.1l0,0l0-1l0.7,0.3
				c1.2,0.5,2.2,1.1,3.3,1.8c1,0.7,2,1.6,2.9,2.6l0,0l-1,0.3c-0.1-2.2,0.3-4.3,0.7-6.4c0.2-1,0.3-2.1,0.5-3.1c0.1-1,0.2-2,0.1-2.8
				l0,0L543,576l0-0.1c0-0.3,0-0.4,0.2-0.6c0.1-0.2,0.3-0.4,0.5-0.4c0.4-0.1,0.6,0,0.7,0.1c0.3,0.2,0.6,0.4,0.8,0.6
				c0.4,0.4,0.8,0.8,1.2,1.3l0,0l-1,0.5c-0.4-2.8-0.5-5.7-0.6-8.5l-0.1-4.2l-0.1-2.1c0-0.3,0-0.7-0.1-1c0-0.3-0.1-0.7-0.1-0.7l0,0
				l0.8-1c1.6,1.9,3.2,3.9,4.6,6c0.7,1,1.4,2.1,2.1,3.3c0.7,1.1,1.3,2.3,1.7,3.7l0,0l-1.1,0.5c-1.8-3.7-3.2-7.6-4.6-11.5
				c-0.7-1.9-1.4-3.9-2.2-5.7c-0.4-0.9-0.8-1.9-1.2-2.8c-0.2-0.5-0.4-0.9-0.6-1.3c-0.2-0.4-0.5-0.8-0.6-1l0,0l0.6-1.2
				c3.2,3,6.3,6.1,9.1,9.7c0.7,0.9,1.3,1.9,1.9,2.9c0.6,1,1.1,2.2,1.4,3.5l0,0.2c0,0,0.1,0.2-0.1-0.1c-0.1-0.1-0.2-0.3-0.4-0.3
				c0,0-0.1-0.1-0.4,0c-0.2,0-0.4,0.2-0.5,0.4c-0.1,0.2-0.1,0.3-0.1,0.3l0,0l0,0.1c0,0.1,0,0,0,0l0-0.2c0-0.3,0-0.5-0.1-0.8
				c-0.1-0.6-0.1-1.2-0.2-1.7c-0.2-1.2-0.3-2.3-0.6-3.5c-0.8-4.6-1.8-9.2-3.2-13.6c-0.7-2.2-1.5-4.4-2.5-6.3c-1-2-2.2-3.9-3.8-4.8
				l0,0l0.5-1.3c1.4,0.9,2.5,1.9,3.6,3.1c1.1,1.2,2.1,2.4,3.1,3.8c0.9,1.4,1.8,2.8,2.5,4.3c0.7,1.5,1.3,3.1,1.9,4.7l0,0l-1.1,0.1
				c0-2.1,0-4.3-0.2-6.4c-0.1-1-0.4-2.1-0.7-3c-0.3-1-0.8-1.9-1.3-2.6l0,0l0.8-1c1.4,1.7,2.7,3.5,4,5.4c1.2,1.9,2.4,3.9,3.3,6.1l0,0
				l-1.1,0.3c-0.3-2.2-0.7-4.4-1.1-6.6c-0.5-2.1-1-4.2-1.8-6.1c-0.8-1.9-1.8-3.7-3.1-5.3c-1.2-1.6-2.8-2.8-4.4-4l0,0l-4.5-2.4
				l4.8,1.1c2.5,0.6,5,1.3,7.4,2.3c2.4,0.9,4.8,2.1,7.1,3.4l0,0l-0.8,1c-1-1-1.8-2.2-2.6-3.3c-0.7-1.2-1.5-2.3-2.3-3.4
				c-1.6-2.2-3.4-4.2-5.5-5.7l0,0l-4.6-2.6l4.9,1.3c2.7,0.7,5.4,1.6,7.9,2.9c1.3,0.6,2.5,1.4,3.7,2.3c1.2,0.9,2.3,2,3.1,3.7l0,0
				L567,528c-2.8-5.7-6.6-10.8-10.9-14.9c-4.3-4.2-9.3-7.1-14.7-8.9c-5.4-1.7-11-2.2-16.6-1.8c-1.4,0.1-2.8,0.3-4.2,0.5
				c-1.4,0.2-2.8,0.5-4.2,0.7l-4.2,1l-4.2,1.2l0,0l-4.7,1.5l4.2-2.8c2.6-1.7,5.2-3,8-4.2c2.7-1.1,5.5-2,8.4-2.5
				c5.7-1.2,11.6-1.2,17.3,0.1c2.9,0.6,5.6,1.6,8.3,2.9c2.7,1.2,5.3,2.9,7.7,4.7c4.9,3.7,9.3,8.2,13.1,13.3l0,0l-1,0.3
				c-0.3-1.2-0.6-2.4-0.9-3.5c-0.3-1.1-0.6-2.2-1-3.3c-0.4-1.1-0.8-2.2-1.3-3.3c-0.5-1.1-1-2.2-1.5-3.4l0,0l-0.9-1.3l1.3,0.1
				c2.1,0.1,4,0.8,5.8,1.7c1.8,0.9,3.5,2.1,5.1,3.6c3.1,2.9,5.6,6.7,7.5,10.7l0,0l-1.1,0.4c-0.4-2.4-0.8-4.8-1.3-7.2
				c-0.3-1.2-0.6-2.4-0.9-3.5c-0.4-1.1-0.8-2.2-1.3-3.2l0,0l-2.5-5l3.4,4.2c2.5,3,4.9,6.1,7.2,9.4c1.1,1.6,2.3,3.3,3.3,5
				c1,1.8,2,3.5,2.8,5.6l0,0l-1.2,0.3c-0.3-1.8-0.6-3.7-1-5.6c-0.4-1.8-0.9-3.6-1.3-5.5l0,0l-0.8-2.2l1.7,1.3c1.2,1,2.3,2.1,3.2,3.3
				c1,1.2,1.9,2.5,2.7,3.9c0.8,1.4,1.5,2.8,2.2,4.3c0.7,1.5,1.2,3,1.7,4.5l0,0l-1.2,0.1c-0.1-1.2-0.2-2.4-0.3-3.6
				c-0.1-1.2-0.1-2.4-0.2-3.5c-0.1-1.2-0.3-2.3-0.6-3.4c-0.3-1.1-0.6-2.1-1.2-3l0,0l0.8-1c2,2.5,3.7,5.1,5.2,8
				c1.5,2.9,2.8,6,3.3,9.4l0,0l-1.2-0.1c0.2-1.2,0.3-2.5,0.5-3.8c0.1-1.3,0.2-2.5,0.2-3.8c0-2.5-0.2-5-0.7-7.5l0,0l-0.8-3l1.8,2.2
				c0.7,0.9,1.4,1.9,1.9,2.9c0.6,1,1.1,2.1,1.5,3.2c0.5,1.1,0.8,2.3,1.1,3.5c0.3,1.2,0.4,2.4,0.4,3.7l0,0l-1.2-0.2
				c0.2-2.3,0.5-4.6,0.6-6.9c0.1-2.3,0-4.5-0.6-6.7l0,0l-0.4-1.1l0.9,0.1c0.8,0.1,1.3,0.5,1.8,0.9c0.5,0.5,0.8,1,1.1,1.6
				c0.6,1.2,1,2.4,1.2,3.7l0,0l-1.2,0.3c-2.9-10.8-6.4-21.5-11.6-30.9c-2.6-4.6-5.6-8.9-9.4-12c-1.9-1.6-3.9-2.8-6-3.6
				c-1.1-0.4-2.3-0.7-3.4-1.1c-1.1-0.4-2.3-0.6-3.5-0.9c-9.3-2.2-18.9-2.6-28.4-1.2c-4.7,0.7-9.4,1.9-14,3.4
				c-4.6,1.5-9.1,3.5-13.6,5.7l0,0l-0.7,0.4l-0.2-1c-0.3-2-0.8-4.1-1.3-6c-0.5-2-1.1-3.9-1.8-5.8c-1.4-3.8-3.1-7.4-5.2-10.7
				c-1-1.7-2.2-3.2-3.4-4.7c-1.2-1.5-2.5-2.8-3.9-4.1c-2.8-2.5-5.8-4.6-9-6.3l0,0l0.5-1.3c1.3,1.1,2.5,2.2,3.8,3.4
				c1.2,1.2,2.4,2.4,3.5,3.8l0,0l1.3,1.3l-1.8-0.1c-2-0.2-4.1-0.2-6.1,0c-2,0.2-4,0.4-6,0.9c-2,0.5-3.9,1-5.8,1.8
				c-1.9,0.8-3.7,1.8-5.5,2.9l0,0l-0.4-1.3c4.3-0.4,8.5,0.2,12.6,1.7c4,1.5,7.9,4.1,10.8,7.8c2.9,3.7,4.9,8.4,5.9,13.2
				c1.1,4.9,1.4,9.9,1.2,14.9l0,0l0.1,3.9l-1.3-3.7c-0.7-2-1.5-4-2.3-5.9c-0.9-1.9-1.8-3.8-2.9-5.6c-2.1-3.5-4.5-6.8-7.3-9.5
				c-2.8-2.7-6-4.7-9.5-5.8c-1.7-0.6-3.5-1-5.3-1.1c-1.8-0.2-3.6-0.1-5.5,0l0,0l0.1-1.4c2.6,1.3,5.1,2.6,7.6,4.2
				c1.2,0.8,2.5,1.6,3.7,2.5c1.2,1,2.4,1.9,3.3,3.4l1.9,3l-2.7-2.1c-4.1-3.2-8.5-6.1-13-8.5c-2.3-1.2-4.6-2.3-6.9-3.1
				c-2.3-0.8-4.8-1.4-7.1-1l0.1-1.4l4.2,2.1c1.4,0.7,2.8,1.4,4.2,2.2l0,0l4.8,2.7l-5.2-1.3c-1.7-0.4-3.5-0.8-5.3-1.1
				c-1.8-0.3-3.6-0.5-5.3-0.5c-3.6-0.1-7.2,0.2-10.4,1.6l0,0l-0.2-1.4c1.7,0,3.3,0.3,5,0.7c1.6,0.4,3.2,1,4.7,1.8
				c1.5,0.8,3,1.8,4.3,3.1c1.3,1.3,2.4,2.8,3.3,4.6l0,0l0.8,1.4l-1.5-0.4c-9.4-2.4-19.2-2.8-28.6-1.1c-9.4,1.7-18.4,6-25.9,12.8
				c-3.8,3.4-7.1,7.4-10.1,11.8c-1.5,2.2-2.9,4.5-4.1,6.9c-1.3,2.4-2.5,4.9-3.5,7.4c-4.3,10.2-7.2,21.2-9.4,32.4l0,0l-0.6-0.8
				c8.1-1,16.2-2.4,24.3-4.2c4-0.9,8-2,11.9-3.3c3.9-1.3,7.8-2.8,11.3-5.2l0,0l0.4,1.3c-2,0.5-4,0.8-6,1.1c-2,0.2-4,0.4-6,0.5
				c-2,0-4,0.1-6.1-0.1c-2-0.2-4.1-0.5-6.1-1.5l0,0l-2-1l2.1-0.4c3.2-0.6,6.4-1.2,9.6-1.7l9.6-1.6c3.2-0.6,6.4-1.1,9.5-1.7l4.7-0.9
				c0.8-0.1,1.6-0.3,2.3-0.4c0.4-0.1,0.8-0.2,1.1-0.3c0.4-0.1,0.7-0.2,0.9-0.3h0l0.2,1.2c-2-0.9-3.9-1.9-5.8-2.9
				c-0.9-0.5-1.9-1.1-2.8-1.8c-0.5-0.3-0.9-0.7-1.3-1.1c-0.4-0.4-0.9-0.9-1.2-1.6l0,0l-0.5-1.1l1.2,0.1c3.4,0.3,6.8,0.8,10.1,1.2
				c1.7,0.2,3.3,0.3,5,0.4c1.6,0.1,3.3,0.2,4.8-0.1l0,0l0.1,1.3c-2.2-0.5-4.3-1.2-6.5-1.9c-1.1-0.4-2.1-0.8-3.2-1.4
				c-0.5-0.3-1-0.6-1.5-1c-0.3-0.2-0.5-0.4-0.7-0.7c-0.2-0.3-0.5-0.7-0.5-1.3l0,0l0-0.8l0.8,0.1c2.7,0.4,5.5,0.6,8.2,0.7
				c1.4,0,2.7-0.1,4.1-0.2c1.3-0.1,2.7-0.3,4.1-0.4l0,0l0,1.4c-2-0.6-3.9-1.3-5.8-2.1c-0.9-0.4-1.9-0.9-2.8-1.4
				c-0.5-0.3-0.9-0.6-1.4-1c-0.4-0.4-0.9-0.8-1.2-1.5l-0.6-1.3l1.3,0.3c2.5,0.7,5.1,1.3,7.7,1.8c1.3,0.3,2.6,0.5,3.9,0.7
				c1.3,0.2,2.6,0.4,3.8,0.4l-0.1,0c6.7-1.2,13.4-2.4,20.1-3.5L507.2,504.8z M506.1,505.4l-19.4,3.9c-6.4,1.3-12.9,2.5-19.3,3.6l0,0
				l0,0c-1.4,0-2.7-0.2-4-0.4c-1.3-0.2-2.6-0.4-3.9-0.7c-2.6-0.5-5.2-1.1-7.7-1.8l0.7-1c0.3,0.7,1.2,1.3,2.1,1.8
				c0.9,0.5,1.8,1,2.7,1.4c1.8,0.8,3.7,1.5,5.6,2.1l1.6,0.5l-1.6,0.9l0,0c-1.3,0.9-2.7,1.4-4.2,1.7c-1.5,0.2-2.9,0.3-4.4,0.2
				c-1.4-0.1-2.9-0.3-4.3-0.6c-1.4-0.3-2.8-0.7-4.2-1.3l0.7-0.7l0,0c0,0.1,0.3,0.6,0.7,0.9c0.4,0.3,0.9,0.6,1.4,0.9
				c1,0.5,2,0.9,3,1.3c2.1,0.8,4.2,1.4,6.3,1.9l1.4,0.3l-1.2,1l0,0c-0.8,0.7-1.7,1.1-2.6,1.4c-0.9,0.3-1.8,0.4-2.7,0.5
				c-1.8,0.1-3.5-0.1-5.3-0.3c-3.5-0.5-6.8-1.4-10.1-2.9l0.7-1l0,0c0.4,0.8,1.3,1.5,2.1,2.1c0.9,0.6,1.8,1.2,2.7,1.7
				c1.8,1.1,3.7,2,5.6,2.9l0.8,0.4l-0.6,0.8l0,0c-0.5,0.6-0.8,0.8-1.2,1c-0.4,0.2-0.8,0.4-1.2,0.6c-0.8,0.3-1.6,0.6-2.4,0.9
				c-1.6,0.5-3.2,0.9-4.8,1.2c-3.2,0.6-6.4,1.1-9.6,1.6c-3.2,0.5-6.4,0.8-9.7,1.2c-3.2,0.4-6.5,0.6-9.7,0.8l0.2-1.4l0,0
				c1.8,0.6,3.8,0.8,5.7,0.8c2,0,3.9,0,5.9-0.1c2-0.1,4-0.2,6-0.4l6-0.4l2.6-0.2l-2.3,1.5l0,0c-3.7,2.5-7.6,4-11.6,5.3
				c-4,1.3-8,2.4-12,3.3c-8.1,1.8-16.2,3.2-24.4,4.3l-0.8,0.1l0.1-0.9l0,0c1.3-11.5,3.7-23,7.8-33.7c4.1-10.7,10.2-20.7,18.2-28
				c8-7.4,17.8-11.8,27.7-13.2c5-0.7,10-0.7,14.9-0.1c4.9,0.6,9.8,1.7,14.5,3.7l-0.7,1l0,0c-0.8-1.6-1.8-3-3-4.2
				c-1.2-1.2-2.6-2.2-4-2.9c-1.4-0.8-3-1.3-4.5-1.7c-1.5-0.4-3.2-0.7-4.7-0.7l-2.8-0.1l2.6-1.3l0,0c1.7-1,3.6-1.5,5.4-1.9
				c1.9-0.3,3.7-0.4,5.6-0.3c3.7,0.2,7.3,0.9,10.9,2.1l-0.4,1.3l0,0c-1.3-0.8-2.7-1.5-4.1-2.2l-4.2-2l-2.2-1l2.3-0.3
				c2.6-0.4,5.2,0.3,7.6,1.1c2.4,0.8,4.8,1.9,7.1,3.2c4.6,2.5,9,5.4,13.2,8.6l-0.8,1c-0.7-1.2-1.8-2.2-3-3.1
				c-1.1-0.9-2.3-1.7-3.6-2.5c-2.4-1.5-5-2.9-7.5-4.1l-2-1l2.2-0.4l0,0c3.7-0.9,7.7-0.9,11.5,0.2c3.8,1,7.4,3.2,10.4,6.1
				c3,2.9,5.6,6.4,7.6,10.2c2,3.9,3.7,7.9,4.7,12.3l-1.2,0.2l0,0c0.1-4.9-0.2-9.8-1.2-14.4c-1-4.7-2.9-9.1-5.7-12.6
				c-2.8-3.5-6.4-6-10.2-7.4c-3.9-1.4-8-2-12.1-1.6l-2.3,0.2l1.9-1.5l0,0c3.3-3.2,7.4-5.1,11.6-6c2.1-0.4,4.2-0.7,6.4-0.6
				c2.1,0,4.2,0.3,6.3,0.9l-0.5,1.2l0,0c-1.1-1.3-2.2-2.5-3.4-3.7c-1.2-1.2-2.4-2.3-3.7-3.3l-4.1-3.4l4.7,2.1l0,0
				c3.5,1.3,6.8,3.2,9.8,5.7c1.5,1.2,2.9,2.7,4.2,4.2c1.3,1.5,2.5,3.2,3.6,4.9c2.2,3.5,4,7.3,5.3,11.4c1.3,4.1,2.2,8.2,2.5,12.6
				l-0.8-0.6l0,0c4.3-2.6,8.9-4.8,13.5-6.6c4.6-1.8,9.4-3.2,14.3-4.1c9.7-1.7,19.6-1.7,29.3,0.5c2.4,0.5,4.8,1.3,7.2,2.1
				c2.5,0.9,4.8,2.3,6.9,4c4.2,3.5,7.5,8.1,10.2,13c2.7,5,4.8,10.3,6.5,15.7c1.7,5.5,3,11.1,3.7,16.8l-1.2,0.3l0,0
				c-0.3-1.2-0.6-2.3-1.1-3.3c-0.2-0.5-0.5-0.9-0.9-1.3c-0.3-0.3-0.8-0.6-1-0.6l0.5-1l0,0c0.6,1.1,1,2.3,1.2,3.6
				c0.2,1.3,0.3,2.5,0.3,3.8c-0.1,2.5-0.5,5-1.5,7.3l-1.6,3.6l0.4-3.9l0,0c0-1.1-0.1-2.3-0.4-3.4c-0.2-1.1-0.6-2.2-1-3.2
				c-0.4-1-0.9-2-1.4-3c-0.5-0.9-1.2-1.9-1.8-2.7l1-0.8l0,0c0.5,1.2,1,2.6,1.2,3.9c0.2,1.4,0.3,2.8,0.3,4.1c-0.1,2.8-0.5,5.5-1.4,8
				l-0.9,2.5l-0.2-2.6l0,0c-0.5-3.1-1.7-6.1-3.1-8.9c-1.5-2.8-3.2-5.4-5.1-7.7l0.8-1l0,0c0.9,0.9,1.6,2,2.1,3.2
				c0.5,1.2,0.8,2.5,0.9,3.8c0.2,1.3,0.2,2.6,0.2,3.9c-0.1,1.3-0.2,2.6-0.6,3.8l-0.8,2.5l-0.4-2.4l0,0c-0.5-1.5-1-3-1.7-4.4
				c-0.6-1.4-1.3-2.8-2.1-4.1c-0.8-1.3-1.6-2.5-2.6-3.7c-0.9-1.1-1.9-2.2-3-3l0.8-0.9l0,0c1,1.7,1.6,3.6,2,5.6c0.4,2,0.6,4,0.4,6.1
				l-0.3,3.4l-0.9-3.1l0,0c-0.6-1.9-1.6-3.6-2.6-5.3c-1-1.7-2.1-3.4-3.2-5c-2.3-3.2-4.7-6.3-7.1-9.3l0.9-0.9l0,0
				c0.6,1.1,1,2.3,1.4,3.5c0.4,1.2,0.7,2.4,1,3.6c0.6,2.4,1,4.9,1.3,7.4l0.4,3.8l-1.6-3.3l0,0c-1.8-3.9-4.2-7.5-7.2-10.3
				c-1.5-1.4-3.1-2.5-4.8-3.4c-1.7-0.8-3.6-1.4-5.4-1.5l0.4-1.2l0,0c1,0.7,2,1.6,2.8,2.7c0.8,1,1.5,2.3,2,3.6
				c0.5,1.3,0.8,2.8,0.9,4.2c0.1,1.5-0.1,2.9-0.7,4.3l-0.6,1.4l-0.4-1l0,0c-3.8-5-8.1-9.5-12.9-13.1c-2.4-1.8-4.9-3.3-7.5-4.5
				c-2.6-1.2-5.3-2.2-8.1-2.8c-5.5-1.3-11.3-1.3-16.9-0.1c-5.6,1.2-11,3.3-15.9,6.5l-0.5-1.3l0,0c5.4-2.3,11.1-4,16.9-4.6
				c5.8-0.7,11.8-0.5,17.5,1.3c5.7,1.7,11.2,4.9,15.8,9.4c4.5,4.5,8.3,10.3,10.1,17l-1.1,0.6l0,0c-0.5-1.3-1.6-2.3-2.7-3.1
				c-1.1-0.9-2.3-1.6-3.5-2.2c-2.5-1.2-5.1-2.1-7.7-2.8l0.3-1.4l0,0c2.7,0.9,4.9,2.9,6.8,5.2c0.9,1.1,1.8,2.3,2.6,3.6
				c0.7,1.3,1.4,2.7,1.7,4.3l0.4,2.4l-1.2-1.4l0,0c-2.2-1.3-4.5-2.4-6.9-3.4c-2.4-0.9-4.8-1.7-7.2-2.2l0.3-1.4l0,0
				c2,0.6,3.9,1.7,5.5,3.3c1.6,1.6,3,3.6,3.9,5.8c1,2.2,1.7,4.6,1.9,7c0.3,2.4,0.3,4.9-0.2,7.3l-0.6,2.5l-0.6-2.3l0,0
				c-0.9-2.1-2-4-3.2-5.8c-1.2-1.8-2.5-3.6-3.9-5.3l0.8-1l0,0c1.6,1.7,2.4,4.1,2.7,6.4c0.2,1.2,0.3,2.3,0.2,3.5
				c0,1.2-0.1,2.3-0.4,3.5l-0.6,2.6l-0.6-2.4l0,0c-0.5-1.6-1.1-3.1-1.8-4.5c-0.7-1.5-1.5-2.8-2.4-4.1c-0.9-1.3-1.9-2.5-2.9-3.6
				c-1-1.1-2.2-2.1-3.4-2.9l0.5-1.3l0,0c2.1,1.1,3.5,3.1,4.6,5.2c1.1,2.1,2,4.3,2.7,6.6c1.5,4.5,2.6,9.2,3.4,13.9
				c0.2,1.2,0.4,2.4,0.5,3.6c0.1,0.6,0.2,1.2,0.2,1.8c0,0.3,0.1,0.6,0.1,1l0,0.3c0,0.1,0,0.1,0,0.3l0,0.1l0,0.1c0,0,0,0-0.1,0.3
				c-0.1,0.2-0.3,0.4-0.5,0.4c-0.2,0-0.3,0-0.4,0c-0.1-0.1-0.3-0.2-0.4-0.3c-0.2-0.4-0.2-0.4-0.2-0.5l-0.1-0.3
				c-0.4-2.1-1.7-3.9-2.9-5.7c-2.6-3.5-5.6-6.8-8.6-9.8l0.6-1.2l0,0c0.6,0.4,0.9,0.8,1.2,1.3c0.3,0.4,0.6,0.9,0.8,1.3
				c0.5,0.9,1,1.8,1.4,2.8c0.9,1.9,1.7,3.8,2.5,5.7c1.5,3.9,2.9,7.8,3.8,11.9l-1.1,0.5l0,0c-0.3-1.1-0.9-2.3-1.6-3.3
				c-0.6-1.1-1.3-2.1-2.1-3.2c-1.4-2.1-3-4-4.6-6l0.8-1l0,0c0.4,0.5,0.5,0.9,0.6,1.3c0.1,0.4,0.2,0.7,0.3,1.1
				c0.2,0.7,0.3,1.5,0.4,2.2c0.2,1.4,0.3,2.9,0.4,4.3c0.1,2.9,0.1,5.7-0.2,8.6l-0.2,1.7l-0.8-1.2l0,0c-0.4-0.4-0.7-0.8-1.1-1.1
				c-0.2-0.2-0.4-0.3-0.5-0.4c0,0-0.1,0,0,0c0.1,0,0.2-0.1,0.2-0.2c0-0.1,0-0.1,0-0.2l-0.1-0.3l0,0c0.6,1.2,0.7,2.4,0.8,3.6
				c0,1.2,0,2.3-0.2,3.4c-0.1,1.1-0.3,2.2-0.6,3.3c-0.3,1.1-0.6,2.1-1.2,3.1l-0.6,1.1l-0.4-0.8l0,0c-0.8-0.9-1.7-1.7-2.7-2.4
				c-1-0.7-2-1.3-3.1-1.7l0.8-0.7l0,0c0.1,1.2,0.1,2.5-0.2,3.7c-0.2,0.6-0.5,1.3-0.9,1.8c-0.5,0.5-1,0.9-1.8,0.9l-0.4,0l-0.1-0.4
				l0,0c-0.9-2-2.1-3.8-3.5-5.5l0.9-0.9l0,0c0.9,1.3,1.4,2.9,1.4,4.7c0,0.9-0.1,1.7-0.2,2.5c-0.2,0.8-0.4,1.6-0.8,2.4l0,0.1
				l-0.1,0.1c-0.1,0.2-0.4,0.4-0.7,0.4c-0.3,0.1-0.5,0-0.7,0c-0.4-0.2-0.5-0.3-0.7-0.5c-0.3-0.3-0.4-0.6-0.6-0.8
				c-0.3-0.5-0.5-1-0.8-1.6c-0.4-1-0.8-2-1.2-3.1c-0.7-2.1-1.2-4.2-1.5-6.4l1.2-0.1l0,0c0.2,2.8-0.6,5.7-1.9,8.1
				c-0.7,1.2-1.4,2.3-2.4,3.2c-0.9,0.9-2,1.6-3.2,2l-0.7,0.2l-0.1-0.4l0,0c-1.4-1.9-1.9-4.5-2.2-6.8c-0.2-2.4-0.2-4.7,0-7
				c0.1-2.3,0.4-4.6,0.8-6.9c0.4-2.3,0.8-4.5,1.4-6.7l1,0.6l0,0c-1.2,1.5-2,3.5-2.6,5.5c-0.6,2.1-1.1,4.2-1.5,6.4
				c-0.8,4.3-1.3,8.7-1.6,13.2l-0.3,4.4L512,593l0,0c-0.9-3.6-1.4-7.4-1.6-11.2c-0.2-3.8-0.1-7.6,0.3-11.3c0.4-3.8,1-7.5,1.8-11.1
				c0.8-3.6,1.8-7.2,3.1-10.7l1,0.7l0,0c-3.7,6.2-6.1,13.5-8,20.9c-0.9,3.7-1.7,7.5-2.3,11.2c-0.6,3.8-1.2,7.6-1.5,11.4l-0.3,3.1
				l-0.9-3l0,0c-1.7-4.9-1.9-10.2-1.8-15.3c0.1-5.1,0.6-10.2,1.3-15.2c1.4-10,3.5-19.9,6.4-29.4l0.3,0.8l0,0c0.1,0,0.2,0,0.1,0
				c0,0-0.1,0.1-0.1,0.1c-0.1,0.2-0.3,0.4-0.4,0.6c-0.3,0.5-0.5,1-0.7,1.6c-0.4,1.1-0.8,2.3-1.2,3.5c-0.7,2.4-1.3,4.8-1.9,7.2
				c-1.2,4.9-2.3,9.8-3.3,14.7l-1.2,5.8v-5.9v0c-0.1-3.1-0.2-6.3,0-9.4c0.1-3.1,0.4-6.3,0.7-9.4c0.4-3.1,0.8-6.2,1.5-9.3
				c0.7-3.1,1.4-6.1,2.7-8.9l0.9,0.8l0,0c-1.3,0.9-2.3,2.3-3.2,3.8c-0.9,1.5-1.6,3.2-2.2,4.9c-1.2,3.4-2.1,7.1-2.7,10.7l-0.8,4.8
				l-0.4-4.9l0,0c-0.4-3.5-0.6-7.1-0.5-10.6c0.1-3.6,0.4-7.1,1-10.6c0.6-3.5,1.5-6.9,2.8-10.2c0.7-1.6,1.4-3.2,2.2-4.7
				c0.4-0.7,0.9-1.5,1.4-2.2c0.2-0.4,0.5-0.7,0.8-1l0.4-0.5l0.2-0.2l0.1-0.1l0.1-0.1l0,0c0,0,0,0-0.1,0.1
				C506,504.9,506,505.2,506.1,505.4z"/>
			<path class="st26" d="M503.6,507.2c0,0,29.9,34,31,72.2c0,0-0.6-26.2-4.2-31.9c0,0,2.4,0,3.6,2.8
				C534.1,550.4,535.3,532,503.6,507.2z"/>
			<path class="st26" d="M504.8,505.8c0,0,65.7-48.2,95.5,0c0,0-7.8-6.4-12.5-7.8c0,0,3.6,2.8,4.8,7.1
				C592.6,505.1,574.7,471.1,504.8,505.8z"/>
			<path class="st26" d="M504.8,505.8c0,0-53.7-52.4-100.3,18.4C404.5,524.2,446.9,464,504.8,505.8z"/>
			<path class="st26" d="M504.8,505.8c0,0-15.5-25.5-28.7-29.7C476.2,476,494.1,476,504.8,505.8z"/>
		</g>
		<path class="st22" d="M493,492.7c0,0-18.9-24.1-58-13.8c-39.1,10.3-45.4,61.3-45.4,61.3l10.1-26.2l-1.5,10.3l11.6-23.4l-5.4,14.2
			l15.8-22l-5.7,12.7l16.9-16.6l-1.9,5.9l13.1-10.7l-2.7,4.4l17.3-6.4l-5.7,3.2l21.9-1.4l-4.2,1.8C469.5,486,484.2,484.4,493,492.7z
			"/>
		<path class="st22" d="M508.4,508.7c0,0,24,12.8,30.5,34.7c0,0,1-12-1.9-17.1c-2.9-5.1,4.3,0.6,5.8,6c0,0-0.7-10.8-7.9-18
			c0,0,7,4.2,7.9,6.9c-0.7-4.3-2.2-7.1-3.4-8.8C533.4,504.1,521.1,502.6,508.4,508.7z"/>
		<path class="st22" d="M504.8,511.7c0,0,22.7,24.6,27.2,67.8l-6.6-17.7l-2.8,17.9l1.3-22.5l-4.7,6l1.8-19.8c0,0-6.1-7.3-7.7-3.2
			c-0.3,0.7-0.4,1.7-0.4,3.2c0,0-1.6-13.7-0.7-15.3c0,0-3.4,1-4.3,2.6c-0.1,0.2-0.2,0.5-0.2,0.7c0,2,0.7-10,0.7-10s-3.8-0.8-4.1,1.3
			C504.3,522.7,502.3,516.6,504.8,511.7z"/>
		<path class="st22" d="M495.5,502c0,0-47.2-29.7-87.6,23.4c0,0,10.7-7.6,16.5-5.8l-4.4-2.9c0,0,10.3-9,22.5-7.1l-6-3.8
			c0,0,11-5.4,21.8-2.8l-3.7-3.5C454.7,499.4,480.2,496.3,495.5,502z"/>
		<path class="st22" d="M534.7,481.5c0,0,49.2-22.1,65.7,13.6l-14.5-11.7l2,3.8l-17.5-7.5l2.8,3.1l-16.9-2.8l3,2.1L534.7,481.5z"/>
		<path class="st22" d="M541.6,495.1c0,0,28.2-10.4,44.9,6.6l6.3,7.6c0,0-12.4-13.5-18.7-13.3l5.7,4.6c0,0-9.6-5.8-14.3-4.6l6.1,3.2
			C571.6,499.2,553.7,494.6,541.6,495.1z"/>
		<path class="st22" d="M504.8,497.1C504.8,497.1,504.8,497.1,504.8,497.1c-0.5,0.5-8-9.7-12.1-14.3c-4.6-5.2-12-11.3-24.5-15
			c1.6,0,3.4,0.2,5.4,0.6c3.1,0.6,7,1.8,10.2,4.4l-2.2-3.7c0,0,16.5,11.4,18.5,15.4l-3.8-9.7C496.5,474.7,507.4,487.7,504.8,497.1z"
			/>
		<path class="st22" d="M494.5,453.2c0,0,24.6,8.1,20.9,40.5C515.4,493.7,526.6,451.4,494.5,453.2z"/>
		<ellipse class="st26" cx="474.7" cy="511.8" rx="9.6" ry="12.7"/>
		<g>
			<path class="st26" d="M484.4,511.8c0,3.2-0.6,6.5-2.1,9.3c-0.8,1.4-1.9,2.6-3.2,3.5c-1.3,0.8-2.8,1.2-4.3,1.1
				c-1.5-0.1-2.9-0.7-4.1-1.6c-1.2-0.9-2.2-2.1-3.1-3.3c-1.7-2.6-2.7-5.7-3-9c-0.2-3.3,0.5-6.9,2.4-9.6c0.9-1.4,2.1-2.5,3.4-3.4
				c1.3-0.9,2.9-1.3,4.4-1.3c1.5,0,3,0.5,4.4,1.4c1.3,0.9,2.4,2.1,3.2,3.5C483.8,505.3,484.3,508.6,484.4,511.8z M484.1,511.8
				c0-3.1-1.3-6.2-3.1-8.1c-1.8-2-4.1-3.2-6.3-3.1c-2.3,0-4.5,1.2-6.1,3.4c-1.6,2.1-2.6,4.9-2.8,7.9c-0.2,3,0.5,6.2,2.3,8.4
				c1.7,2.3,4.3,3.3,6.6,3.1c2.4-0.2,4.5-1.4,6.4-3.4C482.9,517.9,484.1,514.9,484.1,511.8z"/>
		</g>
		
			<ellipse transform="matrix(0.2133 -0.977 0.977 0.2133 -109.4788 877.4344)" class="st26" cx="490.1" cy="506.7" rx="7.8" ry="7.2"/>
		<g>
			<path class="st26" d="M497.4,505.2c0.3,2.1,0.1,4.5-0.9,6.6c-0.5,1-1.3,1.9-2.1,2.6c-0.9,0.6-1.9,1-2.9,1.2
				c-2.1,0.2-4-0.6-5.6-1.9c-1.6-1.2-2.9-3-3.5-5.4c-0.3-1.1-0.4-2.4-0.1-3.6c0.2-1.2,0.7-2.4,1.3-3.4c1.3-2,3.2-3.4,5.3-3.8
				c2.1-0.4,4.3,0.2,5.9,1.8C496.2,500.9,497.1,503.1,497.4,505.2z M497.1,505.2c-0.2-1-0.6-2-1.2-2.7c-0.6-0.7-1.4-1.2-2.1-1.6
				c-1.6-0.6-3.1-0.8-4.6-0.4c-1.5,0.3-2.9,1.2-4,2.5c-1,1.3-1.7,3.1-1.6,5c0,1.9,1.1,3.9,2.6,4.8c1.5,1,3.4,0.8,4.9,0.3
				c1.5-0.5,2.9-1.3,4.2-2.6c0.6-0.6,1.2-1.4,1.6-2.4C497.2,507.4,497.3,506.3,497.1,505.2z"/>
		</g>
	</g>
</g>
</svg>
